M48
; DRILL file {KiCad 8.0.6} date 2024-11-11T00:09:54+0900
; FORMAT={-:-/ absolute / metric / decimal}
; #@! TF.CreationDate,2024-11-11T00:09:54+09:00
; #@! TF.GenerationSoftware,Kicad,Pcbnew,8.0.6
; #@! TF.FileFunction,MixedPlating,1,2
FMAT,2
METRIC
; #@! TA.AperFunction,Plated,PTH,ViaDrill
T1C0.300
; #@! TA.AperFunction,Plated,PTH,ComponentDrill
T2C0.762
; #@! TA.AperFunction,Plated,PTH,ComponentDrill
T3C0.800
; #@! TA.AperFunction,Plated,PTH,ComponentDrill
T4C0.900
; #@! TA.AperFunction,Plated,PTH,ComponentDrill
T5C1.000
%
G90
G05
T1
X102.23Y-117.47
X103.5Y-113.66
X122.55Y-90.8
X123.15Y-91.4
T2
X113.66Y-93.34
X113.66Y-95.88
X113.66Y-98.42
X113.66Y-100.96
X113.66Y-103.5
X113.66Y-106.04
X113.66Y-108.58
X113.66Y-111.12
X113.66Y-114.93
X113.66Y-122.55
X116.2Y-114.93
X116.2Y-122.55
X118.74Y-114.93
X118.74Y-122.55
X121.28Y-93.34
X121.28Y-95.88
X121.28Y-98.42
X121.28Y-100.96
X121.28Y-103.5
X121.28Y-106.04
X121.28Y-108.58
X121.28Y-111.12
X121.28Y-114.93
X121.28Y-122.55
X123.82Y-114.93
X123.82Y-122.55
X126.36Y-114.93
X126.36Y-122.55
X128.9Y-114.93
X128.9Y-122.55
X131.44Y-114.93
X131.44Y-122.55
X133.98Y-114.93
X133.98Y-122.55
X136.52Y-114.93
X136.52Y-122.55
T3
X50.15Y-95.837
X50.15Y-103.457
X50.15Y-105.998
X50.15Y-113.617
X50.16Y-45.08
X50.16Y-52.7
X50.16Y-55.24
X50.16Y-62.86
X50.16Y-70.438
X50.16Y-78.057
X50.16Y-80.597
X50.16Y-88.218
X52.69Y-95.837
X52.69Y-103.457
X52.69Y-105.998
X52.69Y-113.617
X52.7Y-45.08
X52.7Y-52.7
X52.7Y-55.24
X52.7Y-62.86
X52.7Y-70.438
X52.7Y-78.057
X52.7Y-80.597
X52.7Y-88.218
X55.23Y-95.837
X55.23Y-103.457
X55.23Y-105.998
X55.23Y-113.617
X55.24Y-45.08
X55.24Y-52.7
X55.24Y-55.24
X55.24Y-62.86
X55.24Y-70.438
X55.24Y-78.057
X55.24Y-80.597
X55.24Y-88.218
X57.77Y-95.837
X57.77Y-103.457
X57.77Y-105.998
X57.77Y-113.617
X57.78Y-45.08
X57.78Y-52.7
X57.78Y-55.24
X57.78Y-62.86
X57.78Y-70.438
X57.78Y-78.057
X57.78Y-80.597
X57.78Y-88.218
X60.31Y-95.837
X60.31Y-103.457
X60.31Y-105.998
X60.31Y-113.617
X60.32Y-45.08
X60.32Y-52.7
X60.32Y-55.24
X60.32Y-62.86
X60.32Y-70.438
X60.32Y-78.057
X60.32Y-80.597
X60.32Y-88.218
X62.85Y-95.837
X62.85Y-103.457
X62.85Y-105.998
X62.85Y-113.617
X62.86Y-45.08
X62.86Y-52.7
X62.86Y-55.24
X62.86Y-62.86
X62.86Y-70.438
X62.86Y-78.057
X62.86Y-80.597
X62.86Y-88.218
X65.39Y-95.837
X65.39Y-103.457
X65.39Y-105.998
X65.39Y-113.617
X65.4Y-45.08
X65.4Y-52.7
X65.4Y-55.24
X65.4Y-62.86
X65.4Y-70.438
X65.4Y-78.057
X65.4Y-80.597
X65.4Y-88.218
X67.93Y-95.837
X67.93Y-103.457
X67.93Y-105.998
X67.93Y-113.617
X67.94Y-45.08
X67.94Y-52.7
X67.94Y-55.24
X67.94Y-62.86
X67.94Y-70.438
X67.94Y-78.057
X67.94Y-80.597
X67.94Y-88.218
X69.21Y-125.09
X69.21Y-135.25
X73.02Y-125.09
X73.02Y-135.25
X76.83Y-125.09
X76.83Y-135.25
X79.36Y-45.08
X79.36Y-52.7
X79.36Y-55.24
X79.36Y-62.86
X79.36Y-70.48
X79.36Y-78.1
X79.36Y-80.64
X79.36Y-88.26
X79.37Y-95.88
X79.37Y-103.5
X79.37Y-106.04
X79.37Y-113.66
X80.64Y-125.09
X80.64Y-135.25
X81.9Y-45.08
X81.9Y-52.7
X81.9Y-55.24
X81.9Y-62.86
X81.9Y-70.48
X81.9Y-78.1
X81.9Y-80.64
X81.9Y-88.26
X81.91Y-95.88
X81.91Y-103.5
X81.91Y-106.04
X81.91Y-113.66
X84.44Y-45.08
X84.44Y-52.7
X84.44Y-55.24
X84.44Y-62.86
X84.44Y-70.48
X84.44Y-78.1
X84.44Y-80.64
X84.44Y-88.26
X84.45Y-95.88
X84.45Y-103.5
X84.45Y-106.04
X84.45Y-113.66
X84.45Y-125.09
X84.45Y-135.25
X86.98Y-45.08
X86.98Y-52.7
X86.98Y-55.24
X86.98Y-62.86
X86.98Y-70.48
X86.98Y-78.1
X86.98Y-80.64
X86.98Y-88.26
X86.99Y-95.88
X86.99Y-103.5
X86.99Y-106.04
X86.99Y-113.66
X88.26Y-125.09
X88.26Y-135.25
X89.52Y-45.08
X89.52Y-52.7
X89.52Y-55.24
X89.52Y-62.86
X89.52Y-70.48
X89.52Y-78.1
X89.52Y-80.64
X89.52Y-88.26
X89.53Y-95.88
X89.53Y-103.5
X89.53Y-106.04
X89.53Y-113.66
X92.06Y-45.08
X92.06Y-52.7
X92.06Y-55.24
X92.06Y-62.86
X92.06Y-70.48
X92.06Y-78.1
X92.06Y-80.64
X92.06Y-88.26
X92.07Y-95.88
X92.07Y-103.5
X92.07Y-106.04
X92.07Y-113.66
X92.07Y-125.09
X92.07Y-135.25
X94.57Y-55.24
X94.57Y-62.86
X94.6Y-45.08
X94.6Y-52.7
X94.6Y-70.48
X94.6Y-78.1
X94.6Y-80.64
X94.6Y-88.26
X94.61Y-95.88
X94.61Y-103.5
X94.61Y-106.04
X94.61Y-113.66
X95.88Y-125.09
X95.88Y-135.25
X97.14Y-45.08
X97.14Y-52.7
X97.14Y-55.24
X97.14Y-62.86
X97.14Y-70.48
X97.14Y-78.1
X97.14Y-80.64
X97.14Y-88.26
X97.15Y-95.88
X97.15Y-103.5
X97.15Y-106.04
X97.15Y-113.66
X99.69Y-125.09
X99.69Y-135.25
X108.57Y-70.48
X108.57Y-78.1
X108.57Y-80.64
X108.57Y-88.26
X108.58Y-45.08
X108.58Y-52.7
X108.58Y-55.29
X108.58Y-62.91
X111.11Y-70.48
X111.11Y-78.1
X111.11Y-80.64
X111.11Y-88.26
X111.12Y-45.08
X111.12Y-52.7
X111.12Y-55.24
X111.12Y-62.86
X113.65Y-70.48
X113.65Y-78.1
X113.65Y-80.64
X113.65Y-88.26
X113.66Y-45.08
X113.66Y-52.7
X113.66Y-55.24
X113.66Y-62.86
X116.19Y-70.48
X116.19Y-78.1
X116.19Y-80.64
X116.19Y-88.26
X116.2Y-45.08
X116.2Y-52.7
X116.2Y-55.24
X116.2Y-62.86
X118.73Y-70.48
X118.73Y-78.1
X118.73Y-80.64
X118.73Y-88.26
X118.74Y-45.08
X118.74Y-52.7
X118.74Y-55.24
X118.74Y-62.86
X121.27Y-70.48
X121.27Y-78.1
X121.27Y-80.64
X121.27Y-88.26
X121.28Y-45.08
X121.28Y-52.7
X121.28Y-55.24
X121.28Y-62.86
X123.81Y-70.48
X123.81Y-78.1
X123.81Y-80.64
X123.81Y-88.26
X123.82Y-45.08
X123.82Y-52.7
X123.82Y-55.24
X123.82Y-62.86
X126.35Y-70.48
X126.35Y-78.1
X126.35Y-80.64
X126.35Y-88.26
X126.36Y-45.08
X126.36Y-52.7
X126.36Y-55.24
X126.36Y-62.86
T4
X45.08Y-62.86
X45.08Y-88.26
X45.08Y-113.66
X47.62Y-62.86
X47.62Y-88.26
X47.62Y-113.66
X74.29Y-62.86
X74.29Y-88.26
X74.29Y-113.66
X76.83Y-62.86
X76.83Y-88.26
X76.83Y-113.66
X103.5Y-62.86
X103.5Y-88.26
X106.04Y-62.86
X106.04Y-88.26
T5
X48.89Y-129.0
X51.43Y-129.0
X53.97Y-129.0
X56.51Y-129.0
X59.05Y-129.0
X61.59Y-129.0
X113.66Y-129.0
X116.2Y-129.0
X118.74Y-129.0
X121.28Y-129.0
X123.82Y-129.0
X126.36Y-129.0
X128.9Y-129.0
X131.44Y-129.0
M30
