G04 #@! TF.GenerationSoftware,KiCad,Pcbnew,8.0.6*
G04 #@! TF.CreationDate,2024-11-11T00:09:23+09:00*
G04 #@! TF.ProjectId,memory_module,6d656d6f-7279-45f6-9d6f-64756c652e6b,rev?*
G04 #@! TF.SameCoordinates,Original*
G04 #@! TF.FileFunction,Soldermask,Bot*
G04 #@! TF.FilePolarity,Negative*
%FSLAX46Y46*%
G04 Gerber Fmt 4.6, Leading zero omitted, Abs format (unit mm)*
G04 Created by KiCad (PCBNEW 8.0.6) date 2024-11-11 00:09:23*
%MOMM*%
%LPD*%
G01*
G04 APERTURE LIST*
%ADD10R,1.800000X1.800000*%
%ADD11C,1.800000*%
%ADD12C,1.600000*%
%ADD13O,1.600000X1.600000*%
%ADD14R,1.600000X1.600000*%
%ADD15C,1.270000*%
%ADD16R,1.700000X1.700000*%
%ADD17O,1.700000X1.700000*%
G04 APERTURE END LIST*
D10*
G04 #@! TO.C,D68*
X47620000Y-88260000D03*
D11*
X45080000Y-88260000D03*
G04 #@! TD*
D12*
G04 #@! TO.C,R2*
X76830000Y-125090000D03*
D13*
X76830000Y-135250000D03*
G04 #@! TD*
D14*
G04 #@! TO.C,D53*
X60310000Y-113617500D03*
D13*
X60310000Y-105997500D03*
G04 #@! TD*
D14*
G04 #@! TO.C,D54*
X62850000Y-113617500D03*
D13*
X62850000Y-105997500D03*
G04 #@! TD*
D14*
G04 #@! TO.C,D57*
X79370000Y-113660000D03*
D13*
X79370000Y-106040000D03*
G04 #@! TD*
D14*
G04 #@! TO.C,D34*
X81900000Y-88260000D03*
D13*
X81900000Y-80640000D03*
G04 #@! TD*
D10*
G04 #@! TO.C,D69*
X76830000Y-88260000D03*
D11*
X74290000Y-88260000D03*
G04 #@! TD*
D14*
G04 #@! TO.C,D46*
X121270000Y-88260000D03*
D13*
X121270000Y-80640000D03*
G04 #@! TD*
D14*
G04 #@! TO.C,D6*
X62860000Y-62860000D03*
D13*
X62860000Y-55240000D03*
G04 #@! TD*
D14*
G04 #@! TO.C,D36*
X86980000Y-88260000D03*
D13*
X86980000Y-80640000D03*
G04 #@! TD*
D14*
G04 #@! TO.C,D48*
X126350000Y-88260000D03*
D13*
X126350000Y-80640000D03*
G04 #@! TD*
D14*
G04 #@! TO.C,D42*
X111110000Y-88260000D03*
D13*
X111110000Y-80640000D03*
G04 #@! TD*
D14*
G04 #@! TO.C,D35*
X84440000Y-88260000D03*
D13*
X84440000Y-80640000D03*
G04 #@! TD*
D14*
G04 #@! TO.C,D29*
X60320000Y-88217500D03*
D13*
X60320000Y-80597500D03*
G04 #@! TD*
D14*
G04 #@! TO.C,D61*
X89530000Y-113660000D03*
D13*
X89530000Y-106040000D03*
G04 #@! TD*
D14*
G04 #@! TO.C,D24*
X126360000Y-62860000D03*
D13*
X126360000Y-55240000D03*
G04 #@! TD*
D14*
G04 #@! TO.C,D43*
X113650000Y-88260000D03*
D13*
X113650000Y-80640000D03*
G04 #@! TD*
D14*
G04 #@! TO.C,D18*
X111120000Y-62860000D03*
D13*
X111120000Y-55240000D03*
G04 #@! TD*
D12*
G04 #@! TO.C,R4*
X84450000Y-125090000D03*
D13*
X84450000Y-135250000D03*
G04 #@! TD*
D14*
G04 #@! TO.C,D2*
X52700000Y-62860000D03*
D13*
X52700000Y-55240000D03*
G04 #@! TD*
D14*
G04 #@! TO.C,SW1*
X50160000Y-52700000D03*
D13*
X52700000Y-52700000D03*
X55240000Y-52700000D03*
X57780000Y-52700000D03*
X60320000Y-52700000D03*
X62860000Y-52700000D03*
X65400000Y-52700000D03*
X67940000Y-52700000D03*
X67940000Y-45080000D03*
X65400000Y-45080000D03*
X62860000Y-45080000D03*
X60320000Y-45080000D03*
X57780000Y-45080000D03*
X55240000Y-45080000D03*
X52700000Y-45080000D03*
X50160000Y-45080000D03*
G04 #@! TD*
D14*
G04 #@! TO.C,D20*
X116200000Y-62860000D03*
D13*
X116200000Y-55240000D03*
G04 #@! TD*
D14*
G04 #@! TO.C,D60*
X86990000Y-113660000D03*
D13*
X86990000Y-106040000D03*
G04 #@! TD*
D14*
G04 #@! TO.C,D41*
X108570000Y-88260000D03*
D13*
X108570000Y-80640000D03*
G04 #@! TD*
D14*
G04 #@! TO.C,D8*
X67940000Y-62860000D03*
D13*
X67940000Y-55240000D03*
G04 #@! TD*
D14*
G04 #@! TO.C,SW5*
X79360000Y-78100000D03*
D13*
X81900000Y-78100000D03*
X84440000Y-78100000D03*
X86980000Y-78100000D03*
X89520000Y-78100000D03*
X92060000Y-78100000D03*
X94600000Y-78100000D03*
X97140000Y-78100000D03*
X97140000Y-70480000D03*
X94600000Y-70480000D03*
X92060000Y-70480000D03*
X89520000Y-70480000D03*
X86980000Y-70480000D03*
X84440000Y-70480000D03*
X81900000Y-70480000D03*
X79360000Y-70480000D03*
G04 #@! TD*
D14*
G04 #@! TO.C,D58*
X81910000Y-113660000D03*
D13*
X81910000Y-106040000D03*
G04 #@! TD*
D14*
G04 #@! TO.C,SW3*
X108580000Y-52700000D03*
D13*
X111120000Y-52700000D03*
X113660000Y-52700000D03*
X116200000Y-52700000D03*
X118740000Y-52700000D03*
X121280000Y-52700000D03*
X123820000Y-52700000D03*
X126360000Y-52700000D03*
X126360000Y-45080000D03*
X123820000Y-45080000D03*
X121280000Y-45080000D03*
X118740000Y-45080000D03*
X116200000Y-45080000D03*
X113660000Y-45080000D03*
X111120000Y-45080000D03*
X108580000Y-45080000D03*
G04 #@! TD*
D12*
G04 #@! TO.C,R8*
X99690000Y-125090000D03*
D13*
X99690000Y-135250000D03*
G04 #@! TD*
D15*
G04 #@! TO.C,U1*
X113660000Y-93340000D03*
X113660000Y-95880000D03*
X113660000Y-98420000D03*
X113660000Y-100960000D03*
X113660000Y-103500000D03*
X113660000Y-106040000D03*
X113660000Y-108580000D03*
X113660000Y-111120000D03*
X121280000Y-111120000D03*
X121280000Y-108580000D03*
X121280000Y-106040000D03*
X121280000Y-103500000D03*
X121280000Y-100960000D03*
X121280000Y-98420000D03*
X121280000Y-95880000D03*
X121280000Y-93340000D03*
G04 #@! TD*
D14*
G04 #@! TO.C,D19*
X113660000Y-62860000D03*
D13*
X113660000Y-55240000D03*
G04 #@! TD*
D14*
G04 #@! TO.C,D64*
X97150000Y-113660000D03*
D13*
X97150000Y-106040000D03*
G04 #@! TD*
D14*
G04 #@! TO.C,D32*
X67940000Y-88217500D03*
D13*
X67940000Y-80597500D03*
G04 #@! TD*
D14*
G04 #@! TO.C,D21*
X118740000Y-62860000D03*
D13*
X118740000Y-55240000D03*
G04 #@! TD*
D12*
G04 #@! TO.C,R7*
X95880000Y-125090000D03*
D13*
X95880000Y-135250000D03*
G04 #@! TD*
D16*
G04 #@! TO.C,J1*
X61590000Y-129000000D03*
D17*
X59050000Y-129000000D03*
X56510000Y-129000000D03*
X53970000Y-129000000D03*
X51430000Y-129000000D03*
X48890000Y-129000000D03*
G04 #@! TD*
D14*
G04 #@! TO.C,D23*
X123820000Y-62860000D03*
D13*
X123820000Y-55240000D03*
G04 #@! TD*
D14*
G04 #@! TO.C,D49*
X50150000Y-113617500D03*
D13*
X50150000Y-105997500D03*
G04 #@! TD*
D14*
G04 #@! TO.C,D22*
X121280000Y-62860000D03*
D13*
X121280000Y-55240000D03*
G04 #@! TD*
D14*
G04 #@! TO.C,SW6*
X108570000Y-78100000D03*
D13*
X111110000Y-78100000D03*
X113650000Y-78100000D03*
X116190000Y-78100000D03*
X118730000Y-78100000D03*
X121270000Y-78100000D03*
X123810000Y-78100000D03*
X126350000Y-78100000D03*
X126350000Y-70480000D03*
X123810000Y-70480000D03*
X121270000Y-70480000D03*
X118730000Y-70480000D03*
X116190000Y-70480000D03*
X113650000Y-70480000D03*
X111110000Y-70480000D03*
X108570000Y-70480000D03*
G04 #@! TD*
D14*
G04 #@! TO.C,D44*
X116190000Y-88260000D03*
D13*
X116190000Y-80640000D03*
G04 #@! TD*
D14*
G04 #@! TO.C,D33*
X79360000Y-88260000D03*
D13*
X79360000Y-80640000D03*
G04 #@! TD*
D10*
G04 #@! TO.C,D72*
X76830000Y-113660000D03*
D11*
X74290000Y-113660000D03*
G04 #@! TD*
D10*
G04 #@! TO.C,D71*
X47620000Y-113660000D03*
D11*
X45080000Y-113660000D03*
G04 #@! TD*
D14*
G04 #@! TO.C,D14*
X92060000Y-62860000D03*
D13*
X92060000Y-55240000D03*
G04 #@! TD*
D14*
G04 #@! TO.C,D3*
X55240000Y-62860000D03*
D13*
X55240000Y-55240000D03*
G04 #@! TD*
D10*
G04 #@! TO.C,D65*
X47620000Y-62860000D03*
D11*
X45080000Y-62860000D03*
G04 #@! TD*
D14*
G04 #@! TO.C,SW2*
X79360000Y-52700000D03*
D13*
X81900000Y-52700000D03*
X84440000Y-52700000D03*
X86980000Y-52700000D03*
X89520000Y-52700000D03*
X92060000Y-52700000D03*
X94600000Y-52700000D03*
X97140000Y-52700000D03*
X97140000Y-45080000D03*
X94600000Y-45080000D03*
X92060000Y-45080000D03*
X89520000Y-45080000D03*
X86980000Y-45080000D03*
X84440000Y-45080000D03*
X81900000Y-45080000D03*
X79360000Y-45080000D03*
G04 #@! TD*
D10*
G04 #@! TO.C,D67*
X106040000Y-62860000D03*
D11*
X103500000Y-62860000D03*
G04 #@! TD*
D14*
G04 #@! TO.C,D28*
X57780000Y-88217500D03*
D13*
X57780000Y-80597500D03*
G04 #@! TD*
D15*
G04 #@! TO.C,U2*
X136520000Y-114930000D03*
X133980000Y-114930000D03*
X131440000Y-114930000D03*
X128900000Y-114930000D03*
X126360000Y-114930000D03*
X123820000Y-114930000D03*
X121280000Y-114930000D03*
X118740000Y-114930000D03*
X116200000Y-114930000D03*
X113660000Y-114930000D03*
X113660000Y-122550000D03*
X116200000Y-122550000D03*
X118740000Y-122550000D03*
X121280000Y-122550000D03*
X123820000Y-122550000D03*
X126360000Y-122550000D03*
X128900000Y-122550000D03*
X131440000Y-122550000D03*
X133980000Y-122550000D03*
X136520000Y-122550000D03*
G04 #@! TD*
D14*
G04 #@! TO.C,D4*
X57780000Y-62860000D03*
D13*
X57780000Y-55240000D03*
G04 #@! TD*
D14*
G04 #@! TO.C,D13*
X89520000Y-62860000D03*
D13*
X89520000Y-55240000D03*
G04 #@! TD*
D14*
G04 #@! TO.C,D10*
X81900000Y-62860000D03*
D13*
X81900000Y-55240000D03*
G04 #@! TD*
D14*
G04 #@! TO.C,D12*
X86980000Y-62860000D03*
D13*
X86980000Y-55240000D03*
G04 #@! TD*
D14*
G04 #@! TO.C,D51*
X55230000Y-113617500D03*
D13*
X55230000Y-105997500D03*
G04 #@! TD*
D14*
G04 #@! TO.C,D50*
X52690000Y-113617500D03*
D13*
X52690000Y-105997500D03*
G04 #@! TD*
D14*
G04 #@! TO.C,D31*
X65400000Y-88217500D03*
D13*
X65400000Y-80597500D03*
G04 #@! TD*
D12*
G04 #@! TO.C,R3*
X80640000Y-125090000D03*
D13*
X80640000Y-135250000D03*
G04 #@! TD*
D14*
G04 #@! TO.C,SW8*
X79370000Y-103500000D03*
D13*
X81910000Y-103500000D03*
X84450000Y-103500000D03*
X86990000Y-103500000D03*
X89530000Y-103500000D03*
X92070000Y-103500000D03*
X94610000Y-103500000D03*
X97150000Y-103500000D03*
X97150000Y-95880000D03*
X94610000Y-95880000D03*
X92070000Y-95880000D03*
X89530000Y-95880000D03*
X86990000Y-95880000D03*
X84450000Y-95880000D03*
X81910000Y-95880000D03*
X79370000Y-95880000D03*
G04 #@! TD*
D14*
G04 #@! TO.C,D40*
X97140000Y-88260000D03*
D13*
X97140000Y-80640000D03*
G04 #@! TD*
D14*
G04 #@! TO.C,SW7*
X50150000Y-103457500D03*
D13*
X52690000Y-103457500D03*
X55230000Y-103457500D03*
X57770000Y-103457500D03*
X60310000Y-103457500D03*
X62850000Y-103457500D03*
X65390000Y-103457500D03*
X67930000Y-103457500D03*
X67930000Y-95837500D03*
X65390000Y-95837500D03*
X62850000Y-95837500D03*
X60310000Y-95837500D03*
X57770000Y-95837500D03*
X55230000Y-95837500D03*
X52690000Y-95837500D03*
X50150000Y-95837500D03*
G04 #@! TD*
D14*
G04 #@! TO.C,D37*
X89520000Y-88260000D03*
D13*
X89520000Y-80640000D03*
G04 #@! TD*
D14*
G04 #@! TO.C,D30*
X62860000Y-88217500D03*
D13*
X62860000Y-80597500D03*
G04 #@! TD*
D12*
G04 #@! TO.C,R6*
X92070000Y-125090000D03*
D13*
X92070000Y-135250000D03*
G04 #@! TD*
D14*
G04 #@! TO.C,SW4*
X50160000Y-78057500D03*
D13*
X52700000Y-78057500D03*
X55240000Y-78057500D03*
X57780000Y-78057500D03*
X60320000Y-78057500D03*
X62860000Y-78057500D03*
X65400000Y-78057500D03*
X67940000Y-78057500D03*
X67940000Y-70437500D03*
X65400000Y-70437500D03*
X62860000Y-70437500D03*
X60320000Y-70437500D03*
X57780000Y-70437500D03*
X55240000Y-70437500D03*
X52700000Y-70437500D03*
X50160000Y-70437500D03*
G04 #@! TD*
D14*
G04 #@! TO.C,D17*
X108580000Y-62910000D03*
D13*
X108580000Y-55290000D03*
G04 #@! TD*
D12*
G04 #@! TO.C,R1*
X73020000Y-125090000D03*
D13*
X73020000Y-135250000D03*
G04 #@! TD*
D14*
G04 #@! TO.C,D55*
X65390000Y-113617500D03*
D13*
X65390000Y-105997500D03*
G04 #@! TD*
D14*
G04 #@! TO.C,D1*
X50160000Y-62860000D03*
D13*
X50160000Y-55240000D03*
G04 #@! TD*
D14*
G04 #@! TO.C,D7*
X65400000Y-62860000D03*
D13*
X65400000Y-55240000D03*
G04 #@! TD*
D14*
G04 #@! TO.C,D5*
X60320000Y-62860000D03*
D13*
X60320000Y-55240000D03*
G04 #@! TD*
D14*
G04 #@! TO.C,D59*
X84450000Y-113660000D03*
D13*
X84450000Y-106040000D03*
G04 #@! TD*
D14*
G04 #@! TO.C,D39*
X94600000Y-88260000D03*
D13*
X94600000Y-80640000D03*
G04 #@! TD*
D14*
G04 #@! TO.C,D26*
X52700000Y-88217500D03*
D13*
X52700000Y-80597500D03*
G04 #@! TD*
D14*
G04 #@! TO.C,D11*
X84440000Y-62860000D03*
D13*
X84440000Y-55240000D03*
G04 #@! TD*
D14*
G04 #@! TO.C,D27*
X55240000Y-88217500D03*
D13*
X55240000Y-80597500D03*
G04 #@! TD*
D14*
G04 #@! TO.C,D63*
X94610000Y-113660000D03*
D13*
X94610000Y-106040000D03*
G04 #@! TD*
D14*
G04 #@! TO.C,D9*
X79360000Y-62860000D03*
D13*
X79360000Y-55240000D03*
G04 #@! TD*
D14*
G04 #@! TO.C,D38*
X92060000Y-88260000D03*
D13*
X92060000Y-80640000D03*
G04 #@! TD*
D14*
G04 #@! TO.C,D62*
X92070000Y-113660000D03*
D13*
X92070000Y-106040000D03*
G04 #@! TD*
D14*
G04 #@! TO.C,D25*
X50160000Y-88217500D03*
D13*
X50160000Y-80597500D03*
G04 #@! TD*
D16*
G04 #@! TO.C,J2*
X131440000Y-129000000D03*
D17*
X128900000Y-129000000D03*
X126360000Y-129000000D03*
X123820000Y-129000000D03*
X121280000Y-129000000D03*
X118740000Y-129000000D03*
X116200000Y-129000000D03*
X113660000Y-129000000D03*
G04 #@! TD*
D14*
G04 #@! TO.C,D45*
X118730000Y-88260000D03*
D13*
X118730000Y-80640000D03*
G04 #@! TD*
D10*
G04 #@! TO.C,D70*
X106040000Y-88260000D03*
D11*
X103500000Y-88260000D03*
G04 #@! TD*
D10*
G04 #@! TO.C,D66*
X76830000Y-62860000D03*
D11*
X74290000Y-62860000D03*
G04 #@! TD*
D14*
G04 #@! TO.C,D47*
X123810000Y-88260000D03*
D13*
X123810000Y-80640000D03*
G04 #@! TD*
D14*
G04 #@! TO.C,D16*
X97140000Y-62860000D03*
D13*
X97140000Y-55240000D03*
G04 #@! TD*
D14*
G04 #@! TO.C,D52*
X57770000Y-113617500D03*
D13*
X57770000Y-105997500D03*
G04 #@! TD*
D14*
G04 #@! TO.C,D15*
X94570000Y-62860000D03*
D13*
X94570000Y-55240000D03*
G04 #@! TD*
D14*
G04 #@! TO.C,D56*
X67930000Y-113617500D03*
D13*
X67930000Y-105997500D03*
G04 #@! TD*
D12*
G04 #@! TO.C,R9*
X69210000Y-135250000D03*
D13*
X69210000Y-125090000D03*
G04 #@! TD*
D12*
G04 #@! TO.C,R5*
X88260000Y-125090000D03*
D13*
X88260000Y-135250000D03*
G04 #@! TD*
M02*
