G04 #@! TF.GenerationSoftware,KiCad,Pcbnew,8.0.6*
G04 #@! TF.CreationDate,2024-11-11T00:09:23+09:00*
G04 #@! TF.ProjectId,memory_module,6d656d6f-7279-45f6-9d6f-64756c652e6b,rev?*
G04 #@! TF.SameCoordinates,Original*
G04 #@! TF.FileFunction,Legend,Top*
G04 #@! TF.FilePolarity,Positive*
%FSLAX46Y46*%
G04 Gerber Fmt 4.6, Leading zero omitted, Abs format (unit mm)*
G04 Created by KiCad (PCBNEW 8.0.6) date 2024-11-11 00:09:23*
%MOMM*%
%LPD*%
G01*
G04 APERTURE LIST*
%ADD10C,0.100000*%
%ADD11C,0.150000*%
%ADD12C,0.120000*%
%ADD13C,0.152400*%
G04 APERTURE END LIST*
D10*
X44161027Y-123872419D02*
X44732455Y-123872419D01*
X44446741Y-124872419D02*
X44446741Y-123872419D01*
X45065789Y-124872419D02*
X45065789Y-123872419D01*
X45065789Y-123872419D02*
X45303884Y-123872419D01*
X45303884Y-123872419D02*
X45446741Y-123920038D01*
X45446741Y-123920038D02*
X45541979Y-124015276D01*
X45541979Y-124015276D02*
X45589598Y-124110514D01*
X45589598Y-124110514D02*
X45637217Y-124300990D01*
X45637217Y-124300990D02*
X45637217Y-124443847D01*
X45637217Y-124443847D02*
X45589598Y-124634323D01*
X45589598Y-124634323D02*
X45541979Y-124729561D01*
X45541979Y-124729561D02*
X45446741Y-124824800D01*
X45446741Y-124824800D02*
X45303884Y-124872419D01*
X45303884Y-124872419D02*
X45065789Y-124872419D01*
X46494360Y-124205752D02*
X46494360Y-124872419D01*
X46256265Y-123824800D02*
X46018170Y-124539085D01*
X46018170Y-124539085D02*
X46637217Y-124539085D01*
X47780075Y-124872419D02*
X47780075Y-123872419D01*
X47780075Y-123872419D02*
X48113408Y-124586704D01*
X48113408Y-124586704D02*
X48446741Y-123872419D01*
X48446741Y-123872419D02*
X48446741Y-124872419D01*
X49303884Y-124824800D02*
X49208646Y-124872419D01*
X49208646Y-124872419D02*
X49018170Y-124872419D01*
X49018170Y-124872419D02*
X48922932Y-124824800D01*
X48922932Y-124824800D02*
X48875313Y-124729561D01*
X48875313Y-124729561D02*
X48875313Y-124348609D01*
X48875313Y-124348609D02*
X48922932Y-124253371D01*
X48922932Y-124253371D02*
X49018170Y-124205752D01*
X49018170Y-124205752D02*
X49208646Y-124205752D01*
X49208646Y-124205752D02*
X49303884Y-124253371D01*
X49303884Y-124253371D02*
X49351503Y-124348609D01*
X49351503Y-124348609D02*
X49351503Y-124443847D01*
X49351503Y-124443847D02*
X48875313Y-124539085D01*
X49780075Y-124872419D02*
X49780075Y-124205752D01*
X49780075Y-124300990D02*
X49827694Y-124253371D01*
X49827694Y-124253371D02*
X49922932Y-124205752D01*
X49922932Y-124205752D02*
X50065789Y-124205752D01*
X50065789Y-124205752D02*
X50161027Y-124253371D01*
X50161027Y-124253371D02*
X50208646Y-124348609D01*
X50208646Y-124348609D02*
X50208646Y-124872419D01*
X50208646Y-124348609D02*
X50256265Y-124253371D01*
X50256265Y-124253371D02*
X50351503Y-124205752D01*
X50351503Y-124205752D02*
X50494360Y-124205752D01*
X50494360Y-124205752D02*
X50589599Y-124253371D01*
X50589599Y-124253371D02*
X50637218Y-124348609D01*
X50637218Y-124348609D02*
X50637218Y-124872419D01*
X51256265Y-124872419D02*
X51161027Y-124824800D01*
X51161027Y-124824800D02*
X51113408Y-124777180D01*
X51113408Y-124777180D02*
X51065789Y-124681942D01*
X51065789Y-124681942D02*
X51065789Y-124396228D01*
X51065789Y-124396228D02*
X51113408Y-124300990D01*
X51113408Y-124300990D02*
X51161027Y-124253371D01*
X51161027Y-124253371D02*
X51256265Y-124205752D01*
X51256265Y-124205752D02*
X51399122Y-124205752D01*
X51399122Y-124205752D02*
X51494360Y-124253371D01*
X51494360Y-124253371D02*
X51541979Y-124300990D01*
X51541979Y-124300990D02*
X51589598Y-124396228D01*
X51589598Y-124396228D02*
X51589598Y-124681942D01*
X51589598Y-124681942D02*
X51541979Y-124777180D01*
X51541979Y-124777180D02*
X51494360Y-124824800D01*
X51494360Y-124824800D02*
X51399122Y-124872419D01*
X51399122Y-124872419D02*
X51256265Y-124872419D01*
X52018170Y-124872419D02*
X52018170Y-124205752D01*
X52018170Y-124396228D02*
X52065789Y-124300990D01*
X52065789Y-124300990D02*
X52113408Y-124253371D01*
X52113408Y-124253371D02*
X52208646Y-124205752D01*
X52208646Y-124205752D02*
X52303884Y-124205752D01*
X52541980Y-124205752D02*
X52780075Y-124872419D01*
X53018170Y-124205752D02*
X52780075Y-124872419D01*
X52780075Y-124872419D02*
X52684837Y-125110514D01*
X52684837Y-125110514D02*
X52637218Y-125158133D01*
X52637218Y-125158133D02*
X52541980Y-125205752D01*
X54161028Y-124872419D02*
X54161028Y-123872419D01*
X54161028Y-123872419D02*
X54494361Y-124586704D01*
X54494361Y-124586704D02*
X54827694Y-123872419D01*
X54827694Y-123872419D02*
X54827694Y-124872419D01*
X55446742Y-124872419D02*
X55351504Y-124824800D01*
X55351504Y-124824800D02*
X55303885Y-124777180D01*
X55303885Y-124777180D02*
X55256266Y-124681942D01*
X55256266Y-124681942D02*
X55256266Y-124396228D01*
X55256266Y-124396228D02*
X55303885Y-124300990D01*
X55303885Y-124300990D02*
X55351504Y-124253371D01*
X55351504Y-124253371D02*
X55446742Y-124205752D01*
X55446742Y-124205752D02*
X55589599Y-124205752D01*
X55589599Y-124205752D02*
X55684837Y-124253371D01*
X55684837Y-124253371D02*
X55732456Y-124300990D01*
X55732456Y-124300990D02*
X55780075Y-124396228D01*
X55780075Y-124396228D02*
X55780075Y-124681942D01*
X55780075Y-124681942D02*
X55732456Y-124777180D01*
X55732456Y-124777180D02*
X55684837Y-124824800D01*
X55684837Y-124824800D02*
X55589599Y-124872419D01*
X55589599Y-124872419D02*
X55446742Y-124872419D01*
X56637218Y-124872419D02*
X56637218Y-123872419D01*
X56637218Y-124824800D02*
X56541980Y-124872419D01*
X56541980Y-124872419D02*
X56351504Y-124872419D01*
X56351504Y-124872419D02*
X56256266Y-124824800D01*
X56256266Y-124824800D02*
X56208647Y-124777180D01*
X56208647Y-124777180D02*
X56161028Y-124681942D01*
X56161028Y-124681942D02*
X56161028Y-124396228D01*
X56161028Y-124396228D02*
X56208647Y-124300990D01*
X56208647Y-124300990D02*
X56256266Y-124253371D01*
X56256266Y-124253371D02*
X56351504Y-124205752D01*
X56351504Y-124205752D02*
X56541980Y-124205752D01*
X56541980Y-124205752D02*
X56637218Y-124253371D01*
X57541980Y-124205752D02*
X57541980Y-124872419D01*
X57113409Y-124205752D02*
X57113409Y-124729561D01*
X57113409Y-124729561D02*
X57161028Y-124824800D01*
X57161028Y-124824800D02*
X57256266Y-124872419D01*
X57256266Y-124872419D02*
X57399123Y-124872419D01*
X57399123Y-124872419D02*
X57494361Y-124824800D01*
X57494361Y-124824800D02*
X57541980Y-124777180D01*
X58161028Y-124872419D02*
X58065790Y-124824800D01*
X58065790Y-124824800D02*
X58018171Y-124729561D01*
X58018171Y-124729561D02*
X58018171Y-123872419D01*
X58922933Y-124824800D02*
X58827695Y-124872419D01*
X58827695Y-124872419D02*
X58637219Y-124872419D01*
X58637219Y-124872419D02*
X58541981Y-124824800D01*
X58541981Y-124824800D02*
X58494362Y-124729561D01*
X58494362Y-124729561D02*
X58494362Y-124348609D01*
X58494362Y-124348609D02*
X58541981Y-124253371D01*
X58541981Y-124253371D02*
X58637219Y-124205752D01*
X58637219Y-124205752D02*
X58827695Y-124205752D01*
X58827695Y-124205752D02*
X58922933Y-124253371D01*
X58922933Y-124253371D02*
X58970552Y-124348609D01*
X58970552Y-124348609D02*
X58970552Y-124443847D01*
X58970552Y-124443847D02*
X58494362Y-124539085D01*
X60065791Y-124205752D02*
X60303886Y-124872419D01*
X60303886Y-124872419D02*
X60541981Y-124205752D01*
X61446743Y-124872419D02*
X60875315Y-124872419D01*
X61161029Y-124872419D02*
X61161029Y-123872419D01*
X61161029Y-123872419D02*
X61065791Y-124015276D01*
X61065791Y-124015276D02*
X60970553Y-124110514D01*
X60970553Y-124110514D02*
X60875315Y-124158133D01*
X61875315Y-124777180D02*
X61922934Y-124824800D01*
X61922934Y-124824800D02*
X61875315Y-124872419D01*
X61875315Y-124872419D02*
X61827696Y-124824800D01*
X61827696Y-124824800D02*
X61875315Y-124777180D01*
X61875315Y-124777180D02*
X61875315Y-124872419D01*
X62541981Y-123872419D02*
X62637219Y-123872419D01*
X62637219Y-123872419D02*
X62732457Y-123920038D01*
X62732457Y-123920038D02*
X62780076Y-123967657D01*
X62780076Y-123967657D02*
X62827695Y-124062895D01*
X62827695Y-124062895D02*
X62875314Y-124253371D01*
X62875314Y-124253371D02*
X62875314Y-124491466D01*
X62875314Y-124491466D02*
X62827695Y-124681942D01*
X62827695Y-124681942D02*
X62780076Y-124777180D01*
X62780076Y-124777180D02*
X62732457Y-124824800D01*
X62732457Y-124824800D02*
X62637219Y-124872419D01*
X62637219Y-124872419D02*
X62541981Y-124872419D01*
X62541981Y-124872419D02*
X62446743Y-124824800D01*
X62446743Y-124824800D02*
X62399124Y-124777180D01*
X62399124Y-124777180D02*
X62351505Y-124681942D01*
X62351505Y-124681942D02*
X62303886Y-124491466D01*
X62303886Y-124491466D02*
X62303886Y-124253371D01*
X62303886Y-124253371D02*
X62351505Y-124062895D01*
X62351505Y-124062895D02*
X62399124Y-123967657D01*
X62399124Y-123967657D02*
X62446743Y-123920038D01*
X62446743Y-123920038D02*
X62541981Y-123872419D01*
X63303886Y-124777180D02*
X63351505Y-124824800D01*
X63351505Y-124824800D02*
X63303886Y-124872419D01*
X63303886Y-124872419D02*
X63256267Y-124824800D01*
X63256267Y-124824800D02*
X63303886Y-124777180D01*
X63303886Y-124777180D02*
X63303886Y-124872419D01*
X63970552Y-123872419D02*
X64065790Y-123872419D01*
X64065790Y-123872419D02*
X64161028Y-123920038D01*
X64161028Y-123920038D02*
X64208647Y-123967657D01*
X64208647Y-123967657D02*
X64256266Y-124062895D01*
X64256266Y-124062895D02*
X64303885Y-124253371D01*
X64303885Y-124253371D02*
X64303885Y-124491466D01*
X64303885Y-124491466D02*
X64256266Y-124681942D01*
X64256266Y-124681942D02*
X64208647Y-124777180D01*
X64208647Y-124777180D02*
X64161028Y-124824800D01*
X64161028Y-124824800D02*
X64065790Y-124872419D01*
X64065790Y-124872419D02*
X63970552Y-124872419D01*
X63970552Y-124872419D02*
X63875314Y-124824800D01*
X63875314Y-124824800D02*
X63827695Y-124777180D01*
X63827695Y-124777180D02*
X63780076Y-124681942D01*
X63780076Y-124681942D02*
X63732457Y-124491466D01*
X63732457Y-124491466D02*
X63732457Y-124253371D01*
X63732457Y-124253371D02*
X63780076Y-124062895D01*
X63780076Y-124062895D02*
X63827695Y-123967657D01*
X63827695Y-123967657D02*
X63875314Y-123920038D01*
X63875314Y-123920038D02*
X63970552Y-123872419D01*
D11*
X45707142Y-85754819D02*
X45230952Y-85754819D01*
X45230952Y-85754819D02*
X45230952Y-84754819D01*
X46040476Y-85231009D02*
X46373809Y-85231009D01*
X46516666Y-85754819D02*
X46040476Y-85754819D01*
X46040476Y-85754819D02*
X46040476Y-84754819D01*
X46040476Y-84754819D02*
X46516666Y-84754819D01*
X46945238Y-85754819D02*
X46945238Y-84754819D01*
X46945238Y-84754819D02*
X47183333Y-84754819D01*
X47183333Y-84754819D02*
X47326190Y-84802438D01*
X47326190Y-84802438D02*
X47421428Y-84897676D01*
X47421428Y-84897676D02*
X47469047Y-84992914D01*
X47469047Y-84992914D02*
X47516666Y-85183390D01*
X47516666Y-85183390D02*
X47516666Y-85326247D01*
X47516666Y-85326247D02*
X47469047Y-85516723D01*
X47469047Y-85516723D02*
X47421428Y-85611961D01*
X47421428Y-85611961D02*
X47326190Y-85707200D01*
X47326190Y-85707200D02*
X47183333Y-85754819D01*
X47183333Y-85754819D02*
X46945238Y-85754819D01*
X77284819Y-130336666D02*
X76808628Y-130669999D01*
X77284819Y-130908094D02*
X76284819Y-130908094D01*
X76284819Y-130908094D02*
X76284819Y-130527142D01*
X76284819Y-130527142D02*
X76332438Y-130431904D01*
X76332438Y-130431904D02*
X76380057Y-130384285D01*
X76380057Y-130384285D02*
X76475295Y-130336666D01*
X76475295Y-130336666D02*
X76618152Y-130336666D01*
X76618152Y-130336666D02*
X76713390Y-130384285D01*
X76713390Y-130384285D02*
X76761009Y-130431904D01*
X76761009Y-130431904D02*
X76808628Y-130527142D01*
X76808628Y-130527142D02*
X76808628Y-130908094D01*
X76380057Y-129955713D02*
X76332438Y-129908094D01*
X76332438Y-129908094D02*
X76284819Y-129812856D01*
X76284819Y-129812856D02*
X76284819Y-129574761D01*
X76284819Y-129574761D02*
X76332438Y-129479523D01*
X76332438Y-129479523D02*
X76380057Y-129431904D01*
X76380057Y-129431904D02*
X76475295Y-129384285D01*
X76475295Y-129384285D02*
X76570533Y-129384285D01*
X76570533Y-129384285D02*
X76713390Y-129431904D01*
X76713390Y-129431904D02*
X77284819Y-130003332D01*
X77284819Y-130003332D02*
X77284819Y-129384285D01*
X74917142Y-85754819D02*
X74440952Y-85754819D01*
X74440952Y-85754819D02*
X74440952Y-84754819D01*
X75250476Y-85231009D02*
X75583809Y-85231009D01*
X75726666Y-85754819D02*
X75250476Y-85754819D01*
X75250476Y-85754819D02*
X75250476Y-84754819D01*
X75250476Y-84754819D02*
X75726666Y-84754819D01*
X76155238Y-85754819D02*
X76155238Y-84754819D01*
X76155238Y-84754819D02*
X76393333Y-84754819D01*
X76393333Y-84754819D02*
X76536190Y-84802438D01*
X76536190Y-84802438D02*
X76631428Y-84897676D01*
X76631428Y-84897676D02*
X76679047Y-84992914D01*
X76679047Y-84992914D02*
X76726666Y-85183390D01*
X76726666Y-85183390D02*
X76726666Y-85326247D01*
X76726666Y-85326247D02*
X76679047Y-85516723D01*
X76679047Y-85516723D02*
X76631428Y-85611961D01*
X76631428Y-85611961D02*
X76536190Y-85707200D01*
X76536190Y-85707200D02*
X76393333Y-85754819D01*
X76393333Y-85754819D02*
X76155238Y-85754819D01*
X84904819Y-130336666D02*
X84428628Y-130669999D01*
X84904819Y-130908094D02*
X83904819Y-130908094D01*
X83904819Y-130908094D02*
X83904819Y-130527142D01*
X83904819Y-130527142D02*
X83952438Y-130431904D01*
X83952438Y-130431904D02*
X84000057Y-130384285D01*
X84000057Y-130384285D02*
X84095295Y-130336666D01*
X84095295Y-130336666D02*
X84238152Y-130336666D01*
X84238152Y-130336666D02*
X84333390Y-130384285D01*
X84333390Y-130384285D02*
X84381009Y-130431904D01*
X84381009Y-130431904D02*
X84428628Y-130527142D01*
X84428628Y-130527142D02*
X84428628Y-130908094D01*
X84238152Y-129479523D02*
X84904819Y-129479523D01*
X83857200Y-129717618D02*
X84571485Y-129955713D01*
X84571485Y-129955713D02*
X84571485Y-129336666D01*
X47147200Y-50223332D02*
X47194819Y-50080475D01*
X47194819Y-50080475D02*
X47194819Y-49842380D01*
X47194819Y-49842380D02*
X47147200Y-49747142D01*
X47147200Y-49747142D02*
X47099580Y-49699523D01*
X47099580Y-49699523D02*
X47004342Y-49651904D01*
X47004342Y-49651904D02*
X46909104Y-49651904D01*
X46909104Y-49651904D02*
X46813866Y-49699523D01*
X46813866Y-49699523D02*
X46766247Y-49747142D01*
X46766247Y-49747142D02*
X46718628Y-49842380D01*
X46718628Y-49842380D02*
X46671009Y-50032856D01*
X46671009Y-50032856D02*
X46623390Y-50128094D01*
X46623390Y-50128094D02*
X46575771Y-50175713D01*
X46575771Y-50175713D02*
X46480533Y-50223332D01*
X46480533Y-50223332D02*
X46385295Y-50223332D01*
X46385295Y-50223332D02*
X46290057Y-50175713D01*
X46290057Y-50175713D02*
X46242438Y-50128094D01*
X46242438Y-50128094D02*
X46194819Y-50032856D01*
X46194819Y-50032856D02*
X46194819Y-49794761D01*
X46194819Y-49794761D02*
X46242438Y-49651904D01*
X46194819Y-49318570D02*
X47194819Y-49080475D01*
X47194819Y-49080475D02*
X46480533Y-48889999D01*
X46480533Y-48889999D02*
X47194819Y-48699523D01*
X47194819Y-48699523D02*
X46194819Y-48461428D01*
X47194819Y-47556666D02*
X47194819Y-48128094D01*
X47194819Y-47842380D02*
X46194819Y-47842380D01*
X46194819Y-47842380D02*
X46337676Y-47937618D01*
X46337676Y-47937618D02*
X46432914Y-48032856D01*
X46432914Y-48032856D02*
X46480533Y-48128094D01*
X76347200Y-75623332D02*
X76394819Y-75480475D01*
X76394819Y-75480475D02*
X76394819Y-75242380D01*
X76394819Y-75242380D02*
X76347200Y-75147142D01*
X76347200Y-75147142D02*
X76299580Y-75099523D01*
X76299580Y-75099523D02*
X76204342Y-75051904D01*
X76204342Y-75051904D02*
X76109104Y-75051904D01*
X76109104Y-75051904D02*
X76013866Y-75099523D01*
X76013866Y-75099523D02*
X75966247Y-75147142D01*
X75966247Y-75147142D02*
X75918628Y-75242380D01*
X75918628Y-75242380D02*
X75871009Y-75432856D01*
X75871009Y-75432856D02*
X75823390Y-75528094D01*
X75823390Y-75528094D02*
X75775771Y-75575713D01*
X75775771Y-75575713D02*
X75680533Y-75623332D01*
X75680533Y-75623332D02*
X75585295Y-75623332D01*
X75585295Y-75623332D02*
X75490057Y-75575713D01*
X75490057Y-75575713D02*
X75442438Y-75528094D01*
X75442438Y-75528094D02*
X75394819Y-75432856D01*
X75394819Y-75432856D02*
X75394819Y-75194761D01*
X75394819Y-75194761D02*
X75442438Y-75051904D01*
X75394819Y-74718570D02*
X76394819Y-74480475D01*
X76394819Y-74480475D02*
X75680533Y-74289999D01*
X75680533Y-74289999D02*
X76394819Y-74099523D01*
X76394819Y-74099523D02*
X75394819Y-73861428D01*
X75394819Y-73004285D02*
X75394819Y-73480475D01*
X75394819Y-73480475D02*
X75871009Y-73528094D01*
X75871009Y-73528094D02*
X75823390Y-73480475D01*
X75823390Y-73480475D02*
X75775771Y-73385237D01*
X75775771Y-73385237D02*
X75775771Y-73147142D01*
X75775771Y-73147142D02*
X75823390Y-73051904D01*
X75823390Y-73051904D02*
X75871009Y-73004285D01*
X75871009Y-73004285D02*
X75966247Y-72956666D01*
X75966247Y-72956666D02*
X76204342Y-72956666D01*
X76204342Y-72956666D02*
X76299580Y-73004285D01*
X76299580Y-73004285D02*
X76347200Y-73051904D01*
X76347200Y-73051904D02*
X76394819Y-73147142D01*
X76394819Y-73147142D02*
X76394819Y-73385237D01*
X76394819Y-73385237D02*
X76347200Y-73480475D01*
X76347200Y-73480475D02*
X76299580Y-73528094D01*
X105567200Y-50223332D02*
X105614819Y-50080475D01*
X105614819Y-50080475D02*
X105614819Y-49842380D01*
X105614819Y-49842380D02*
X105567200Y-49747142D01*
X105567200Y-49747142D02*
X105519580Y-49699523D01*
X105519580Y-49699523D02*
X105424342Y-49651904D01*
X105424342Y-49651904D02*
X105329104Y-49651904D01*
X105329104Y-49651904D02*
X105233866Y-49699523D01*
X105233866Y-49699523D02*
X105186247Y-49747142D01*
X105186247Y-49747142D02*
X105138628Y-49842380D01*
X105138628Y-49842380D02*
X105091009Y-50032856D01*
X105091009Y-50032856D02*
X105043390Y-50128094D01*
X105043390Y-50128094D02*
X104995771Y-50175713D01*
X104995771Y-50175713D02*
X104900533Y-50223332D01*
X104900533Y-50223332D02*
X104805295Y-50223332D01*
X104805295Y-50223332D02*
X104710057Y-50175713D01*
X104710057Y-50175713D02*
X104662438Y-50128094D01*
X104662438Y-50128094D02*
X104614819Y-50032856D01*
X104614819Y-50032856D02*
X104614819Y-49794761D01*
X104614819Y-49794761D02*
X104662438Y-49651904D01*
X104614819Y-49318570D02*
X105614819Y-49080475D01*
X105614819Y-49080475D02*
X104900533Y-48889999D01*
X104900533Y-48889999D02*
X105614819Y-48699523D01*
X105614819Y-48699523D02*
X104614819Y-48461428D01*
X104614819Y-48175713D02*
X104614819Y-47556666D01*
X104614819Y-47556666D02*
X104995771Y-47889999D01*
X104995771Y-47889999D02*
X104995771Y-47747142D01*
X104995771Y-47747142D02*
X105043390Y-47651904D01*
X105043390Y-47651904D02*
X105091009Y-47604285D01*
X105091009Y-47604285D02*
X105186247Y-47556666D01*
X105186247Y-47556666D02*
X105424342Y-47556666D01*
X105424342Y-47556666D02*
X105519580Y-47604285D01*
X105519580Y-47604285D02*
X105567200Y-47651904D01*
X105567200Y-47651904D02*
X105614819Y-47747142D01*
X105614819Y-47747142D02*
X105614819Y-48032856D01*
X105614819Y-48032856D02*
X105567200Y-48128094D01*
X105567200Y-48128094D02*
X105519580Y-48175713D01*
X100144819Y-130336666D02*
X99668628Y-130669999D01*
X100144819Y-130908094D02*
X99144819Y-130908094D01*
X99144819Y-130908094D02*
X99144819Y-130527142D01*
X99144819Y-130527142D02*
X99192438Y-130431904D01*
X99192438Y-130431904D02*
X99240057Y-130384285D01*
X99240057Y-130384285D02*
X99335295Y-130336666D01*
X99335295Y-130336666D02*
X99478152Y-130336666D01*
X99478152Y-130336666D02*
X99573390Y-130384285D01*
X99573390Y-130384285D02*
X99621009Y-130431904D01*
X99621009Y-130431904D02*
X99668628Y-130527142D01*
X99668628Y-130527142D02*
X99668628Y-130908094D01*
X99573390Y-129765237D02*
X99525771Y-129860475D01*
X99525771Y-129860475D02*
X99478152Y-129908094D01*
X99478152Y-129908094D02*
X99382914Y-129955713D01*
X99382914Y-129955713D02*
X99335295Y-129955713D01*
X99335295Y-129955713D02*
X99240057Y-129908094D01*
X99240057Y-129908094D02*
X99192438Y-129860475D01*
X99192438Y-129860475D02*
X99144819Y-129765237D01*
X99144819Y-129765237D02*
X99144819Y-129574761D01*
X99144819Y-129574761D02*
X99192438Y-129479523D01*
X99192438Y-129479523D02*
X99240057Y-129431904D01*
X99240057Y-129431904D02*
X99335295Y-129384285D01*
X99335295Y-129384285D02*
X99382914Y-129384285D01*
X99382914Y-129384285D02*
X99478152Y-129431904D01*
X99478152Y-129431904D02*
X99525771Y-129479523D01*
X99525771Y-129479523D02*
X99573390Y-129574761D01*
X99573390Y-129574761D02*
X99573390Y-129765237D01*
X99573390Y-129765237D02*
X99621009Y-129860475D01*
X99621009Y-129860475D02*
X99668628Y-129908094D01*
X99668628Y-129908094D02*
X99763866Y-129955713D01*
X99763866Y-129955713D02*
X99954342Y-129955713D01*
X99954342Y-129955713D02*
X100049580Y-129908094D01*
X100049580Y-129908094D02*
X100097200Y-129860475D01*
X100097200Y-129860475D02*
X100144819Y-129765237D01*
X100144819Y-129765237D02*
X100144819Y-129574761D01*
X100144819Y-129574761D02*
X100097200Y-129479523D01*
X100097200Y-129479523D02*
X100049580Y-129431904D01*
X100049580Y-129431904D02*
X99954342Y-129384285D01*
X99954342Y-129384285D02*
X99763866Y-129384285D01*
X99763866Y-129384285D02*
X99668628Y-129431904D01*
X99668628Y-129431904D02*
X99621009Y-129479523D01*
X99621009Y-129479523D02*
X99573390Y-129574761D01*
X115654819Y-102991904D02*
X116464342Y-102991904D01*
X116464342Y-102991904D02*
X116559580Y-102944285D01*
X116559580Y-102944285D02*
X116607200Y-102896666D01*
X116607200Y-102896666D02*
X116654819Y-102801428D01*
X116654819Y-102801428D02*
X116654819Y-102610952D01*
X116654819Y-102610952D02*
X116607200Y-102515714D01*
X116607200Y-102515714D02*
X116559580Y-102468095D01*
X116559580Y-102468095D02*
X116464342Y-102420476D01*
X116464342Y-102420476D02*
X115654819Y-102420476D01*
X116654819Y-101420476D02*
X116654819Y-101991904D01*
X116654819Y-101706190D02*
X115654819Y-101706190D01*
X115654819Y-101706190D02*
X115797676Y-101801428D01*
X115797676Y-101801428D02*
X115892914Y-101896666D01*
X115892914Y-101896666D02*
X115940533Y-101991904D01*
X118194819Y-105491904D02*
X118194819Y-104825238D01*
X118194819Y-104825238D02*
X119194819Y-105253809D01*
X118528152Y-104015714D02*
X119194819Y-104015714D01*
X118147200Y-104253809D02*
X118861485Y-104491904D01*
X118861485Y-104491904D02*
X118861485Y-103872857D01*
X119194819Y-103491904D02*
X118194819Y-103491904D01*
X118671009Y-103491904D02*
X118671009Y-102920476D01*
X119194819Y-102920476D02*
X118194819Y-102920476D01*
X119099580Y-101872857D02*
X119147200Y-101920476D01*
X119147200Y-101920476D02*
X119194819Y-102063333D01*
X119194819Y-102063333D02*
X119194819Y-102158571D01*
X119194819Y-102158571D02*
X119147200Y-102301428D01*
X119147200Y-102301428D02*
X119051961Y-102396666D01*
X119051961Y-102396666D02*
X118956723Y-102444285D01*
X118956723Y-102444285D02*
X118766247Y-102491904D01*
X118766247Y-102491904D02*
X118623390Y-102491904D01*
X118623390Y-102491904D02*
X118432914Y-102444285D01*
X118432914Y-102444285D02*
X118337676Y-102396666D01*
X118337676Y-102396666D02*
X118242438Y-102301428D01*
X118242438Y-102301428D02*
X118194819Y-102158571D01*
X118194819Y-102158571D02*
X118194819Y-102063333D01*
X118194819Y-102063333D02*
X118242438Y-101920476D01*
X118242438Y-101920476D02*
X118290057Y-101872857D01*
X119194819Y-100920476D02*
X119194819Y-101491904D01*
X119194819Y-101206190D02*
X118194819Y-101206190D01*
X118194819Y-101206190D02*
X118337676Y-101301428D01*
X118337676Y-101301428D02*
X118432914Y-101396666D01*
X118432914Y-101396666D02*
X118480533Y-101491904D01*
X118194819Y-100587142D02*
X118194819Y-99968095D01*
X118194819Y-99968095D02*
X118575771Y-100301428D01*
X118575771Y-100301428D02*
X118575771Y-100158571D01*
X118575771Y-100158571D02*
X118623390Y-100063333D01*
X118623390Y-100063333D02*
X118671009Y-100015714D01*
X118671009Y-100015714D02*
X118766247Y-99968095D01*
X118766247Y-99968095D02*
X119004342Y-99968095D01*
X119004342Y-99968095D02*
X119099580Y-100015714D01*
X119099580Y-100015714D02*
X119147200Y-100063333D01*
X119147200Y-100063333D02*
X119194819Y-100158571D01*
X119194819Y-100158571D02*
X119194819Y-100444285D01*
X119194819Y-100444285D02*
X119147200Y-100539523D01*
X119147200Y-100539523D02*
X119099580Y-100587142D01*
X118623390Y-99396666D02*
X118575771Y-99491904D01*
X118575771Y-99491904D02*
X118528152Y-99539523D01*
X118528152Y-99539523D02*
X118432914Y-99587142D01*
X118432914Y-99587142D02*
X118385295Y-99587142D01*
X118385295Y-99587142D02*
X118290057Y-99539523D01*
X118290057Y-99539523D02*
X118242438Y-99491904D01*
X118242438Y-99491904D02*
X118194819Y-99396666D01*
X118194819Y-99396666D02*
X118194819Y-99206190D01*
X118194819Y-99206190D02*
X118242438Y-99110952D01*
X118242438Y-99110952D02*
X118290057Y-99063333D01*
X118290057Y-99063333D02*
X118385295Y-99015714D01*
X118385295Y-99015714D02*
X118432914Y-99015714D01*
X118432914Y-99015714D02*
X118528152Y-99063333D01*
X118528152Y-99063333D02*
X118575771Y-99110952D01*
X118575771Y-99110952D02*
X118623390Y-99206190D01*
X118623390Y-99206190D02*
X118623390Y-99396666D01*
X118623390Y-99396666D02*
X118671009Y-99491904D01*
X118671009Y-99491904D02*
X118718628Y-99539523D01*
X118718628Y-99539523D02*
X118813866Y-99587142D01*
X118813866Y-99587142D02*
X119004342Y-99587142D01*
X119004342Y-99587142D02*
X119099580Y-99539523D01*
X119099580Y-99539523D02*
X119147200Y-99491904D01*
X119147200Y-99491904D02*
X119194819Y-99396666D01*
X119194819Y-99396666D02*
X119194819Y-99206190D01*
X119194819Y-99206190D02*
X119147200Y-99110952D01*
X119147200Y-99110952D02*
X119099580Y-99063333D01*
X119099580Y-99063333D02*
X119004342Y-99015714D01*
X119004342Y-99015714D02*
X118813866Y-99015714D01*
X118813866Y-99015714D02*
X118718628Y-99063333D01*
X118718628Y-99063333D02*
X118671009Y-99110952D01*
X118671009Y-99110952D02*
X118623390Y-99206190D01*
X112390000Y-91524819D02*
X112390000Y-91762914D01*
X112151905Y-91667676D02*
X112390000Y-91762914D01*
X112390000Y-91762914D02*
X112628095Y-91667676D01*
X112247143Y-91953390D02*
X112390000Y-91762914D01*
X112390000Y-91762914D02*
X112532857Y-91953390D01*
X96334819Y-130336666D02*
X95858628Y-130669999D01*
X96334819Y-130908094D02*
X95334819Y-130908094D01*
X95334819Y-130908094D02*
X95334819Y-130527142D01*
X95334819Y-130527142D02*
X95382438Y-130431904D01*
X95382438Y-130431904D02*
X95430057Y-130384285D01*
X95430057Y-130384285D02*
X95525295Y-130336666D01*
X95525295Y-130336666D02*
X95668152Y-130336666D01*
X95668152Y-130336666D02*
X95763390Y-130384285D01*
X95763390Y-130384285D02*
X95811009Y-130431904D01*
X95811009Y-130431904D02*
X95858628Y-130527142D01*
X95858628Y-130527142D02*
X95858628Y-130908094D01*
X95334819Y-130003332D02*
X95334819Y-129336666D01*
X95334819Y-129336666D02*
X96334819Y-129765237D01*
X63314819Y-133718333D02*
X64029104Y-133718333D01*
X64029104Y-133718333D02*
X64171961Y-133765952D01*
X64171961Y-133765952D02*
X64267200Y-133861190D01*
X64267200Y-133861190D02*
X64314819Y-134004047D01*
X64314819Y-134004047D02*
X64314819Y-134099285D01*
X64314819Y-132718333D02*
X64314819Y-133289761D01*
X64314819Y-133004047D02*
X63314819Y-133004047D01*
X63314819Y-133004047D02*
X63457676Y-133099285D01*
X63457676Y-133099285D02*
X63552914Y-133194523D01*
X63552914Y-133194523D02*
X63600533Y-133289761D01*
X105557200Y-75623332D02*
X105604819Y-75480475D01*
X105604819Y-75480475D02*
X105604819Y-75242380D01*
X105604819Y-75242380D02*
X105557200Y-75147142D01*
X105557200Y-75147142D02*
X105509580Y-75099523D01*
X105509580Y-75099523D02*
X105414342Y-75051904D01*
X105414342Y-75051904D02*
X105319104Y-75051904D01*
X105319104Y-75051904D02*
X105223866Y-75099523D01*
X105223866Y-75099523D02*
X105176247Y-75147142D01*
X105176247Y-75147142D02*
X105128628Y-75242380D01*
X105128628Y-75242380D02*
X105081009Y-75432856D01*
X105081009Y-75432856D02*
X105033390Y-75528094D01*
X105033390Y-75528094D02*
X104985771Y-75575713D01*
X104985771Y-75575713D02*
X104890533Y-75623332D01*
X104890533Y-75623332D02*
X104795295Y-75623332D01*
X104795295Y-75623332D02*
X104700057Y-75575713D01*
X104700057Y-75575713D02*
X104652438Y-75528094D01*
X104652438Y-75528094D02*
X104604819Y-75432856D01*
X104604819Y-75432856D02*
X104604819Y-75194761D01*
X104604819Y-75194761D02*
X104652438Y-75051904D01*
X104604819Y-74718570D02*
X105604819Y-74480475D01*
X105604819Y-74480475D02*
X104890533Y-74289999D01*
X104890533Y-74289999D02*
X105604819Y-74099523D01*
X105604819Y-74099523D02*
X104604819Y-73861428D01*
X104604819Y-73051904D02*
X104604819Y-73242380D01*
X104604819Y-73242380D02*
X104652438Y-73337618D01*
X104652438Y-73337618D02*
X104700057Y-73385237D01*
X104700057Y-73385237D02*
X104842914Y-73480475D01*
X104842914Y-73480475D02*
X105033390Y-73528094D01*
X105033390Y-73528094D02*
X105414342Y-73528094D01*
X105414342Y-73528094D02*
X105509580Y-73480475D01*
X105509580Y-73480475D02*
X105557200Y-73432856D01*
X105557200Y-73432856D02*
X105604819Y-73337618D01*
X105604819Y-73337618D02*
X105604819Y-73147142D01*
X105604819Y-73147142D02*
X105557200Y-73051904D01*
X105557200Y-73051904D02*
X105509580Y-73004285D01*
X105509580Y-73004285D02*
X105414342Y-72956666D01*
X105414342Y-72956666D02*
X105176247Y-72956666D01*
X105176247Y-72956666D02*
X105081009Y-73004285D01*
X105081009Y-73004285D02*
X105033390Y-73051904D01*
X105033390Y-73051904D02*
X104985771Y-73147142D01*
X104985771Y-73147142D02*
X104985771Y-73337618D01*
X104985771Y-73337618D02*
X105033390Y-73432856D01*
X105033390Y-73432856D02*
X105081009Y-73480475D01*
X105081009Y-73480475D02*
X105176247Y-73528094D01*
X74917142Y-111154819D02*
X74440952Y-111154819D01*
X74440952Y-111154819D02*
X74440952Y-110154819D01*
X75250476Y-110631009D02*
X75583809Y-110631009D01*
X75726666Y-111154819D02*
X75250476Y-111154819D01*
X75250476Y-111154819D02*
X75250476Y-110154819D01*
X75250476Y-110154819D02*
X75726666Y-110154819D01*
X76155238Y-111154819D02*
X76155238Y-110154819D01*
X76155238Y-110154819D02*
X76393333Y-110154819D01*
X76393333Y-110154819D02*
X76536190Y-110202438D01*
X76536190Y-110202438D02*
X76631428Y-110297676D01*
X76631428Y-110297676D02*
X76679047Y-110392914D01*
X76679047Y-110392914D02*
X76726666Y-110583390D01*
X76726666Y-110583390D02*
X76726666Y-110726247D01*
X76726666Y-110726247D02*
X76679047Y-110916723D01*
X76679047Y-110916723D02*
X76631428Y-111011961D01*
X76631428Y-111011961D02*
X76536190Y-111107200D01*
X76536190Y-111107200D02*
X76393333Y-111154819D01*
X76393333Y-111154819D02*
X76155238Y-111154819D01*
X45707142Y-111154819D02*
X45230952Y-111154819D01*
X45230952Y-111154819D02*
X45230952Y-110154819D01*
X46040476Y-110631009D02*
X46373809Y-110631009D01*
X46516666Y-111154819D02*
X46040476Y-111154819D01*
X46040476Y-111154819D02*
X46040476Y-110154819D01*
X46040476Y-110154819D02*
X46516666Y-110154819D01*
X46945238Y-111154819D02*
X46945238Y-110154819D01*
X46945238Y-110154819D02*
X47183333Y-110154819D01*
X47183333Y-110154819D02*
X47326190Y-110202438D01*
X47326190Y-110202438D02*
X47421428Y-110297676D01*
X47421428Y-110297676D02*
X47469047Y-110392914D01*
X47469047Y-110392914D02*
X47516666Y-110583390D01*
X47516666Y-110583390D02*
X47516666Y-110726247D01*
X47516666Y-110726247D02*
X47469047Y-110916723D01*
X47469047Y-110916723D02*
X47421428Y-111011961D01*
X47421428Y-111011961D02*
X47326190Y-111107200D01*
X47326190Y-111107200D02*
X47183333Y-111154819D01*
X47183333Y-111154819D02*
X46945238Y-111154819D01*
X45707142Y-60354819D02*
X45230952Y-60354819D01*
X45230952Y-60354819D02*
X45230952Y-59354819D01*
X46040476Y-59831009D02*
X46373809Y-59831009D01*
X46516666Y-60354819D02*
X46040476Y-60354819D01*
X46040476Y-60354819D02*
X46040476Y-59354819D01*
X46040476Y-59354819D02*
X46516666Y-59354819D01*
X46945238Y-60354819D02*
X46945238Y-59354819D01*
X46945238Y-59354819D02*
X47183333Y-59354819D01*
X47183333Y-59354819D02*
X47326190Y-59402438D01*
X47326190Y-59402438D02*
X47421428Y-59497676D01*
X47421428Y-59497676D02*
X47469047Y-59592914D01*
X47469047Y-59592914D02*
X47516666Y-59783390D01*
X47516666Y-59783390D02*
X47516666Y-59926247D01*
X47516666Y-59926247D02*
X47469047Y-60116723D01*
X47469047Y-60116723D02*
X47421428Y-60211961D01*
X47421428Y-60211961D02*
X47326190Y-60307200D01*
X47326190Y-60307200D02*
X47183333Y-60354819D01*
X47183333Y-60354819D02*
X46945238Y-60354819D01*
X76347200Y-50223332D02*
X76394819Y-50080475D01*
X76394819Y-50080475D02*
X76394819Y-49842380D01*
X76394819Y-49842380D02*
X76347200Y-49747142D01*
X76347200Y-49747142D02*
X76299580Y-49699523D01*
X76299580Y-49699523D02*
X76204342Y-49651904D01*
X76204342Y-49651904D02*
X76109104Y-49651904D01*
X76109104Y-49651904D02*
X76013866Y-49699523D01*
X76013866Y-49699523D02*
X75966247Y-49747142D01*
X75966247Y-49747142D02*
X75918628Y-49842380D01*
X75918628Y-49842380D02*
X75871009Y-50032856D01*
X75871009Y-50032856D02*
X75823390Y-50128094D01*
X75823390Y-50128094D02*
X75775771Y-50175713D01*
X75775771Y-50175713D02*
X75680533Y-50223332D01*
X75680533Y-50223332D02*
X75585295Y-50223332D01*
X75585295Y-50223332D02*
X75490057Y-50175713D01*
X75490057Y-50175713D02*
X75442438Y-50128094D01*
X75442438Y-50128094D02*
X75394819Y-50032856D01*
X75394819Y-50032856D02*
X75394819Y-49794761D01*
X75394819Y-49794761D02*
X75442438Y-49651904D01*
X75394819Y-49318570D02*
X76394819Y-49080475D01*
X76394819Y-49080475D02*
X75680533Y-48889999D01*
X75680533Y-48889999D02*
X76394819Y-48699523D01*
X76394819Y-48699523D02*
X75394819Y-48461428D01*
X75490057Y-48128094D02*
X75442438Y-48080475D01*
X75442438Y-48080475D02*
X75394819Y-47985237D01*
X75394819Y-47985237D02*
X75394819Y-47747142D01*
X75394819Y-47747142D02*
X75442438Y-47651904D01*
X75442438Y-47651904D02*
X75490057Y-47604285D01*
X75490057Y-47604285D02*
X75585295Y-47556666D01*
X75585295Y-47556666D02*
X75680533Y-47556666D01*
X75680533Y-47556666D02*
X75823390Y-47604285D01*
X75823390Y-47604285D02*
X76394819Y-48175713D01*
X76394819Y-48175713D02*
X76394819Y-47556666D01*
X104127142Y-60354819D02*
X103650952Y-60354819D01*
X103650952Y-60354819D02*
X103650952Y-59354819D01*
X104460476Y-59831009D02*
X104793809Y-59831009D01*
X104936666Y-60354819D02*
X104460476Y-60354819D01*
X104460476Y-60354819D02*
X104460476Y-59354819D01*
X104460476Y-59354819D02*
X104936666Y-59354819D01*
X105365238Y-60354819D02*
X105365238Y-59354819D01*
X105365238Y-59354819D02*
X105603333Y-59354819D01*
X105603333Y-59354819D02*
X105746190Y-59402438D01*
X105746190Y-59402438D02*
X105841428Y-59497676D01*
X105841428Y-59497676D02*
X105889047Y-59592914D01*
X105889047Y-59592914D02*
X105936666Y-59783390D01*
X105936666Y-59783390D02*
X105936666Y-59926247D01*
X105936666Y-59926247D02*
X105889047Y-60116723D01*
X105889047Y-60116723D02*
X105841428Y-60211961D01*
X105841428Y-60211961D02*
X105746190Y-60307200D01*
X105746190Y-60307200D02*
X105603333Y-60354819D01*
X105603333Y-60354819D02*
X105365238Y-60354819D01*
X124328095Y-116924819D02*
X124328095Y-117734342D01*
X124328095Y-117734342D02*
X124375714Y-117829580D01*
X124375714Y-117829580D02*
X124423333Y-117877200D01*
X124423333Y-117877200D02*
X124518571Y-117924819D01*
X124518571Y-117924819D02*
X124709047Y-117924819D01*
X124709047Y-117924819D02*
X124804285Y-117877200D01*
X124804285Y-117877200D02*
X124851904Y-117829580D01*
X124851904Y-117829580D02*
X124899523Y-117734342D01*
X124899523Y-117734342D02*
X124899523Y-116924819D01*
X125328095Y-117020057D02*
X125375714Y-116972438D01*
X125375714Y-116972438D02*
X125470952Y-116924819D01*
X125470952Y-116924819D02*
X125709047Y-116924819D01*
X125709047Y-116924819D02*
X125804285Y-116972438D01*
X125804285Y-116972438D02*
X125851904Y-117020057D01*
X125851904Y-117020057D02*
X125899523Y-117115295D01*
X125899523Y-117115295D02*
X125899523Y-117210533D01*
X125899523Y-117210533D02*
X125851904Y-117353390D01*
X125851904Y-117353390D02*
X125280476Y-117924819D01*
X125280476Y-117924819D02*
X125899523Y-117924819D01*
X121828095Y-119464819D02*
X122494761Y-119464819D01*
X122494761Y-119464819D02*
X122066190Y-120464819D01*
X123304285Y-119798152D02*
X123304285Y-120464819D01*
X123066190Y-119417200D02*
X122828095Y-120131485D01*
X122828095Y-120131485D02*
X123447142Y-120131485D01*
X123828095Y-120464819D02*
X123828095Y-119464819D01*
X123828095Y-119941009D02*
X124399523Y-119941009D01*
X124399523Y-120464819D02*
X124399523Y-119464819D01*
X125447142Y-120369580D02*
X125399523Y-120417200D01*
X125399523Y-120417200D02*
X125256666Y-120464819D01*
X125256666Y-120464819D02*
X125161428Y-120464819D01*
X125161428Y-120464819D02*
X125018571Y-120417200D01*
X125018571Y-120417200D02*
X124923333Y-120321961D01*
X124923333Y-120321961D02*
X124875714Y-120226723D01*
X124875714Y-120226723D02*
X124828095Y-120036247D01*
X124828095Y-120036247D02*
X124828095Y-119893390D01*
X124828095Y-119893390D02*
X124875714Y-119702914D01*
X124875714Y-119702914D02*
X124923333Y-119607676D01*
X124923333Y-119607676D02*
X125018571Y-119512438D01*
X125018571Y-119512438D02*
X125161428Y-119464819D01*
X125161428Y-119464819D02*
X125256666Y-119464819D01*
X125256666Y-119464819D02*
X125399523Y-119512438D01*
X125399523Y-119512438D02*
X125447142Y-119560057D01*
X126351904Y-119464819D02*
X125875714Y-119464819D01*
X125875714Y-119464819D02*
X125828095Y-119941009D01*
X125828095Y-119941009D02*
X125875714Y-119893390D01*
X125875714Y-119893390D02*
X125970952Y-119845771D01*
X125970952Y-119845771D02*
X126209047Y-119845771D01*
X126209047Y-119845771D02*
X126304285Y-119893390D01*
X126304285Y-119893390D02*
X126351904Y-119941009D01*
X126351904Y-119941009D02*
X126399523Y-120036247D01*
X126399523Y-120036247D02*
X126399523Y-120274342D01*
X126399523Y-120274342D02*
X126351904Y-120369580D01*
X126351904Y-120369580D02*
X126304285Y-120417200D01*
X126304285Y-120417200D02*
X126209047Y-120464819D01*
X126209047Y-120464819D02*
X125970952Y-120464819D01*
X125970952Y-120464819D02*
X125875714Y-120417200D01*
X125875714Y-120417200D02*
X125828095Y-120369580D01*
X127256666Y-119798152D02*
X127256666Y-120464819D01*
X127018571Y-119417200D02*
X126780476Y-120131485D01*
X126780476Y-120131485D02*
X127399523Y-120131485D01*
X127970952Y-119464819D02*
X128066190Y-119464819D01*
X128066190Y-119464819D02*
X128161428Y-119512438D01*
X128161428Y-119512438D02*
X128209047Y-119560057D01*
X128209047Y-119560057D02*
X128256666Y-119655295D01*
X128256666Y-119655295D02*
X128304285Y-119845771D01*
X128304285Y-119845771D02*
X128304285Y-120083866D01*
X128304285Y-120083866D02*
X128256666Y-120274342D01*
X128256666Y-120274342D02*
X128209047Y-120369580D01*
X128209047Y-120369580D02*
X128161428Y-120417200D01*
X128161428Y-120417200D02*
X128066190Y-120464819D01*
X128066190Y-120464819D02*
X127970952Y-120464819D01*
X127970952Y-120464819D02*
X127875714Y-120417200D01*
X127875714Y-120417200D02*
X127828095Y-120369580D01*
X127828095Y-120369580D02*
X127780476Y-120274342D01*
X127780476Y-120274342D02*
X127732857Y-120083866D01*
X127732857Y-120083866D02*
X127732857Y-119845771D01*
X127732857Y-119845771D02*
X127780476Y-119655295D01*
X127780476Y-119655295D02*
X127828095Y-119560057D01*
X127828095Y-119560057D02*
X127875714Y-119512438D01*
X127875714Y-119512438D02*
X127970952Y-119464819D01*
X137371819Y-114929999D02*
X137609914Y-114929999D01*
X137514676Y-115168094D02*
X137609914Y-114929999D01*
X137609914Y-114929999D02*
X137514676Y-114691904D01*
X137800390Y-115072856D02*
X137609914Y-114929999D01*
X137609914Y-114929999D02*
X137800390Y-114787142D01*
X138462180Y-114930000D02*
X138224085Y-114930000D01*
X138319323Y-114691905D02*
X138224085Y-114930000D01*
X138224085Y-114930000D02*
X138319323Y-115168095D01*
X138033609Y-114787143D02*
X138224085Y-114930000D01*
X138224085Y-114930000D02*
X138033609Y-115072857D01*
X81094819Y-130336666D02*
X80618628Y-130669999D01*
X81094819Y-130908094D02*
X80094819Y-130908094D01*
X80094819Y-130908094D02*
X80094819Y-130527142D01*
X80094819Y-130527142D02*
X80142438Y-130431904D01*
X80142438Y-130431904D02*
X80190057Y-130384285D01*
X80190057Y-130384285D02*
X80285295Y-130336666D01*
X80285295Y-130336666D02*
X80428152Y-130336666D01*
X80428152Y-130336666D02*
X80523390Y-130384285D01*
X80523390Y-130384285D02*
X80571009Y-130431904D01*
X80571009Y-130431904D02*
X80618628Y-130527142D01*
X80618628Y-130527142D02*
X80618628Y-130908094D01*
X80094819Y-130003332D02*
X80094819Y-129384285D01*
X80094819Y-129384285D02*
X80475771Y-129717618D01*
X80475771Y-129717618D02*
X80475771Y-129574761D01*
X80475771Y-129574761D02*
X80523390Y-129479523D01*
X80523390Y-129479523D02*
X80571009Y-129431904D01*
X80571009Y-129431904D02*
X80666247Y-129384285D01*
X80666247Y-129384285D02*
X80904342Y-129384285D01*
X80904342Y-129384285D02*
X80999580Y-129431904D01*
X80999580Y-129431904D02*
X81047200Y-129479523D01*
X81047200Y-129479523D02*
X81094819Y-129574761D01*
X81094819Y-129574761D02*
X81094819Y-129860475D01*
X81094819Y-129860475D02*
X81047200Y-129955713D01*
X81047200Y-129955713D02*
X80999580Y-130003332D01*
X76357200Y-101023332D02*
X76404819Y-100880475D01*
X76404819Y-100880475D02*
X76404819Y-100642380D01*
X76404819Y-100642380D02*
X76357200Y-100547142D01*
X76357200Y-100547142D02*
X76309580Y-100499523D01*
X76309580Y-100499523D02*
X76214342Y-100451904D01*
X76214342Y-100451904D02*
X76119104Y-100451904D01*
X76119104Y-100451904D02*
X76023866Y-100499523D01*
X76023866Y-100499523D02*
X75976247Y-100547142D01*
X75976247Y-100547142D02*
X75928628Y-100642380D01*
X75928628Y-100642380D02*
X75881009Y-100832856D01*
X75881009Y-100832856D02*
X75833390Y-100928094D01*
X75833390Y-100928094D02*
X75785771Y-100975713D01*
X75785771Y-100975713D02*
X75690533Y-101023332D01*
X75690533Y-101023332D02*
X75595295Y-101023332D01*
X75595295Y-101023332D02*
X75500057Y-100975713D01*
X75500057Y-100975713D02*
X75452438Y-100928094D01*
X75452438Y-100928094D02*
X75404819Y-100832856D01*
X75404819Y-100832856D02*
X75404819Y-100594761D01*
X75404819Y-100594761D02*
X75452438Y-100451904D01*
X75404819Y-100118570D02*
X76404819Y-99880475D01*
X76404819Y-99880475D02*
X75690533Y-99689999D01*
X75690533Y-99689999D02*
X76404819Y-99499523D01*
X76404819Y-99499523D02*
X75404819Y-99261428D01*
X75833390Y-98737618D02*
X75785771Y-98832856D01*
X75785771Y-98832856D02*
X75738152Y-98880475D01*
X75738152Y-98880475D02*
X75642914Y-98928094D01*
X75642914Y-98928094D02*
X75595295Y-98928094D01*
X75595295Y-98928094D02*
X75500057Y-98880475D01*
X75500057Y-98880475D02*
X75452438Y-98832856D01*
X75452438Y-98832856D02*
X75404819Y-98737618D01*
X75404819Y-98737618D02*
X75404819Y-98547142D01*
X75404819Y-98547142D02*
X75452438Y-98451904D01*
X75452438Y-98451904D02*
X75500057Y-98404285D01*
X75500057Y-98404285D02*
X75595295Y-98356666D01*
X75595295Y-98356666D02*
X75642914Y-98356666D01*
X75642914Y-98356666D02*
X75738152Y-98404285D01*
X75738152Y-98404285D02*
X75785771Y-98451904D01*
X75785771Y-98451904D02*
X75833390Y-98547142D01*
X75833390Y-98547142D02*
X75833390Y-98737618D01*
X75833390Y-98737618D02*
X75881009Y-98832856D01*
X75881009Y-98832856D02*
X75928628Y-98880475D01*
X75928628Y-98880475D02*
X76023866Y-98928094D01*
X76023866Y-98928094D02*
X76214342Y-98928094D01*
X76214342Y-98928094D02*
X76309580Y-98880475D01*
X76309580Y-98880475D02*
X76357200Y-98832856D01*
X76357200Y-98832856D02*
X76404819Y-98737618D01*
X76404819Y-98737618D02*
X76404819Y-98547142D01*
X76404819Y-98547142D02*
X76357200Y-98451904D01*
X76357200Y-98451904D02*
X76309580Y-98404285D01*
X76309580Y-98404285D02*
X76214342Y-98356666D01*
X76214342Y-98356666D02*
X76023866Y-98356666D01*
X76023866Y-98356666D02*
X75928628Y-98404285D01*
X75928628Y-98404285D02*
X75881009Y-98451904D01*
X75881009Y-98451904D02*
X75833390Y-98547142D01*
X47137200Y-100980832D02*
X47184819Y-100837975D01*
X47184819Y-100837975D02*
X47184819Y-100599880D01*
X47184819Y-100599880D02*
X47137200Y-100504642D01*
X47137200Y-100504642D02*
X47089580Y-100457023D01*
X47089580Y-100457023D02*
X46994342Y-100409404D01*
X46994342Y-100409404D02*
X46899104Y-100409404D01*
X46899104Y-100409404D02*
X46803866Y-100457023D01*
X46803866Y-100457023D02*
X46756247Y-100504642D01*
X46756247Y-100504642D02*
X46708628Y-100599880D01*
X46708628Y-100599880D02*
X46661009Y-100790356D01*
X46661009Y-100790356D02*
X46613390Y-100885594D01*
X46613390Y-100885594D02*
X46565771Y-100933213D01*
X46565771Y-100933213D02*
X46470533Y-100980832D01*
X46470533Y-100980832D02*
X46375295Y-100980832D01*
X46375295Y-100980832D02*
X46280057Y-100933213D01*
X46280057Y-100933213D02*
X46232438Y-100885594D01*
X46232438Y-100885594D02*
X46184819Y-100790356D01*
X46184819Y-100790356D02*
X46184819Y-100552261D01*
X46184819Y-100552261D02*
X46232438Y-100409404D01*
X46184819Y-100076070D02*
X47184819Y-99837975D01*
X47184819Y-99837975D02*
X46470533Y-99647499D01*
X46470533Y-99647499D02*
X47184819Y-99457023D01*
X47184819Y-99457023D02*
X46184819Y-99218928D01*
X46184819Y-98933213D02*
X46184819Y-98266547D01*
X46184819Y-98266547D02*
X47184819Y-98695118D01*
X92524819Y-130336666D02*
X92048628Y-130669999D01*
X92524819Y-130908094D02*
X91524819Y-130908094D01*
X91524819Y-130908094D02*
X91524819Y-130527142D01*
X91524819Y-130527142D02*
X91572438Y-130431904D01*
X91572438Y-130431904D02*
X91620057Y-130384285D01*
X91620057Y-130384285D02*
X91715295Y-130336666D01*
X91715295Y-130336666D02*
X91858152Y-130336666D01*
X91858152Y-130336666D02*
X91953390Y-130384285D01*
X91953390Y-130384285D02*
X92001009Y-130431904D01*
X92001009Y-130431904D02*
X92048628Y-130527142D01*
X92048628Y-130527142D02*
X92048628Y-130908094D01*
X91524819Y-129479523D02*
X91524819Y-129669999D01*
X91524819Y-129669999D02*
X91572438Y-129765237D01*
X91572438Y-129765237D02*
X91620057Y-129812856D01*
X91620057Y-129812856D02*
X91762914Y-129908094D01*
X91762914Y-129908094D02*
X91953390Y-129955713D01*
X91953390Y-129955713D02*
X92334342Y-129955713D01*
X92334342Y-129955713D02*
X92429580Y-129908094D01*
X92429580Y-129908094D02*
X92477200Y-129860475D01*
X92477200Y-129860475D02*
X92524819Y-129765237D01*
X92524819Y-129765237D02*
X92524819Y-129574761D01*
X92524819Y-129574761D02*
X92477200Y-129479523D01*
X92477200Y-129479523D02*
X92429580Y-129431904D01*
X92429580Y-129431904D02*
X92334342Y-129384285D01*
X92334342Y-129384285D02*
X92096247Y-129384285D01*
X92096247Y-129384285D02*
X92001009Y-129431904D01*
X92001009Y-129431904D02*
X91953390Y-129479523D01*
X91953390Y-129479523D02*
X91905771Y-129574761D01*
X91905771Y-129574761D02*
X91905771Y-129765237D01*
X91905771Y-129765237D02*
X91953390Y-129860475D01*
X91953390Y-129860475D02*
X92001009Y-129908094D01*
X92001009Y-129908094D02*
X92096247Y-129955713D01*
X47147200Y-75580832D02*
X47194819Y-75437975D01*
X47194819Y-75437975D02*
X47194819Y-75199880D01*
X47194819Y-75199880D02*
X47147200Y-75104642D01*
X47147200Y-75104642D02*
X47099580Y-75057023D01*
X47099580Y-75057023D02*
X47004342Y-75009404D01*
X47004342Y-75009404D02*
X46909104Y-75009404D01*
X46909104Y-75009404D02*
X46813866Y-75057023D01*
X46813866Y-75057023D02*
X46766247Y-75104642D01*
X46766247Y-75104642D02*
X46718628Y-75199880D01*
X46718628Y-75199880D02*
X46671009Y-75390356D01*
X46671009Y-75390356D02*
X46623390Y-75485594D01*
X46623390Y-75485594D02*
X46575771Y-75533213D01*
X46575771Y-75533213D02*
X46480533Y-75580832D01*
X46480533Y-75580832D02*
X46385295Y-75580832D01*
X46385295Y-75580832D02*
X46290057Y-75533213D01*
X46290057Y-75533213D02*
X46242438Y-75485594D01*
X46242438Y-75485594D02*
X46194819Y-75390356D01*
X46194819Y-75390356D02*
X46194819Y-75152261D01*
X46194819Y-75152261D02*
X46242438Y-75009404D01*
X46194819Y-74676070D02*
X47194819Y-74437975D01*
X47194819Y-74437975D02*
X46480533Y-74247499D01*
X46480533Y-74247499D02*
X47194819Y-74057023D01*
X47194819Y-74057023D02*
X46194819Y-73818928D01*
X46528152Y-73009404D02*
X47194819Y-73009404D01*
X46147200Y-73247499D02*
X46861485Y-73485594D01*
X46861485Y-73485594D02*
X46861485Y-72866547D01*
X73474819Y-130336666D02*
X72998628Y-130669999D01*
X73474819Y-130908094D02*
X72474819Y-130908094D01*
X72474819Y-130908094D02*
X72474819Y-130527142D01*
X72474819Y-130527142D02*
X72522438Y-130431904D01*
X72522438Y-130431904D02*
X72570057Y-130384285D01*
X72570057Y-130384285D02*
X72665295Y-130336666D01*
X72665295Y-130336666D02*
X72808152Y-130336666D01*
X72808152Y-130336666D02*
X72903390Y-130384285D01*
X72903390Y-130384285D02*
X72951009Y-130431904D01*
X72951009Y-130431904D02*
X72998628Y-130527142D01*
X72998628Y-130527142D02*
X72998628Y-130908094D01*
X73474819Y-129384285D02*
X73474819Y-129955713D01*
X73474819Y-129669999D02*
X72474819Y-129669999D01*
X72474819Y-129669999D02*
X72617676Y-129765237D01*
X72617676Y-129765237D02*
X72712914Y-129860475D01*
X72712914Y-129860475D02*
X72760533Y-129955713D01*
X133164819Y-133718333D02*
X133879104Y-133718333D01*
X133879104Y-133718333D02*
X134021961Y-133765952D01*
X134021961Y-133765952D02*
X134117200Y-133861190D01*
X134117200Y-133861190D02*
X134164819Y-134004047D01*
X134164819Y-134004047D02*
X134164819Y-134099285D01*
X133260057Y-133289761D02*
X133212438Y-133242142D01*
X133212438Y-133242142D02*
X133164819Y-133146904D01*
X133164819Y-133146904D02*
X133164819Y-132908809D01*
X133164819Y-132908809D02*
X133212438Y-132813571D01*
X133212438Y-132813571D02*
X133260057Y-132765952D01*
X133260057Y-132765952D02*
X133355295Y-132718333D01*
X133355295Y-132718333D02*
X133450533Y-132718333D01*
X133450533Y-132718333D02*
X133593390Y-132765952D01*
X133593390Y-132765952D02*
X134164819Y-133337380D01*
X134164819Y-133337380D02*
X134164819Y-132718333D01*
X104127142Y-85754819D02*
X103650952Y-85754819D01*
X103650952Y-85754819D02*
X103650952Y-84754819D01*
X104460476Y-85231009D02*
X104793809Y-85231009D01*
X104936666Y-85754819D02*
X104460476Y-85754819D01*
X104460476Y-85754819D02*
X104460476Y-84754819D01*
X104460476Y-84754819D02*
X104936666Y-84754819D01*
X105365238Y-85754819D02*
X105365238Y-84754819D01*
X105365238Y-84754819D02*
X105603333Y-84754819D01*
X105603333Y-84754819D02*
X105746190Y-84802438D01*
X105746190Y-84802438D02*
X105841428Y-84897676D01*
X105841428Y-84897676D02*
X105889047Y-84992914D01*
X105889047Y-84992914D02*
X105936666Y-85183390D01*
X105936666Y-85183390D02*
X105936666Y-85326247D01*
X105936666Y-85326247D02*
X105889047Y-85516723D01*
X105889047Y-85516723D02*
X105841428Y-85611961D01*
X105841428Y-85611961D02*
X105746190Y-85707200D01*
X105746190Y-85707200D02*
X105603333Y-85754819D01*
X105603333Y-85754819D02*
X105365238Y-85754819D01*
X74917142Y-60354819D02*
X74440952Y-60354819D01*
X74440952Y-60354819D02*
X74440952Y-59354819D01*
X75250476Y-59831009D02*
X75583809Y-59831009D01*
X75726666Y-60354819D02*
X75250476Y-60354819D01*
X75250476Y-60354819D02*
X75250476Y-59354819D01*
X75250476Y-59354819D02*
X75726666Y-59354819D01*
X76155238Y-60354819D02*
X76155238Y-59354819D01*
X76155238Y-59354819D02*
X76393333Y-59354819D01*
X76393333Y-59354819D02*
X76536190Y-59402438D01*
X76536190Y-59402438D02*
X76631428Y-59497676D01*
X76631428Y-59497676D02*
X76679047Y-59592914D01*
X76679047Y-59592914D02*
X76726666Y-59783390D01*
X76726666Y-59783390D02*
X76726666Y-59926247D01*
X76726666Y-59926247D02*
X76679047Y-60116723D01*
X76679047Y-60116723D02*
X76631428Y-60211961D01*
X76631428Y-60211961D02*
X76536190Y-60307200D01*
X76536190Y-60307200D02*
X76393333Y-60354819D01*
X76393333Y-60354819D02*
X76155238Y-60354819D01*
X69664819Y-130336666D02*
X69188628Y-130669999D01*
X69664819Y-130908094D02*
X68664819Y-130908094D01*
X68664819Y-130908094D02*
X68664819Y-130527142D01*
X68664819Y-130527142D02*
X68712438Y-130431904D01*
X68712438Y-130431904D02*
X68760057Y-130384285D01*
X68760057Y-130384285D02*
X68855295Y-130336666D01*
X68855295Y-130336666D02*
X68998152Y-130336666D01*
X68998152Y-130336666D02*
X69093390Y-130384285D01*
X69093390Y-130384285D02*
X69141009Y-130431904D01*
X69141009Y-130431904D02*
X69188628Y-130527142D01*
X69188628Y-130527142D02*
X69188628Y-130908094D01*
X69664819Y-129860475D02*
X69664819Y-129669999D01*
X69664819Y-129669999D02*
X69617200Y-129574761D01*
X69617200Y-129574761D02*
X69569580Y-129527142D01*
X69569580Y-129527142D02*
X69426723Y-129431904D01*
X69426723Y-129431904D02*
X69236247Y-129384285D01*
X69236247Y-129384285D02*
X68855295Y-129384285D01*
X68855295Y-129384285D02*
X68760057Y-129431904D01*
X68760057Y-129431904D02*
X68712438Y-129479523D01*
X68712438Y-129479523D02*
X68664819Y-129574761D01*
X68664819Y-129574761D02*
X68664819Y-129765237D01*
X68664819Y-129765237D02*
X68712438Y-129860475D01*
X68712438Y-129860475D02*
X68760057Y-129908094D01*
X68760057Y-129908094D02*
X68855295Y-129955713D01*
X68855295Y-129955713D02*
X69093390Y-129955713D01*
X69093390Y-129955713D02*
X69188628Y-129908094D01*
X69188628Y-129908094D02*
X69236247Y-129860475D01*
X69236247Y-129860475D02*
X69283866Y-129765237D01*
X69283866Y-129765237D02*
X69283866Y-129574761D01*
X69283866Y-129574761D02*
X69236247Y-129479523D01*
X69236247Y-129479523D02*
X69188628Y-129431904D01*
X69188628Y-129431904D02*
X69093390Y-129384285D01*
X88714819Y-130336666D02*
X88238628Y-130669999D01*
X88714819Y-130908094D02*
X87714819Y-130908094D01*
X87714819Y-130908094D02*
X87714819Y-130527142D01*
X87714819Y-130527142D02*
X87762438Y-130431904D01*
X87762438Y-130431904D02*
X87810057Y-130384285D01*
X87810057Y-130384285D02*
X87905295Y-130336666D01*
X87905295Y-130336666D02*
X88048152Y-130336666D01*
X88048152Y-130336666D02*
X88143390Y-130384285D01*
X88143390Y-130384285D02*
X88191009Y-130431904D01*
X88191009Y-130431904D02*
X88238628Y-130527142D01*
X88238628Y-130527142D02*
X88238628Y-130908094D01*
X87714819Y-129431904D02*
X87714819Y-129908094D01*
X87714819Y-129908094D02*
X88191009Y-129955713D01*
X88191009Y-129955713D02*
X88143390Y-129908094D01*
X88143390Y-129908094D02*
X88095771Y-129812856D01*
X88095771Y-129812856D02*
X88095771Y-129574761D01*
X88095771Y-129574761D02*
X88143390Y-129479523D01*
X88143390Y-129479523D02*
X88191009Y-129431904D01*
X88191009Y-129431904D02*
X88286247Y-129384285D01*
X88286247Y-129384285D02*
X88524342Y-129384285D01*
X88524342Y-129384285D02*
X88619580Y-129431904D01*
X88619580Y-129431904D02*
X88667200Y-129479523D01*
X88667200Y-129479523D02*
X88714819Y-129574761D01*
X88714819Y-129574761D02*
X88714819Y-129812856D01*
X88714819Y-129812856D02*
X88667200Y-129908094D01*
X88667200Y-129908094D02*
X88619580Y-129955713D01*
D12*
G04 #@! TO.C,D68*
X47910000Y-87180000D02*
X47910000Y-87024000D01*
X47910000Y-89496000D02*
X47910000Y-89340000D01*
X44677665Y-87181392D02*
G75*
G02*
X47910000Y-87024484I1672335J-1078608D01*
G01*
X45308870Y-87180163D02*
G75*
G02*
X47390961Y-87180000I1041130J-1079837D01*
G01*
X47390961Y-89340000D02*
G75*
G02*
X45308870Y-89339837I-1040961J1080000D01*
G01*
X47910000Y-89495516D02*
G75*
G02*
X44677665Y-89338608I-1560000J1235516D01*
G01*
G04 #@! TO.C,R2*
X75460000Y-126900000D02*
X75460000Y-133440000D01*
X75460000Y-133440000D02*
X78200000Y-133440000D01*
X76830000Y-126130000D02*
X76830000Y-126900000D01*
X76830000Y-134210000D02*
X76830000Y-133440000D01*
X78200000Y-126900000D02*
X75460000Y-126900000D01*
X78200000Y-133440000D02*
X78200000Y-126900000D01*
G04 #@! TO.C,D53*
X59190000Y-107687500D02*
X59190000Y-111927500D01*
X59190000Y-111087500D02*
X61430000Y-111087500D01*
X59190000Y-111207500D02*
X61430000Y-111207500D01*
X59190000Y-111327500D02*
X61430000Y-111327500D01*
X59190000Y-111927500D02*
X61430000Y-111927500D01*
X60310000Y-107037500D02*
X60310000Y-107687500D01*
X60310000Y-112577500D02*
X60310000Y-111927500D01*
X61430000Y-107687500D02*
X59190000Y-107687500D01*
X61430000Y-111927500D02*
X61430000Y-107687500D01*
G04 #@! TO.C,D54*
X61730000Y-107687500D02*
X61730000Y-111927500D01*
X61730000Y-111087500D02*
X63970000Y-111087500D01*
X61730000Y-111207500D02*
X63970000Y-111207500D01*
X61730000Y-111327500D02*
X63970000Y-111327500D01*
X61730000Y-111927500D02*
X63970000Y-111927500D01*
X62850000Y-107037500D02*
X62850000Y-107687500D01*
X62850000Y-112577500D02*
X62850000Y-111927500D01*
X63970000Y-107687500D02*
X61730000Y-107687500D01*
X63970000Y-111927500D02*
X63970000Y-107687500D01*
G04 #@! TO.C,D57*
X78250000Y-107730000D02*
X78250000Y-111970000D01*
X78250000Y-111130000D02*
X80490000Y-111130000D01*
X78250000Y-111250000D02*
X80490000Y-111250000D01*
X78250000Y-111370000D02*
X80490000Y-111370000D01*
X78250000Y-111970000D02*
X80490000Y-111970000D01*
X79370000Y-107080000D02*
X79370000Y-107730000D01*
X79370000Y-112620000D02*
X79370000Y-111970000D01*
X80490000Y-107730000D02*
X78250000Y-107730000D01*
X80490000Y-111970000D02*
X80490000Y-107730000D01*
G04 #@! TO.C,D34*
X80780000Y-82330000D02*
X80780000Y-86570000D01*
X80780000Y-85730000D02*
X83020000Y-85730000D01*
X80780000Y-85850000D02*
X83020000Y-85850000D01*
X80780000Y-85970000D02*
X83020000Y-85970000D01*
X80780000Y-86570000D02*
X83020000Y-86570000D01*
X81900000Y-81680000D02*
X81900000Y-82330000D01*
X81900000Y-87220000D02*
X81900000Y-86570000D01*
X83020000Y-82330000D02*
X80780000Y-82330000D01*
X83020000Y-86570000D02*
X83020000Y-82330000D01*
G04 #@! TO.C,D69*
X77120000Y-87180000D02*
X77120000Y-87024000D01*
X77120000Y-89496000D02*
X77120000Y-89340000D01*
X73887665Y-87181392D02*
G75*
G02*
X77120000Y-87024484I1672335J-1078608D01*
G01*
X74518870Y-87180163D02*
G75*
G02*
X76600961Y-87180000I1041130J-1079837D01*
G01*
X76600961Y-89340000D02*
G75*
G02*
X74518870Y-89339837I-1040961J1080000D01*
G01*
X77120000Y-89495516D02*
G75*
G02*
X73887665Y-89338608I-1560000J1235516D01*
G01*
G04 #@! TO.C,D46*
X120150000Y-82330000D02*
X120150000Y-86570000D01*
X120150000Y-85730000D02*
X122390000Y-85730000D01*
X120150000Y-85850000D02*
X122390000Y-85850000D01*
X120150000Y-85970000D02*
X122390000Y-85970000D01*
X120150000Y-86570000D02*
X122390000Y-86570000D01*
X121270000Y-81680000D02*
X121270000Y-82330000D01*
X121270000Y-87220000D02*
X121270000Y-86570000D01*
X122390000Y-82330000D02*
X120150000Y-82330000D01*
X122390000Y-86570000D02*
X122390000Y-82330000D01*
G04 #@! TO.C,D6*
X61740000Y-56930000D02*
X61740000Y-61170000D01*
X61740000Y-60330000D02*
X63980000Y-60330000D01*
X61740000Y-60450000D02*
X63980000Y-60450000D01*
X61740000Y-60570000D02*
X63980000Y-60570000D01*
X61740000Y-61170000D02*
X63980000Y-61170000D01*
X62860000Y-56280000D02*
X62860000Y-56930000D01*
X62860000Y-61820000D02*
X62860000Y-61170000D01*
X63980000Y-56930000D02*
X61740000Y-56930000D01*
X63980000Y-61170000D02*
X63980000Y-56930000D01*
G04 #@! TO.C,D36*
X85860000Y-82330000D02*
X85860000Y-86570000D01*
X85860000Y-85730000D02*
X88100000Y-85730000D01*
X85860000Y-85850000D02*
X88100000Y-85850000D01*
X85860000Y-85970000D02*
X88100000Y-85970000D01*
X85860000Y-86570000D02*
X88100000Y-86570000D01*
X86980000Y-81680000D02*
X86980000Y-82330000D01*
X86980000Y-87220000D02*
X86980000Y-86570000D01*
X88100000Y-82330000D02*
X85860000Y-82330000D01*
X88100000Y-86570000D02*
X88100000Y-82330000D01*
G04 #@! TO.C,D48*
X125230000Y-82330000D02*
X125230000Y-86570000D01*
X125230000Y-85730000D02*
X127470000Y-85730000D01*
X125230000Y-85850000D02*
X127470000Y-85850000D01*
X125230000Y-85970000D02*
X127470000Y-85970000D01*
X125230000Y-86570000D02*
X127470000Y-86570000D01*
X126350000Y-81680000D02*
X126350000Y-82330000D01*
X126350000Y-87220000D02*
X126350000Y-86570000D01*
X127470000Y-82330000D02*
X125230000Y-82330000D01*
X127470000Y-86570000D02*
X127470000Y-82330000D01*
G04 #@! TO.C,D42*
X109990000Y-82330000D02*
X109990000Y-86570000D01*
X109990000Y-85730000D02*
X112230000Y-85730000D01*
X109990000Y-85850000D02*
X112230000Y-85850000D01*
X109990000Y-85970000D02*
X112230000Y-85970000D01*
X109990000Y-86570000D02*
X112230000Y-86570000D01*
X111110000Y-81680000D02*
X111110000Y-82330000D01*
X111110000Y-87220000D02*
X111110000Y-86570000D01*
X112230000Y-82330000D02*
X109990000Y-82330000D01*
X112230000Y-86570000D02*
X112230000Y-82330000D01*
G04 #@! TO.C,D35*
X83320000Y-82330000D02*
X83320000Y-86570000D01*
X83320000Y-85730000D02*
X85560000Y-85730000D01*
X83320000Y-85850000D02*
X85560000Y-85850000D01*
X83320000Y-85970000D02*
X85560000Y-85970000D01*
X83320000Y-86570000D02*
X85560000Y-86570000D01*
X84440000Y-81680000D02*
X84440000Y-82330000D01*
X84440000Y-87220000D02*
X84440000Y-86570000D01*
X85560000Y-82330000D02*
X83320000Y-82330000D01*
X85560000Y-86570000D02*
X85560000Y-82330000D01*
G04 #@! TO.C,D29*
X59200000Y-82287500D02*
X59200000Y-86527500D01*
X59200000Y-85687500D02*
X61440000Y-85687500D01*
X59200000Y-85807500D02*
X61440000Y-85807500D01*
X59200000Y-85927500D02*
X61440000Y-85927500D01*
X59200000Y-86527500D02*
X61440000Y-86527500D01*
X60320000Y-81637500D02*
X60320000Y-82287500D01*
X60320000Y-87177500D02*
X60320000Y-86527500D01*
X61440000Y-82287500D02*
X59200000Y-82287500D01*
X61440000Y-86527500D02*
X61440000Y-82287500D01*
G04 #@! TO.C,D61*
X88410000Y-107730000D02*
X88410000Y-111970000D01*
X88410000Y-111130000D02*
X90650000Y-111130000D01*
X88410000Y-111250000D02*
X90650000Y-111250000D01*
X88410000Y-111370000D02*
X90650000Y-111370000D01*
X88410000Y-111970000D02*
X90650000Y-111970000D01*
X89530000Y-107080000D02*
X89530000Y-107730000D01*
X89530000Y-112620000D02*
X89530000Y-111970000D01*
X90650000Y-107730000D02*
X88410000Y-107730000D01*
X90650000Y-111970000D02*
X90650000Y-107730000D01*
G04 #@! TO.C,D24*
X125240000Y-56930000D02*
X125240000Y-61170000D01*
X125240000Y-60330000D02*
X127480000Y-60330000D01*
X125240000Y-60450000D02*
X127480000Y-60450000D01*
X125240000Y-60570000D02*
X127480000Y-60570000D01*
X125240000Y-61170000D02*
X127480000Y-61170000D01*
X126360000Y-56280000D02*
X126360000Y-56930000D01*
X126360000Y-61820000D02*
X126360000Y-61170000D01*
X127480000Y-56930000D02*
X125240000Y-56930000D01*
X127480000Y-61170000D02*
X127480000Y-56930000D01*
G04 #@! TO.C,D43*
X112530000Y-82330000D02*
X112530000Y-86570000D01*
X112530000Y-85730000D02*
X114770000Y-85730000D01*
X112530000Y-85850000D02*
X114770000Y-85850000D01*
X112530000Y-85970000D02*
X114770000Y-85970000D01*
X112530000Y-86570000D02*
X114770000Y-86570000D01*
X113650000Y-81680000D02*
X113650000Y-82330000D01*
X113650000Y-87220000D02*
X113650000Y-86570000D01*
X114770000Y-82330000D02*
X112530000Y-82330000D01*
X114770000Y-86570000D02*
X114770000Y-82330000D01*
G04 #@! TO.C,D18*
X110000000Y-56930000D02*
X110000000Y-61170000D01*
X110000000Y-60330000D02*
X112240000Y-60330000D01*
X110000000Y-60450000D02*
X112240000Y-60450000D01*
X110000000Y-60570000D02*
X112240000Y-60570000D01*
X110000000Y-61170000D02*
X112240000Y-61170000D01*
X111120000Y-56280000D02*
X111120000Y-56930000D01*
X111120000Y-61820000D02*
X111120000Y-61170000D01*
X112240000Y-56930000D02*
X110000000Y-56930000D01*
X112240000Y-61170000D02*
X112240000Y-56930000D01*
G04 #@! TO.C,R4*
X83080000Y-126900000D02*
X83080000Y-133440000D01*
X83080000Y-133440000D02*
X85820000Y-133440000D01*
X84450000Y-126130000D02*
X84450000Y-126900000D01*
X84450000Y-134210000D02*
X84450000Y-133440000D01*
X85820000Y-126900000D02*
X83080000Y-126900000D01*
X85820000Y-133440000D02*
X85820000Y-126900000D01*
G04 #@! TO.C,D2*
X51580000Y-56930000D02*
X51580000Y-61170000D01*
X51580000Y-60330000D02*
X53820000Y-60330000D01*
X51580000Y-60450000D02*
X53820000Y-60450000D01*
X51580000Y-60570000D02*
X53820000Y-60570000D01*
X51580000Y-61170000D02*
X53820000Y-61170000D01*
X52700000Y-56280000D02*
X52700000Y-56930000D01*
X52700000Y-61820000D02*
X52700000Y-61170000D01*
X53820000Y-56930000D02*
X51580000Y-56930000D01*
X53820000Y-61170000D02*
X53820000Y-56930000D01*
G04 #@! TO.C,SW1*
X47500000Y-54080000D02*
X47500000Y-52696000D01*
X47500000Y-54080000D02*
X48883000Y-54080000D01*
X47740000Y-43940000D02*
X70361000Y-43940000D01*
X47740000Y-53840000D02*
X47740000Y-43940000D01*
X47740000Y-53840000D02*
X70361000Y-53840000D01*
X49525000Y-46860000D02*
X49525000Y-50920000D01*
X49525000Y-49566667D02*
X50795000Y-49566667D01*
X49525000Y-50920000D02*
X50795000Y-50920000D01*
X49645000Y-50920000D02*
X49645000Y-49566667D01*
X49765000Y-50920000D02*
X49765000Y-49566667D01*
X49885000Y-50920000D02*
X49885000Y-49566667D01*
X50005000Y-50920000D02*
X50005000Y-49566667D01*
X50125000Y-50920000D02*
X50125000Y-49566667D01*
X50245000Y-50920000D02*
X50245000Y-49566667D01*
X50365000Y-50920000D02*
X50365000Y-49566667D01*
X50485000Y-50920000D02*
X50485000Y-49566667D01*
X50605000Y-50920000D02*
X50605000Y-49566667D01*
X50725000Y-50920000D02*
X50725000Y-49566667D01*
X50795000Y-46860000D02*
X49525000Y-46860000D01*
X50795000Y-50920000D02*
X50795000Y-46860000D01*
X52065000Y-46860000D02*
X52065000Y-50920000D01*
X52065000Y-49566667D02*
X53335000Y-49566667D01*
X52065000Y-50920000D02*
X53335000Y-50920000D01*
X52185000Y-50920000D02*
X52185000Y-49566667D01*
X52305000Y-50920000D02*
X52305000Y-49566667D01*
X52425000Y-50920000D02*
X52425000Y-49566667D01*
X52545000Y-50920000D02*
X52545000Y-49566667D01*
X52665000Y-50920000D02*
X52665000Y-49566667D01*
X52785000Y-50920000D02*
X52785000Y-49566667D01*
X52905000Y-50920000D02*
X52905000Y-49566667D01*
X53025000Y-50920000D02*
X53025000Y-49566667D01*
X53145000Y-50920000D02*
X53145000Y-49566667D01*
X53265000Y-50920000D02*
X53265000Y-49566667D01*
X53335000Y-46860000D02*
X52065000Y-46860000D01*
X53335000Y-50920000D02*
X53335000Y-46860000D01*
X54605000Y-46860000D02*
X54605000Y-50920000D01*
X54605000Y-49566667D02*
X55875000Y-49566667D01*
X54605000Y-50920000D02*
X55875000Y-50920000D01*
X54725000Y-50920000D02*
X54725000Y-49566667D01*
X54845000Y-50920000D02*
X54845000Y-49566667D01*
X54965000Y-50920000D02*
X54965000Y-49566667D01*
X55085000Y-50920000D02*
X55085000Y-49566667D01*
X55205000Y-50920000D02*
X55205000Y-49566667D01*
X55325000Y-50920000D02*
X55325000Y-49566667D01*
X55445000Y-50920000D02*
X55445000Y-49566667D01*
X55565000Y-50920000D02*
X55565000Y-49566667D01*
X55685000Y-50920000D02*
X55685000Y-49566667D01*
X55805000Y-50920000D02*
X55805000Y-49566667D01*
X55875000Y-46860000D02*
X54605000Y-46860000D01*
X55875000Y-50920000D02*
X55875000Y-46860000D01*
X57145000Y-46860000D02*
X57145000Y-50920000D01*
X57145000Y-49566667D02*
X58415000Y-49566667D01*
X57145000Y-50920000D02*
X58415000Y-50920000D01*
X57265000Y-50920000D02*
X57265000Y-49566667D01*
X57385000Y-50920000D02*
X57385000Y-49566667D01*
X57505000Y-50920000D02*
X57505000Y-49566667D01*
X57625000Y-50920000D02*
X57625000Y-49566667D01*
X57745000Y-50920000D02*
X57745000Y-49566667D01*
X57865000Y-50920000D02*
X57865000Y-49566667D01*
X57985000Y-50920000D02*
X57985000Y-49566667D01*
X58105000Y-50920000D02*
X58105000Y-49566667D01*
X58225000Y-50920000D02*
X58225000Y-49566667D01*
X58345000Y-50920000D02*
X58345000Y-49566667D01*
X58415000Y-46860000D02*
X57145000Y-46860000D01*
X58415000Y-50920000D02*
X58415000Y-46860000D01*
X59685000Y-46860000D02*
X59685000Y-50920000D01*
X59685000Y-49566667D02*
X60955000Y-49566667D01*
X59685000Y-50920000D02*
X60955000Y-50920000D01*
X59805000Y-50920000D02*
X59805000Y-49566667D01*
X59925000Y-50920000D02*
X59925000Y-49566667D01*
X60045000Y-50920000D02*
X60045000Y-49566667D01*
X60165000Y-50920000D02*
X60165000Y-49566667D01*
X60285000Y-50920000D02*
X60285000Y-49566667D01*
X60405000Y-50920000D02*
X60405000Y-49566667D01*
X60525000Y-50920000D02*
X60525000Y-49566667D01*
X60645000Y-50920000D02*
X60645000Y-49566667D01*
X60765000Y-50920000D02*
X60765000Y-49566667D01*
X60885000Y-50920000D02*
X60885000Y-49566667D01*
X60955000Y-46860000D02*
X59685000Y-46860000D01*
X60955000Y-50920000D02*
X60955000Y-46860000D01*
X62225000Y-46860000D02*
X62225000Y-50920000D01*
X62225000Y-49566667D02*
X63495000Y-49566667D01*
X62225000Y-50920000D02*
X63495000Y-50920000D01*
X62345000Y-50920000D02*
X62345000Y-49566667D01*
X62465000Y-50920000D02*
X62465000Y-49566667D01*
X62585000Y-50920000D02*
X62585000Y-49566667D01*
X62705000Y-50920000D02*
X62705000Y-49566667D01*
X62825000Y-50920000D02*
X62825000Y-49566667D01*
X62945000Y-50920000D02*
X62945000Y-49566667D01*
X63065000Y-50920000D02*
X63065000Y-49566667D01*
X63185000Y-50920000D02*
X63185000Y-49566667D01*
X63305000Y-50920000D02*
X63305000Y-49566667D01*
X63425000Y-50920000D02*
X63425000Y-49566667D01*
X63495000Y-46860000D02*
X62225000Y-46860000D01*
X63495000Y-50920000D02*
X63495000Y-46860000D01*
X64765000Y-46860000D02*
X64765000Y-50920000D01*
X64765000Y-49566667D02*
X66035000Y-49566667D01*
X64765000Y-50920000D02*
X66035000Y-50920000D01*
X64885000Y-50920000D02*
X64885000Y-49566667D01*
X65005000Y-50920000D02*
X65005000Y-49566667D01*
X65125000Y-50920000D02*
X65125000Y-49566667D01*
X65245000Y-50920000D02*
X65245000Y-49566667D01*
X65365000Y-50920000D02*
X65365000Y-49566667D01*
X65485000Y-50920000D02*
X65485000Y-49566667D01*
X65605000Y-50920000D02*
X65605000Y-49566667D01*
X65725000Y-50920000D02*
X65725000Y-49566667D01*
X65845000Y-50920000D02*
X65845000Y-49566667D01*
X65965000Y-50920000D02*
X65965000Y-49566667D01*
X66035000Y-46860000D02*
X64765000Y-46860000D01*
X66035000Y-50920000D02*
X66035000Y-46860000D01*
X67305000Y-46860000D02*
X67305000Y-50920000D01*
X67305000Y-49566667D02*
X68575000Y-49566667D01*
X67305000Y-50920000D02*
X68575000Y-50920000D01*
X67425000Y-50920000D02*
X67425000Y-49566667D01*
X67545000Y-50920000D02*
X67545000Y-49566667D01*
X67665000Y-50920000D02*
X67665000Y-49566667D01*
X67785000Y-50920000D02*
X67785000Y-49566667D01*
X67905000Y-50920000D02*
X67905000Y-49566667D01*
X68025000Y-50920000D02*
X68025000Y-49566667D01*
X68145000Y-50920000D02*
X68145000Y-49566667D01*
X68265000Y-50920000D02*
X68265000Y-49566667D01*
X68385000Y-50920000D02*
X68385000Y-49566667D01*
X68505000Y-50920000D02*
X68505000Y-49566667D01*
X68575000Y-46860000D02*
X67305000Y-46860000D01*
X68575000Y-50920000D02*
X68575000Y-46860000D01*
X70361000Y-53840000D02*
X70361000Y-43940000D01*
G04 #@! TO.C,D20*
X115080000Y-56930000D02*
X115080000Y-61170000D01*
X115080000Y-60330000D02*
X117320000Y-60330000D01*
X115080000Y-60450000D02*
X117320000Y-60450000D01*
X115080000Y-60570000D02*
X117320000Y-60570000D01*
X115080000Y-61170000D02*
X117320000Y-61170000D01*
X116200000Y-56280000D02*
X116200000Y-56930000D01*
X116200000Y-61820000D02*
X116200000Y-61170000D01*
X117320000Y-56930000D02*
X115080000Y-56930000D01*
X117320000Y-61170000D02*
X117320000Y-56930000D01*
G04 #@! TO.C,D60*
X85870000Y-107730000D02*
X85870000Y-111970000D01*
X85870000Y-111130000D02*
X88110000Y-111130000D01*
X85870000Y-111250000D02*
X88110000Y-111250000D01*
X85870000Y-111370000D02*
X88110000Y-111370000D01*
X85870000Y-111970000D02*
X88110000Y-111970000D01*
X86990000Y-107080000D02*
X86990000Y-107730000D01*
X86990000Y-112620000D02*
X86990000Y-111970000D01*
X88110000Y-107730000D02*
X85870000Y-107730000D01*
X88110000Y-111970000D02*
X88110000Y-107730000D01*
G04 #@! TO.C,D41*
X107450000Y-82330000D02*
X107450000Y-86570000D01*
X107450000Y-85730000D02*
X109690000Y-85730000D01*
X107450000Y-85850000D02*
X109690000Y-85850000D01*
X107450000Y-85970000D02*
X109690000Y-85970000D01*
X107450000Y-86570000D02*
X109690000Y-86570000D01*
X108570000Y-81680000D02*
X108570000Y-82330000D01*
X108570000Y-87220000D02*
X108570000Y-86570000D01*
X109690000Y-82330000D02*
X107450000Y-82330000D01*
X109690000Y-86570000D02*
X109690000Y-82330000D01*
G04 #@! TO.C,D8*
X66820000Y-56930000D02*
X66820000Y-61170000D01*
X66820000Y-60330000D02*
X69060000Y-60330000D01*
X66820000Y-60450000D02*
X69060000Y-60450000D01*
X66820000Y-60570000D02*
X69060000Y-60570000D01*
X66820000Y-61170000D02*
X69060000Y-61170000D01*
X67940000Y-56280000D02*
X67940000Y-56930000D01*
X67940000Y-61820000D02*
X67940000Y-61170000D01*
X69060000Y-56930000D02*
X66820000Y-56930000D01*
X69060000Y-61170000D02*
X69060000Y-56930000D01*
G04 #@! TO.C,SW5*
X76700000Y-79480000D02*
X76700000Y-78096000D01*
X76700000Y-79480000D02*
X78083000Y-79480000D01*
X76940000Y-69340000D02*
X99561000Y-69340000D01*
X76940000Y-79240000D02*
X76940000Y-69340000D01*
X76940000Y-79240000D02*
X99561000Y-79240000D01*
X78725000Y-72260000D02*
X78725000Y-76320000D01*
X78725000Y-74966667D02*
X79995000Y-74966667D01*
X78725000Y-76320000D02*
X79995000Y-76320000D01*
X78845000Y-76320000D02*
X78845000Y-74966667D01*
X78965000Y-76320000D02*
X78965000Y-74966667D01*
X79085000Y-76320000D02*
X79085000Y-74966667D01*
X79205000Y-76320000D02*
X79205000Y-74966667D01*
X79325000Y-76320000D02*
X79325000Y-74966667D01*
X79445000Y-76320000D02*
X79445000Y-74966667D01*
X79565000Y-76320000D02*
X79565000Y-74966667D01*
X79685000Y-76320000D02*
X79685000Y-74966667D01*
X79805000Y-76320000D02*
X79805000Y-74966667D01*
X79925000Y-76320000D02*
X79925000Y-74966667D01*
X79995000Y-72260000D02*
X78725000Y-72260000D01*
X79995000Y-76320000D02*
X79995000Y-72260000D01*
X81265000Y-72260000D02*
X81265000Y-76320000D01*
X81265000Y-74966667D02*
X82535000Y-74966667D01*
X81265000Y-76320000D02*
X82535000Y-76320000D01*
X81385000Y-76320000D02*
X81385000Y-74966667D01*
X81505000Y-76320000D02*
X81505000Y-74966667D01*
X81625000Y-76320000D02*
X81625000Y-74966667D01*
X81745000Y-76320000D02*
X81745000Y-74966667D01*
X81865000Y-76320000D02*
X81865000Y-74966667D01*
X81985000Y-76320000D02*
X81985000Y-74966667D01*
X82105000Y-76320000D02*
X82105000Y-74966667D01*
X82225000Y-76320000D02*
X82225000Y-74966667D01*
X82345000Y-76320000D02*
X82345000Y-74966667D01*
X82465000Y-76320000D02*
X82465000Y-74966667D01*
X82535000Y-72260000D02*
X81265000Y-72260000D01*
X82535000Y-76320000D02*
X82535000Y-72260000D01*
X83805000Y-72260000D02*
X83805000Y-76320000D01*
X83805000Y-74966667D02*
X85075000Y-74966667D01*
X83805000Y-76320000D02*
X85075000Y-76320000D01*
X83925000Y-76320000D02*
X83925000Y-74966667D01*
X84045000Y-76320000D02*
X84045000Y-74966667D01*
X84165000Y-76320000D02*
X84165000Y-74966667D01*
X84285000Y-76320000D02*
X84285000Y-74966667D01*
X84405000Y-76320000D02*
X84405000Y-74966667D01*
X84525000Y-76320000D02*
X84525000Y-74966667D01*
X84645000Y-76320000D02*
X84645000Y-74966667D01*
X84765000Y-76320000D02*
X84765000Y-74966667D01*
X84885000Y-76320000D02*
X84885000Y-74966667D01*
X85005000Y-76320000D02*
X85005000Y-74966667D01*
X85075000Y-72260000D02*
X83805000Y-72260000D01*
X85075000Y-76320000D02*
X85075000Y-72260000D01*
X86345000Y-72260000D02*
X86345000Y-76320000D01*
X86345000Y-74966667D02*
X87615000Y-74966667D01*
X86345000Y-76320000D02*
X87615000Y-76320000D01*
X86465000Y-76320000D02*
X86465000Y-74966667D01*
X86585000Y-76320000D02*
X86585000Y-74966667D01*
X86705000Y-76320000D02*
X86705000Y-74966667D01*
X86825000Y-76320000D02*
X86825000Y-74966667D01*
X86945000Y-76320000D02*
X86945000Y-74966667D01*
X87065000Y-76320000D02*
X87065000Y-74966667D01*
X87185000Y-76320000D02*
X87185000Y-74966667D01*
X87305000Y-76320000D02*
X87305000Y-74966667D01*
X87425000Y-76320000D02*
X87425000Y-74966667D01*
X87545000Y-76320000D02*
X87545000Y-74966667D01*
X87615000Y-72260000D02*
X86345000Y-72260000D01*
X87615000Y-76320000D02*
X87615000Y-72260000D01*
X88885000Y-72260000D02*
X88885000Y-76320000D01*
X88885000Y-74966667D02*
X90155000Y-74966667D01*
X88885000Y-76320000D02*
X90155000Y-76320000D01*
X89005000Y-76320000D02*
X89005000Y-74966667D01*
X89125000Y-76320000D02*
X89125000Y-74966667D01*
X89245000Y-76320000D02*
X89245000Y-74966667D01*
X89365000Y-76320000D02*
X89365000Y-74966667D01*
X89485000Y-76320000D02*
X89485000Y-74966667D01*
X89605000Y-76320000D02*
X89605000Y-74966667D01*
X89725000Y-76320000D02*
X89725000Y-74966667D01*
X89845000Y-76320000D02*
X89845000Y-74966667D01*
X89965000Y-76320000D02*
X89965000Y-74966667D01*
X90085000Y-76320000D02*
X90085000Y-74966667D01*
X90155000Y-72260000D02*
X88885000Y-72260000D01*
X90155000Y-76320000D02*
X90155000Y-72260000D01*
X91425000Y-72260000D02*
X91425000Y-76320000D01*
X91425000Y-74966667D02*
X92695000Y-74966667D01*
X91425000Y-76320000D02*
X92695000Y-76320000D01*
X91545000Y-76320000D02*
X91545000Y-74966667D01*
X91665000Y-76320000D02*
X91665000Y-74966667D01*
X91785000Y-76320000D02*
X91785000Y-74966667D01*
X91905000Y-76320000D02*
X91905000Y-74966667D01*
X92025000Y-76320000D02*
X92025000Y-74966667D01*
X92145000Y-76320000D02*
X92145000Y-74966667D01*
X92265000Y-76320000D02*
X92265000Y-74966667D01*
X92385000Y-76320000D02*
X92385000Y-74966667D01*
X92505000Y-76320000D02*
X92505000Y-74966667D01*
X92625000Y-76320000D02*
X92625000Y-74966667D01*
X92695000Y-72260000D02*
X91425000Y-72260000D01*
X92695000Y-76320000D02*
X92695000Y-72260000D01*
X93965000Y-72260000D02*
X93965000Y-76320000D01*
X93965000Y-74966667D02*
X95235000Y-74966667D01*
X93965000Y-76320000D02*
X95235000Y-76320000D01*
X94085000Y-76320000D02*
X94085000Y-74966667D01*
X94205000Y-76320000D02*
X94205000Y-74966667D01*
X94325000Y-76320000D02*
X94325000Y-74966667D01*
X94445000Y-76320000D02*
X94445000Y-74966667D01*
X94565000Y-76320000D02*
X94565000Y-74966667D01*
X94685000Y-76320000D02*
X94685000Y-74966667D01*
X94805000Y-76320000D02*
X94805000Y-74966667D01*
X94925000Y-76320000D02*
X94925000Y-74966667D01*
X95045000Y-76320000D02*
X95045000Y-74966667D01*
X95165000Y-76320000D02*
X95165000Y-74966667D01*
X95235000Y-72260000D02*
X93965000Y-72260000D01*
X95235000Y-76320000D02*
X95235000Y-72260000D01*
X96505000Y-72260000D02*
X96505000Y-76320000D01*
X96505000Y-74966667D02*
X97775000Y-74966667D01*
X96505000Y-76320000D02*
X97775000Y-76320000D01*
X96625000Y-76320000D02*
X96625000Y-74966667D01*
X96745000Y-76320000D02*
X96745000Y-74966667D01*
X96865000Y-76320000D02*
X96865000Y-74966667D01*
X96985000Y-76320000D02*
X96985000Y-74966667D01*
X97105000Y-76320000D02*
X97105000Y-74966667D01*
X97225000Y-76320000D02*
X97225000Y-74966667D01*
X97345000Y-76320000D02*
X97345000Y-74966667D01*
X97465000Y-76320000D02*
X97465000Y-74966667D01*
X97585000Y-76320000D02*
X97585000Y-74966667D01*
X97705000Y-76320000D02*
X97705000Y-74966667D01*
X97775000Y-72260000D02*
X96505000Y-72260000D01*
X97775000Y-76320000D02*
X97775000Y-72260000D01*
X99561000Y-79240000D02*
X99561000Y-69340000D01*
G04 #@! TO.C,D58*
X80790000Y-107730000D02*
X80790000Y-111970000D01*
X80790000Y-111130000D02*
X83030000Y-111130000D01*
X80790000Y-111250000D02*
X83030000Y-111250000D01*
X80790000Y-111370000D02*
X83030000Y-111370000D01*
X80790000Y-111970000D02*
X83030000Y-111970000D01*
X81910000Y-107080000D02*
X81910000Y-107730000D01*
X81910000Y-112620000D02*
X81910000Y-111970000D01*
X83030000Y-107730000D02*
X80790000Y-107730000D01*
X83030000Y-111970000D02*
X83030000Y-107730000D01*
G04 #@! TO.C,SW3*
X105920000Y-54080000D02*
X105920000Y-52696000D01*
X105920000Y-54080000D02*
X107303000Y-54080000D01*
X106160000Y-43940000D02*
X128781000Y-43940000D01*
X106160000Y-53840000D02*
X106160000Y-43940000D01*
X106160000Y-53840000D02*
X128781000Y-53840000D01*
X107945000Y-46860000D02*
X107945000Y-50920000D01*
X107945000Y-49566667D02*
X109215000Y-49566667D01*
X107945000Y-50920000D02*
X109215000Y-50920000D01*
X108065000Y-50920000D02*
X108065000Y-49566667D01*
X108185000Y-50920000D02*
X108185000Y-49566667D01*
X108305000Y-50920000D02*
X108305000Y-49566667D01*
X108425000Y-50920000D02*
X108425000Y-49566667D01*
X108545000Y-50920000D02*
X108545000Y-49566667D01*
X108665000Y-50920000D02*
X108665000Y-49566667D01*
X108785000Y-50920000D02*
X108785000Y-49566667D01*
X108905000Y-50920000D02*
X108905000Y-49566667D01*
X109025000Y-50920000D02*
X109025000Y-49566667D01*
X109145000Y-50920000D02*
X109145000Y-49566667D01*
X109215000Y-46860000D02*
X107945000Y-46860000D01*
X109215000Y-50920000D02*
X109215000Y-46860000D01*
X110485000Y-46860000D02*
X110485000Y-50920000D01*
X110485000Y-49566667D02*
X111755000Y-49566667D01*
X110485000Y-50920000D02*
X111755000Y-50920000D01*
X110605000Y-50920000D02*
X110605000Y-49566667D01*
X110725000Y-50920000D02*
X110725000Y-49566667D01*
X110845000Y-50920000D02*
X110845000Y-49566667D01*
X110965000Y-50920000D02*
X110965000Y-49566667D01*
X111085000Y-50920000D02*
X111085000Y-49566667D01*
X111205000Y-50920000D02*
X111205000Y-49566667D01*
X111325000Y-50920000D02*
X111325000Y-49566667D01*
X111445000Y-50920000D02*
X111445000Y-49566667D01*
X111565000Y-50920000D02*
X111565000Y-49566667D01*
X111685000Y-50920000D02*
X111685000Y-49566667D01*
X111755000Y-46860000D02*
X110485000Y-46860000D01*
X111755000Y-50920000D02*
X111755000Y-46860000D01*
X113025000Y-46860000D02*
X113025000Y-50920000D01*
X113025000Y-49566667D02*
X114295000Y-49566667D01*
X113025000Y-50920000D02*
X114295000Y-50920000D01*
X113145000Y-50920000D02*
X113145000Y-49566667D01*
X113265000Y-50920000D02*
X113265000Y-49566667D01*
X113385000Y-50920000D02*
X113385000Y-49566667D01*
X113505000Y-50920000D02*
X113505000Y-49566667D01*
X113625000Y-50920000D02*
X113625000Y-49566667D01*
X113745000Y-50920000D02*
X113745000Y-49566667D01*
X113865000Y-50920000D02*
X113865000Y-49566667D01*
X113985000Y-50920000D02*
X113985000Y-49566667D01*
X114105000Y-50920000D02*
X114105000Y-49566667D01*
X114225000Y-50920000D02*
X114225000Y-49566667D01*
X114295000Y-46860000D02*
X113025000Y-46860000D01*
X114295000Y-50920000D02*
X114295000Y-46860000D01*
X115565000Y-46860000D02*
X115565000Y-50920000D01*
X115565000Y-49566667D02*
X116835000Y-49566667D01*
X115565000Y-50920000D02*
X116835000Y-50920000D01*
X115685000Y-50920000D02*
X115685000Y-49566667D01*
X115805000Y-50920000D02*
X115805000Y-49566667D01*
X115925000Y-50920000D02*
X115925000Y-49566667D01*
X116045000Y-50920000D02*
X116045000Y-49566667D01*
X116165000Y-50920000D02*
X116165000Y-49566667D01*
X116285000Y-50920000D02*
X116285000Y-49566667D01*
X116405000Y-50920000D02*
X116405000Y-49566667D01*
X116525000Y-50920000D02*
X116525000Y-49566667D01*
X116645000Y-50920000D02*
X116645000Y-49566667D01*
X116765000Y-50920000D02*
X116765000Y-49566667D01*
X116835000Y-46860000D02*
X115565000Y-46860000D01*
X116835000Y-50920000D02*
X116835000Y-46860000D01*
X118105000Y-46860000D02*
X118105000Y-50920000D01*
X118105000Y-49566667D02*
X119375000Y-49566667D01*
X118105000Y-50920000D02*
X119375000Y-50920000D01*
X118225000Y-50920000D02*
X118225000Y-49566667D01*
X118345000Y-50920000D02*
X118345000Y-49566667D01*
X118465000Y-50920000D02*
X118465000Y-49566667D01*
X118585000Y-50920000D02*
X118585000Y-49566667D01*
X118705000Y-50920000D02*
X118705000Y-49566667D01*
X118825000Y-50920000D02*
X118825000Y-49566667D01*
X118945000Y-50920000D02*
X118945000Y-49566667D01*
X119065000Y-50920000D02*
X119065000Y-49566667D01*
X119185000Y-50920000D02*
X119185000Y-49566667D01*
X119305000Y-50920000D02*
X119305000Y-49566667D01*
X119375000Y-46860000D02*
X118105000Y-46860000D01*
X119375000Y-50920000D02*
X119375000Y-46860000D01*
X120645000Y-46860000D02*
X120645000Y-50920000D01*
X120645000Y-49566667D02*
X121915000Y-49566667D01*
X120645000Y-50920000D02*
X121915000Y-50920000D01*
X120765000Y-50920000D02*
X120765000Y-49566667D01*
X120885000Y-50920000D02*
X120885000Y-49566667D01*
X121005000Y-50920000D02*
X121005000Y-49566667D01*
X121125000Y-50920000D02*
X121125000Y-49566667D01*
X121245000Y-50920000D02*
X121245000Y-49566667D01*
X121365000Y-50920000D02*
X121365000Y-49566667D01*
X121485000Y-50920000D02*
X121485000Y-49566667D01*
X121605000Y-50920000D02*
X121605000Y-49566667D01*
X121725000Y-50920000D02*
X121725000Y-49566667D01*
X121845000Y-50920000D02*
X121845000Y-49566667D01*
X121915000Y-46860000D02*
X120645000Y-46860000D01*
X121915000Y-50920000D02*
X121915000Y-46860000D01*
X123185000Y-46860000D02*
X123185000Y-50920000D01*
X123185000Y-49566667D02*
X124455000Y-49566667D01*
X123185000Y-50920000D02*
X124455000Y-50920000D01*
X123305000Y-50920000D02*
X123305000Y-49566667D01*
X123425000Y-50920000D02*
X123425000Y-49566667D01*
X123545000Y-50920000D02*
X123545000Y-49566667D01*
X123665000Y-50920000D02*
X123665000Y-49566667D01*
X123785000Y-50920000D02*
X123785000Y-49566667D01*
X123905000Y-50920000D02*
X123905000Y-49566667D01*
X124025000Y-50920000D02*
X124025000Y-49566667D01*
X124145000Y-50920000D02*
X124145000Y-49566667D01*
X124265000Y-50920000D02*
X124265000Y-49566667D01*
X124385000Y-50920000D02*
X124385000Y-49566667D01*
X124455000Y-46860000D02*
X123185000Y-46860000D01*
X124455000Y-50920000D02*
X124455000Y-46860000D01*
X125725000Y-46860000D02*
X125725000Y-50920000D01*
X125725000Y-49566667D02*
X126995000Y-49566667D01*
X125725000Y-50920000D02*
X126995000Y-50920000D01*
X125845000Y-50920000D02*
X125845000Y-49566667D01*
X125965000Y-50920000D02*
X125965000Y-49566667D01*
X126085000Y-50920000D02*
X126085000Y-49566667D01*
X126205000Y-50920000D02*
X126205000Y-49566667D01*
X126325000Y-50920000D02*
X126325000Y-49566667D01*
X126445000Y-50920000D02*
X126445000Y-49566667D01*
X126565000Y-50920000D02*
X126565000Y-49566667D01*
X126685000Y-50920000D02*
X126685000Y-49566667D01*
X126805000Y-50920000D02*
X126805000Y-49566667D01*
X126925000Y-50920000D02*
X126925000Y-49566667D01*
X126995000Y-46860000D02*
X125725000Y-46860000D01*
X126995000Y-50920000D02*
X126995000Y-46860000D01*
X128781000Y-53840000D02*
X128781000Y-43940000D01*
G04 #@! TO.C,R8*
X98320000Y-126900000D02*
X98320000Y-133440000D01*
X98320000Y-133440000D02*
X101060000Y-133440000D01*
X99690000Y-126130000D02*
X99690000Y-126900000D01*
X99690000Y-134210000D02*
X99690000Y-133440000D01*
X101060000Y-126900000D02*
X98320000Y-126900000D01*
X101060000Y-133440000D02*
X101060000Y-126900000D01*
D13*
G04 #@! TO.C,U1*
X114142600Y-92197000D02*
X114142600Y-92501181D01*
X114142600Y-94178819D02*
X114142600Y-95041181D01*
X114142600Y-96718819D02*
X114142600Y-97581181D01*
X114142600Y-99258819D02*
X114142600Y-100121181D01*
X114142600Y-101798819D02*
X114142600Y-102661181D01*
X114142600Y-104338819D02*
X114142600Y-105201181D01*
X114142600Y-106878819D02*
X114142600Y-107741181D01*
X114142600Y-109418819D02*
X114142600Y-110281181D01*
X114142600Y-111958819D02*
X114142600Y-112263000D01*
X114142600Y-112263000D02*
X120797400Y-112263000D01*
X120797400Y-92197000D02*
X114142600Y-92197000D01*
X120797400Y-92501181D02*
X120797400Y-92197000D01*
X120797400Y-95041181D02*
X120797400Y-94178819D01*
X120797400Y-97581181D02*
X120797400Y-96718819D01*
X120797400Y-100121181D02*
X120797400Y-99258819D01*
X120797400Y-102661181D02*
X120797400Y-101798819D01*
X120797400Y-105201181D02*
X120797400Y-104338819D01*
X120797400Y-107741181D02*
X120797400Y-106878819D01*
X120797400Y-110281181D02*
X120797400Y-109418819D01*
X120797400Y-112263000D02*
X120797400Y-111958819D01*
D12*
G04 #@! TO.C,D19*
X112540000Y-56930000D02*
X112540000Y-61170000D01*
X112540000Y-60330000D02*
X114780000Y-60330000D01*
X112540000Y-60450000D02*
X114780000Y-60450000D01*
X112540000Y-60570000D02*
X114780000Y-60570000D01*
X112540000Y-61170000D02*
X114780000Y-61170000D01*
X113660000Y-56280000D02*
X113660000Y-56930000D01*
X113660000Y-61820000D02*
X113660000Y-61170000D01*
X114780000Y-56930000D02*
X112540000Y-56930000D01*
X114780000Y-61170000D02*
X114780000Y-56930000D01*
G04 #@! TO.C,D64*
X96030000Y-107730000D02*
X96030000Y-111970000D01*
X96030000Y-111130000D02*
X98270000Y-111130000D01*
X96030000Y-111250000D02*
X98270000Y-111250000D01*
X96030000Y-111370000D02*
X98270000Y-111370000D01*
X96030000Y-111970000D02*
X98270000Y-111970000D01*
X97150000Y-107080000D02*
X97150000Y-107730000D01*
X97150000Y-112620000D02*
X97150000Y-111970000D01*
X98270000Y-107730000D02*
X96030000Y-107730000D01*
X98270000Y-111970000D02*
X98270000Y-107730000D01*
G04 #@! TO.C,D32*
X66820000Y-82287500D02*
X66820000Y-86527500D01*
X66820000Y-85687500D02*
X69060000Y-85687500D01*
X66820000Y-85807500D02*
X69060000Y-85807500D01*
X66820000Y-85927500D02*
X69060000Y-85927500D01*
X66820000Y-86527500D02*
X69060000Y-86527500D01*
X67940000Y-81637500D02*
X67940000Y-82287500D01*
X67940000Y-87177500D02*
X67940000Y-86527500D01*
X69060000Y-82287500D02*
X66820000Y-82287500D01*
X69060000Y-86527500D02*
X69060000Y-82287500D01*
G04 #@! TO.C,D21*
X117620000Y-56930000D02*
X117620000Y-61170000D01*
X117620000Y-60330000D02*
X119860000Y-60330000D01*
X117620000Y-60450000D02*
X119860000Y-60450000D01*
X117620000Y-60570000D02*
X119860000Y-60570000D01*
X117620000Y-61170000D02*
X119860000Y-61170000D01*
X118740000Y-56280000D02*
X118740000Y-56930000D01*
X118740000Y-61820000D02*
X118740000Y-61170000D01*
X119860000Y-56930000D02*
X117620000Y-56930000D01*
X119860000Y-61170000D02*
X119860000Y-56930000D01*
G04 #@! TO.C,R7*
X94510000Y-126900000D02*
X94510000Y-133440000D01*
X94510000Y-133440000D02*
X97250000Y-133440000D01*
X95880000Y-126130000D02*
X95880000Y-126900000D01*
X95880000Y-134210000D02*
X95880000Y-133440000D01*
X97250000Y-126900000D02*
X94510000Y-126900000D01*
X97250000Y-133440000D02*
X97250000Y-126900000D01*
G04 #@! TO.C,J1*
X47560000Y-130440000D02*
X47560000Y-133100000D01*
X47560000Y-133100000D02*
X62920000Y-133100000D01*
X48510000Y-130042929D02*
X48510000Y-130440000D01*
X48510000Y-139100000D02*
X48510000Y-133100000D01*
X49270000Y-130042929D02*
X49270000Y-130440000D01*
X49270000Y-133100000D02*
X49270000Y-139100000D01*
X49270000Y-139100000D02*
X48510000Y-139100000D01*
X50160000Y-130440000D02*
X50160000Y-133100000D01*
X51050000Y-130042929D02*
X51050000Y-130440000D01*
X51050000Y-139100000D02*
X51050000Y-133100000D01*
X51810000Y-130042929D02*
X51810000Y-130440000D01*
X51810000Y-133100000D02*
X51810000Y-139100000D01*
X51810000Y-139100000D02*
X51050000Y-139100000D01*
X52700000Y-130440000D02*
X52700000Y-133100000D01*
X53590000Y-130042929D02*
X53590000Y-130440000D01*
X53590000Y-139100000D02*
X53590000Y-133100000D01*
X54350000Y-130042929D02*
X54350000Y-130440000D01*
X54350000Y-133100000D02*
X54350000Y-139100000D01*
X54350000Y-139100000D02*
X53590000Y-139100000D01*
X55240000Y-130440000D02*
X55240000Y-133100000D01*
X56130000Y-130042929D02*
X56130000Y-130440000D01*
X56130000Y-139100000D02*
X56130000Y-133100000D01*
X56890000Y-130042929D02*
X56890000Y-130440000D01*
X56890000Y-133100000D02*
X56890000Y-139100000D01*
X56890000Y-139100000D02*
X56130000Y-139100000D01*
X57780000Y-130440000D02*
X57780000Y-133100000D01*
X58670000Y-130042929D02*
X58670000Y-130440000D01*
X58670000Y-139100000D02*
X58670000Y-133100000D01*
X59430000Y-130042929D02*
X59430000Y-130440000D01*
X59430000Y-133100000D02*
X59430000Y-139100000D01*
X59430000Y-139100000D02*
X58670000Y-139100000D01*
X60320000Y-130440000D02*
X60320000Y-133100000D01*
X61210000Y-130110000D02*
X61210000Y-130440000D01*
X61210000Y-139100000D02*
X61210000Y-133100000D01*
X61310000Y-133100000D02*
X61310000Y-139100000D01*
X61430000Y-133100000D02*
X61430000Y-139100000D01*
X61550000Y-133100000D02*
X61550000Y-139100000D01*
X61590000Y-127730000D02*
X62860000Y-127730000D01*
X61670000Y-133100000D02*
X61670000Y-139100000D01*
X61790000Y-133100000D02*
X61790000Y-139100000D01*
X61910000Y-133100000D02*
X61910000Y-139100000D01*
X61970000Y-130110000D02*
X61970000Y-130440000D01*
X61970000Y-133100000D02*
X61970000Y-139100000D01*
X61970000Y-139100000D02*
X61210000Y-139100000D01*
X62860000Y-127730000D02*
X62860000Y-129000000D01*
X62920000Y-130440000D02*
X47560000Y-130440000D01*
X62920000Y-133100000D02*
X62920000Y-130440000D01*
G04 #@! TO.C,D23*
X122700000Y-56930000D02*
X122700000Y-61170000D01*
X122700000Y-60330000D02*
X124940000Y-60330000D01*
X122700000Y-60450000D02*
X124940000Y-60450000D01*
X122700000Y-60570000D02*
X124940000Y-60570000D01*
X122700000Y-61170000D02*
X124940000Y-61170000D01*
X123820000Y-56280000D02*
X123820000Y-56930000D01*
X123820000Y-61820000D02*
X123820000Y-61170000D01*
X124940000Y-56930000D02*
X122700000Y-56930000D01*
X124940000Y-61170000D02*
X124940000Y-56930000D01*
G04 #@! TO.C,D49*
X49030000Y-107687500D02*
X49030000Y-111927500D01*
X49030000Y-111087500D02*
X51270000Y-111087500D01*
X49030000Y-111207500D02*
X51270000Y-111207500D01*
X49030000Y-111327500D02*
X51270000Y-111327500D01*
X49030000Y-111927500D02*
X51270000Y-111927500D01*
X50150000Y-107037500D02*
X50150000Y-107687500D01*
X50150000Y-112577500D02*
X50150000Y-111927500D01*
X51270000Y-107687500D02*
X49030000Y-107687500D01*
X51270000Y-111927500D02*
X51270000Y-107687500D01*
G04 #@! TO.C,D22*
X120160000Y-56930000D02*
X120160000Y-61170000D01*
X120160000Y-60330000D02*
X122400000Y-60330000D01*
X120160000Y-60450000D02*
X122400000Y-60450000D01*
X120160000Y-60570000D02*
X122400000Y-60570000D01*
X120160000Y-61170000D02*
X122400000Y-61170000D01*
X121280000Y-56280000D02*
X121280000Y-56930000D01*
X121280000Y-61820000D02*
X121280000Y-61170000D01*
X122400000Y-56930000D02*
X120160000Y-56930000D01*
X122400000Y-61170000D02*
X122400000Y-56930000D01*
G04 #@! TO.C,SW6*
X105910000Y-79480000D02*
X105910000Y-78096000D01*
X105910000Y-79480000D02*
X107293000Y-79480000D01*
X106150000Y-69340000D02*
X128771000Y-69340000D01*
X106150000Y-79240000D02*
X106150000Y-69340000D01*
X106150000Y-79240000D02*
X128771000Y-79240000D01*
X107935000Y-72260000D02*
X107935000Y-76320000D01*
X107935000Y-74966667D02*
X109205000Y-74966667D01*
X107935000Y-76320000D02*
X109205000Y-76320000D01*
X108055000Y-76320000D02*
X108055000Y-74966667D01*
X108175000Y-76320000D02*
X108175000Y-74966667D01*
X108295000Y-76320000D02*
X108295000Y-74966667D01*
X108415000Y-76320000D02*
X108415000Y-74966667D01*
X108535000Y-76320000D02*
X108535000Y-74966667D01*
X108655000Y-76320000D02*
X108655000Y-74966667D01*
X108775000Y-76320000D02*
X108775000Y-74966667D01*
X108895000Y-76320000D02*
X108895000Y-74966667D01*
X109015000Y-76320000D02*
X109015000Y-74966667D01*
X109135000Y-76320000D02*
X109135000Y-74966667D01*
X109205000Y-72260000D02*
X107935000Y-72260000D01*
X109205000Y-76320000D02*
X109205000Y-72260000D01*
X110475000Y-72260000D02*
X110475000Y-76320000D01*
X110475000Y-74966667D02*
X111745000Y-74966667D01*
X110475000Y-76320000D02*
X111745000Y-76320000D01*
X110595000Y-76320000D02*
X110595000Y-74966667D01*
X110715000Y-76320000D02*
X110715000Y-74966667D01*
X110835000Y-76320000D02*
X110835000Y-74966667D01*
X110955000Y-76320000D02*
X110955000Y-74966667D01*
X111075000Y-76320000D02*
X111075000Y-74966667D01*
X111195000Y-76320000D02*
X111195000Y-74966667D01*
X111315000Y-76320000D02*
X111315000Y-74966667D01*
X111435000Y-76320000D02*
X111435000Y-74966667D01*
X111555000Y-76320000D02*
X111555000Y-74966667D01*
X111675000Y-76320000D02*
X111675000Y-74966667D01*
X111745000Y-72260000D02*
X110475000Y-72260000D01*
X111745000Y-76320000D02*
X111745000Y-72260000D01*
X113015000Y-72260000D02*
X113015000Y-76320000D01*
X113015000Y-74966667D02*
X114285000Y-74966667D01*
X113015000Y-76320000D02*
X114285000Y-76320000D01*
X113135000Y-76320000D02*
X113135000Y-74966667D01*
X113255000Y-76320000D02*
X113255000Y-74966667D01*
X113375000Y-76320000D02*
X113375000Y-74966667D01*
X113495000Y-76320000D02*
X113495000Y-74966667D01*
X113615000Y-76320000D02*
X113615000Y-74966667D01*
X113735000Y-76320000D02*
X113735000Y-74966667D01*
X113855000Y-76320000D02*
X113855000Y-74966667D01*
X113975000Y-76320000D02*
X113975000Y-74966667D01*
X114095000Y-76320000D02*
X114095000Y-74966667D01*
X114215000Y-76320000D02*
X114215000Y-74966667D01*
X114285000Y-72260000D02*
X113015000Y-72260000D01*
X114285000Y-76320000D02*
X114285000Y-72260000D01*
X115555000Y-72260000D02*
X115555000Y-76320000D01*
X115555000Y-74966667D02*
X116825000Y-74966667D01*
X115555000Y-76320000D02*
X116825000Y-76320000D01*
X115675000Y-76320000D02*
X115675000Y-74966667D01*
X115795000Y-76320000D02*
X115795000Y-74966667D01*
X115915000Y-76320000D02*
X115915000Y-74966667D01*
X116035000Y-76320000D02*
X116035000Y-74966667D01*
X116155000Y-76320000D02*
X116155000Y-74966667D01*
X116275000Y-76320000D02*
X116275000Y-74966667D01*
X116395000Y-76320000D02*
X116395000Y-74966667D01*
X116515000Y-76320000D02*
X116515000Y-74966667D01*
X116635000Y-76320000D02*
X116635000Y-74966667D01*
X116755000Y-76320000D02*
X116755000Y-74966667D01*
X116825000Y-72260000D02*
X115555000Y-72260000D01*
X116825000Y-76320000D02*
X116825000Y-72260000D01*
X118095000Y-72260000D02*
X118095000Y-76320000D01*
X118095000Y-74966667D02*
X119365000Y-74966667D01*
X118095000Y-76320000D02*
X119365000Y-76320000D01*
X118215000Y-76320000D02*
X118215000Y-74966667D01*
X118335000Y-76320000D02*
X118335000Y-74966667D01*
X118455000Y-76320000D02*
X118455000Y-74966667D01*
X118575000Y-76320000D02*
X118575000Y-74966667D01*
X118695000Y-76320000D02*
X118695000Y-74966667D01*
X118815000Y-76320000D02*
X118815000Y-74966667D01*
X118935000Y-76320000D02*
X118935000Y-74966667D01*
X119055000Y-76320000D02*
X119055000Y-74966667D01*
X119175000Y-76320000D02*
X119175000Y-74966667D01*
X119295000Y-76320000D02*
X119295000Y-74966667D01*
X119365000Y-72260000D02*
X118095000Y-72260000D01*
X119365000Y-76320000D02*
X119365000Y-72260000D01*
X120635000Y-72260000D02*
X120635000Y-76320000D01*
X120635000Y-74966667D02*
X121905000Y-74966667D01*
X120635000Y-76320000D02*
X121905000Y-76320000D01*
X120755000Y-76320000D02*
X120755000Y-74966667D01*
X120875000Y-76320000D02*
X120875000Y-74966667D01*
X120995000Y-76320000D02*
X120995000Y-74966667D01*
X121115000Y-76320000D02*
X121115000Y-74966667D01*
X121235000Y-76320000D02*
X121235000Y-74966667D01*
X121355000Y-76320000D02*
X121355000Y-74966667D01*
X121475000Y-76320000D02*
X121475000Y-74966667D01*
X121595000Y-76320000D02*
X121595000Y-74966667D01*
X121715000Y-76320000D02*
X121715000Y-74966667D01*
X121835000Y-76320000D02*
X121835000Y-74966667D01*
X121905000Y-72260000D02*
X120635000Y-72260000D01*
X121905000Y-76320000D02*
X121905000Y-72260000D01*
X123175000Y-72260000D02*
X123175000Y-76320000D01*
X123175000Y-74966667D02*
X124445000Y-74966667D01*
X123175000Y-76320000D02*
X124445000Y-76320000D01*
X123295000Y-76320000D02*
X123295000Y-74966667D01*
X123415000Y-76320000D02*
X123415000Y-74966667D01*
X123535000Y-76320000D02*
X123535000Y-74966667D01*
X123655000Y-76320000D02*
X123655000Y-74966667D01*
X123775000Y-76320000D02*
X123775000Y-74966667D01*
X123895000Y-76320000D02*
X123895000Y-74966667D01*
X124015000Y-76320000D02*
X124015000Y-74966667D01*
X124135000Y-76320000D02*
X124135000Y-74966667D01*
X124255000Y-76320000D02*
X124255000Y-74966667D01*
X124375000Y-76320000D02*
X124375000Y-74966667D01*
X124445000Y-72260000D02*
X123175000Y-72260000D01*
X124445000Y-76320000D02*
X124445000Y-72260000D01*
X125715000Y-72260000D02*
X125715000Y-76320000D01*
X125715000Y-74966667D02*
X126985000Y-74966667D01*
X125715000Y-76320000D02*
X126985000Y-76320000D01*
X125835000Y-76320000D02*
X125835000Y-74966667D01*
X125955000Y-76320000D02*
X125955000Y-74966667D01*
X126075000Y-76320000D02*
X126075000Y-74966667D01*
X126195000Y-76320000D02*
X126195000Y-74966667D01*
X126315000Y-76320000D02*
X126315000Y-74966667D01*
X126435000Y-76320000D02*
X126435000Y-74966667D01*
X126555000Y-76320000D02*
X126555000Y-74966667D01*
X126675000Y-76320000D02*
X126675000Y-74966667D01*
X126795000Y-76320000D02*
X126795000Y-74966667D01*
X126915000Y-76320000D02*
X126915000Y-74966667D01*
X126985000Y-72260000D02*
X125715000Y-72260000D01*
X126985000Y-76320000D02*
X126985000Y-72260000D01*
X128771000Y-79240000D02*
X128771000Y-69340000D01*
G04 #@! TO.C,D44*
X115070000Y-82330000D02*
X115070000Y-86570000D01*
X115070000Y-85730000D02*
X117310000Y-85730000D01*
X115070000Y-85850000D02*
X117310000Y-85850000D01*
X115070000Y-85970000D02*
X117310000Y-85970000D01*
X115070000Y-86570000D02*
X117310000Y-86570000D01*
X116190000Y-81680000D02*
X116190000Y-82330000D01*
X116190000Y-87220000D02*
X116190000Y-86570000D01*
X117310000Y-82330000D02*
X115070000Y-82330000D01*
X117310000Y-86570000D02*
X117310000Y-82330000D01*
G04 #@! TO.C,D33*
X78240000Y-82330000D02*
X78240000Y-86570000D01*
X78240000Y-85730000D02*
X80480000Y-85730000D01*
X78240000Y-85850000D02*
X80480000Y-85850000D01*
X78240000Y-85970000D02*
X80480000Y-85970000D01*
X78240000Y-86570000D02*
X80480000Y-86570000D01*
X79360000Y-81680000D02*
X79360000Y-82330000D01*
X79360000Y-87220000D02*
X79360000Y-86570000D01*
X80480000Y-82330000D02*
X78240000Y-82330000D01*
X80480000Y-86570000D02*
X80480000Y-82330000D01*
G04 #@! TO.C,D72*
X77120000Y-112580000D02*
X77120000Y-112424000D01*
X77120000Y-114896000D02*
X77120000Y-114740000D01*
X73887665Y-112581392D02*
G75*
G02*
X77120000Y-112424484I1672335J-1078608D01*
G01*
X74518870Y-112580163D02*
G75*
G02*
X76600961Y-112580000I1041130J-1079837D01*
G01*
X76600961Y-114740000D02*
G75*
G02*
X74518870Y-114739837I-1040961J1080000D01*
G01*
X77120000Y-114895516D02*
G75*
G02*
X73887665Y-114738608I-1560000J1235516D01*
G01*
G04 #@! TO.C,D71*
X47910000Y-112580000D02*
X47910000Y-112424000D01*
X47910000Y-114896000D02*
X47910000Y-114740000D01*
X44677665Y-112581392D02*
G75*
G02*
X47910000Y-112424484I1672335J-1078608D01*
G01*
X45308870Y-112580163D02*
G75*
G02*
X47390961Y-112580000I1041130J-1079837D01*
G01*
X47390961Y-114740000D02*
G75*
G02*
X45308870Y-114739837I-1040961J1080000D01*
G01*
X47910000Y-114895516D02*
G75*
G02*
X44677665Y-114738608I-1560000J1235516D01*
G01*
G04 #@! TO.C,D14*
X90940000Y-56930000D02*
X90940000Y-61170000D01*
X90940000Y-60330000D02*
X93180000Y-60330000D01*
X90940000Y-60450000D02*
X93180000Y-60450000D01*
X90940000Y-60570000D02*
X93180000Y-60570000D01*
X90940000Y-61170000D02*
X93180000Y-61170000D01*
X92060000Y-56280000D02*
X92060000Y-56930000D01*
X92060000Y-61820000D02*
X92060000Y-61170000D01*
X93180000Y-56930000D02*
X90940000Y-56930000D01*
X93180000Y-61170000D02*
X93180000Y-56930000D01*
G04 #@! TO.C,D3*
X54120000Y-56930000D02*
X54120000Y-61170000D01*
X54120000Y-60330000D02*
X56360000Y-60330000D01*
X54120000Y-60450000D02*
X56360000Y-60450000D01*
X54120000Y-60570000D02*
X56360000Y-60570000D01*
X54120000Y-61170000D02*
X56360000Y-61170000D01*
X55240000Y-56280000D02*
X55240000Y-56930000D01*
X55240000Y-61820000D02*
X55240000Y-61170000D01*
X56360000Y-56930000D02*
X54120000Y-56930000D01*
X56360000Y-61170000D02*
X56360000Y-56930000D01*
G04 #@! TO.C,D65*
X47910000Y-61780000D02*
X47910000Y-61624000D01*
X47910000Y-64096000D02*
X47910000Y-63940000D01*
X44677665Y-61781392D02*
G75*
G02*
X47910000Y-61624484I1672335J-1078608D01*
G01*
X45308870Y-61780163D02*
G75*
G02*
X47390961Y-61780000I1041130J-1079837D01*
G01*
X47390961Y-63940000D02*
G75*
G02*
X45308870Y-63939837I-1040961J1080000D01*
G01*
X47910000Y-64095516D02*
G75*
G02*
X44677665Y-63938608I-1560000J1235516D01*
G01*
G04 #@! TO.C,SW2*
X76700000Y-54080000D02*
X76700000Y-52696000D01*
X76700000Y-54080000D02*
X78083000Y-54080000D01*
X76940000Y-43940000D02*
X99561000Y-43940000D01*
X76940000Y-53840000D02*
X76940000Y-43940000D01*
X76940000Y-53840000D02*
X99561000Y-53840000D01*
X78725000Y-46860000D02*
X78725000Y-50920000D01*
X78725000Y-49566667D02*
X79995000Y-49566667D01*
X78725000Y-50920000D02*
X79995000Y-50920000D01*
X78845000Y-50920000D02*
X78845000Y-49566667D01*
X78965000Y-50920000D02*
X78965000Y-49566667D01*
X79085000Y-50920000D02*
X79085000Y-49566667D01*
X79205000Y-50920000D02*
X79205000Y-49566667D01*
X79325000Y-50920000D02*
X79325000Y-49566667D01*
X79445000Y-50920000D02*
X79445000Y-49566667D01*
X79565000Y-50920000D02*
X79565000Y-49566667D01*
X79685000Y-50920000D02*
X79685000Y-49566667D01*
X79805000Y-50920000D02*
X79805000Y-49566667D01*
X79925000Y-50920000D02*
X79925000Y-49566667D01*
X79995000Y-46860000D02*
X78725000Y-46860000D01*
X79995000Y-50920000D02*
X79995000Y-46860000D01*
X81265000Y-46860000D02*
X81265000Y-50920000D01*
X81265000Y-49566667D02*
X82535000Y-49566667D01*
X81265000Y-50920000D02*
X82535000Y-50920000D01*
X81385000Y-50920000D02*
X81385000Y-49566667D01*
X81505000Y-50920000D02*
X81505000Y-49566667D01*
X81625000Y-50920000D02*
X81625000Y-49566667D01*
X81745000Y-50920000D02*
X81745000Y-49566667D01*
X81865000Y-50920000D02*
X81865000Y-49566667D01*
X81985000Y-50920000D02*
X81985000Y-49566667D01*
X82105000Y-50920000D02*
X82105000Y-49566667D01*
X82225000Y-50920000D02*
X82225000Y-49566667D01*
X82345000Y-50920000D02*
X82345000Y-49566667D01*
X82465000Y-50920000D02*
X82465000Y-49566667D01*
X82535000Y-46860000D02*
X81265000Y-46860000D01*
X82535000Y-50920000D02*
X82535000Y-46860000D01*
X83805000Y-46860000D02*
X83805000Y-50920000D01*
X83805000Y-49566667D02*
X85075000Y-49566667D01*
X83805000Y-50920000D02*
X85075000Y-50920000D01*
X83925000Y-50920000D02*
X83925000Y-49566667D01*
X84045000Y-50920000D02*
X84045000Y-49566667D01*
X84165000Y-50920000D02*
X84165000Y-49566667D01*
X84285000Y-50920000D02*
X84285000Y-49566667D01*
X84405000Y-50920000D02*
X84405000Y-49566667D01*
X84525000Y-50920000D02*
X84525000Y-49566667D01*
X84645000Y-50920000D02*
X84645000Y-49566667D01*
X84765000Y-50920000D02*
X84765000Y-49566667D01*
X84885000Y-50920000D02*
X84885000Y-49566667D01*
X85005000Y-50920000D02*
X85005000Y-49566667D01*
X85075000Y-46860000D02*
X83805000Y-46860000D01*
X85075000Y-50920000D02*
X85075000Y-46860000D01*
X86345000Y-46860000D02*
X86345000Y-50920000D01*
X86345000Y-49566667D02*
X87615000Y-49566667D01*
X86345000Y-50920000D02*
X87615000Y-50920000D01*
X86465000Y-50920000D02*
X86465000Y-49566667D01*
X86585000Y-50920000D02*
X86585000Y-49566667D01*
X86705000Y-50920000D02*
X86705000Y-49566667D01*
X86825000Y-50920000D02*
X86825000Y-49566667D01*
X86945000Y-50920000D02*
X86945000Y-49566667D01*
X87065000Y-50920000D02*
X87065000Y-49566667D01*
X87185000Y-50920000D02*
X87185000Y-49566667D01*
X87305000Y-50920000D02*
X87305000Y-49566667D01*
X87425000Y-50920000D02*
X87425000Y-49566667D01*
X87545000Y-50920000D02*
X87545000Y-49566667D01*
X87615000Y-46860000D02*
X86345000Y-46860000D01*
X87615000Y-50920000D02*
X87615000Y-46860000D01*
X88885000Y-46860000D02*
X88885000Y-50920000D01*
X88885000Y-49566667D02*
X90155000Y-49566667D01*
X88885000Y-50920000D02*
X90155000Y-50920000D01*
X89005000Y-50920000D02*
X89005000Y-49566667D01*
X89125000Y-50920000D02*
X89125000Y-49566667D01*
X89245000Y-50920000D02*
X89245000Y-49566667D01*
X89365000Y-50920000D02*
X89365000Y-49566667D01*
X89485000Y-50920000D02*
X89485000Y-49566667D01*
X89605000Y-50920000D02*
X89605000Y-49566667D01*
X89725000Y-50920000D02*
X89725000Y-49566667D01*
X89845000Y-50920000D02*
X89845000Y-49566667D01*
X89965000Y-50920000D02*
X89965000Y-49566667D01*
X90085000Y-50920000D02*
X90085000Y-49566667D01*
X90155000Y-46860000D02*
X88885000Y-46860000D01*
X90155000Y-50920000D02*
X90155000Y-46860000D01*
X91425000Y-46860000D02*
X91425000Y-50920000D01*
X91425000Y-49566667D02*
X92695000Y-49566667D01*
X91425000Y-50920000D02*
X92695000Y-50920000D01*
X91545000Y-50920000D02*
X91545000Y-49566667D01*
X91665000Y-50920000D02*
X91665000Y-49566667D01*
X91785000Y-50920000D02*
X91785000Y-49566667D01*
X91905000Y-50920000D02*
X91905000Y-49566667D01*
X92025000Y-50920000D02*
X92025000Y-49566667D01*
X92145000Y-50920000D02*
X92145000Y-49566667D01*
X92265000Y-50920000D02*
X92265000Y-49566667D01*
X92385000Y-50920000D02*
X92385000Y-49566667D01*
X92505000Y-50920000D02*
X92505000Y-49566667D01*
X92625000Y-50920000D02*
X92625000Y-49566667D01*
X92695000Y-46860000D02*
X91425000Y-46860000D01*
X92695000Y-50920000D02*
X92695000Y-46860000D01*
X93965000Y-46860000D02*
X93965000Y-50920000D01*
X93965000Y-49566667D02*
X95235000Y-49566667D01*
X93965000Y-50920000D02*
X95235000Y-50920000D01*
X94085000Y-50920000D02*
X94085000Y-49566667D01*
X94205000Y-50920000D02*
X94205000Y-49566667D01*
X94325000Y-50920000D02*
X94325000Y-49566667D01*
X94445000Y-50920000D02*
X94445000Y-49566667D01*
X94565000Y-50920000D02*
X94565000Y-49566667D01*
X94685000Y-50920000D02*
X94685000Y-49566667D01*
X94805000Y-50920000D02*
X94805000Y-49566667D01*
X94925000Y-50920000D02*
X94925000Y-49566667D01*
X95045000Y-50920000D02*
X95045000Y-49566667D01*
X95165000Y-50920000D02*
X95165000Y-49566667D01*
X95235000Y-46860000D02*
X93965000Y-46860000D01*
X95235000Y-50920000D02*
X95235000Y-46860000D01*
X96505000Y-46860000D02*
X96505000Y-50920000D01*
X96505000Y-49566667D02*
X97775000Y-49566667D01*
X96505000Y-50920000D02*
X97775000Y-50920000D01*
X96625000Y-50920000D02*
X96625000Y-49566667D01*
X96745000Y-50920000D02*
X96745000Y-49566667D01*
X96865000Y-50920000D02*
X96865000Y-49566667D01*
X96985000Y-50920000D02*
X96985000Y-49566667D01*
X97105000Y-50920000D02*
X97105000Y-49566667D01*
X97225000Y-50920000D02*
X97225000Y-49566667D01*
X97345000Y-50920000D02*
X97345000Y-49566667D01*
X97465000Y-50920000D02*
X97465000Y-49566667D01*
X97585000Y-50920000D02*
X97585000Y-49566667D01*
X97705000Y-50920000D02*
X97705000Y-49566667D01*
X97775000Y-46860000D02*
X96505000Y-46860000D01*
X97775000Y-50920000D02*
X97775000Y-46860000D01*
X99561000Y-53840000D02*
X99561000Y-43940000D01*
G04 #@! TO.C,D67*
X106330000Y-61780000D02*
X106330000Y-61624000D01*
X106330000Y-64096000D02*
X106330000Y-63940000D01*
X103097665Y-61781392D02*
G75*
G02*
X106330000Y-61624484I1672335J-1078608D01*
G01*
X103728870Y-61780163D02*
G75*
G02*
X105810961Y-61780000I1041130J-1079837D01*
G01*
X105810961Y-63940000D02*
G75*
G02*
X103728870Y-63939837I-1040961J1080000D01*
G01*
X106330000Y-64095516D02*
G75*
G02*
X103097665Y-63938608I-1560000J1235516D01*
G01*
G04 #@! TO.C,D28*
X56660000Y-82287500D02*
X56660000Y-86527500D01*
X56660000Y-85687500D02*
X58900000Y-85687500D01*
X56660000Y-85807500D02*
X58900000Y-85807500D01*
X56660000Y-85927500D02*
X58900000Y-85927500D01*
X56660000Y-86527500D02*
X58900000Y-86527500D01*
X57780000Y-81637500D02*
X57780000Y-82287500D01*
X57780000Y-87177500D02*
X57780000Y-86527500D01*
X58900000Y-82287500D02*
X56660000Y-82287500D01*
X58900000Y-86527500D02*
X58900000Y-82287500D01*
D13*
G04 #@! TO.C,U2*
X112656700Y-115412600D02*
X112656700Y-122067400D01*
X112656700Y-122067400D02*
X112821181Y-122067400D01*
X112821181Y-115412600D02*
X112656700Y-115412600D01*
X114498819Y-122067400D02*
X115361181Y-122067400D01*
X115361181Y-115412600D02*
X114498819Y-115412600D01*
X117038819Y-122067400D02*
X117901181Y-122067400D01*
X117901181Y-115412600D02*
X117038819Y-115412600D01*
X119578819Y-122067400D02*
X120441181Y-122067400D01*
X120441181Y-115412600D02*
X119578819Y-115412600D01*
X122118819Y-122067400D02*
X122981181Y-122067400D01*
X122981181Y-115412600D02*
X122118819Y-115412600D01*
X124658819Y-122067400D02*
X125521181Y-122067400D01*
X125521181Y-115412600D02*
X124658819Y-115412600D01*
X127198819Y-122067400D02*
X128061181Y-122067400D01*
X128061181Y-115412600D02*
X127198819Y-115412600D01*
X129738819Y-122067400D02*
X130601181Y-122067400D01*
X130601181Y-115412600D02*
X129738819Y-115412600D01*
X132278819Y-122067400D02*
X133141181Y-122067400D01*
X133141181Y-115412600D02*
X132278819Y-115412600D01*
X134818819Y-122067400D02*
X135681181Y-122067400D01*
X135681181Y-115412600D02*
X134818819Y-115412600D01*
X137358819Y-122067400D02*
X137523300Y-122067400D01*
X137523300Y-115412600D02*
X137358819Y-115412600D01*
X137523300Y-122067400D02*
X137523300Y-115412600D01*
D12*
G04 #@! TO.C,D4*
X56660000Y-56930000D02*
X56660000Y-61170000D01*
X56660000Y-60330000D02*
X58900000Y-60330000D01*
X56660000Y-60450000D02*
X58900000Y-60450000D01*
X56660000Y-60570000D02*
X58900000Y-60570000D01*
X56660000Y-61170000D02*
X58900000Y-61170000D01*
X57780000Y-56280000D02*
X57780000Y-56930000D01*
X57780000Y-61820000D02*
X57780000Y-61170000D01*
X58900000Y-56930000D02*
X56660000Y-56930000D01*
X58900000Y-61170000D02*
X58900000Y-56930000D01*
G04 #@! TO.C,D13*
X88400000Y-56930000D02*
X88400000Y-61170000D01*
X88400000Y-60330000D02*
X90640000Y-60330000D01*
X88400000Y-60450000D02*
X90640000Y-60450000D01*
X88400000Y-60570000D02*
X90640000Y-60570000D01*
X88400000Y-61170000D02*
X90640000Y-61170000D01*
X89520000Y-56280000D02*
X89520000Y-56930000D01*
X89520000Y-61820000D02*
X89520000Y-61170000D01*
X90640000Y-56930000D02*
X88400000Y-56930000D01*
X90640000Y-61170000D02*
X90640000Y-56930000D01*
G04 #@! TO.C,D10*
X80780000Y-56930000D02*
X80780000Y-61170000D01*
X80780000Y-60330000D02*
X83020000Y-60330000D01*
X80780000Y-60450000D02*
X83020000Y-60450000D01*
X80780000Y-60570000D02*
X83020000Y-60570000D01*
X80780000Y-61170000D02*
X83020000Y-61170000D01*
X81900000Y-56280000D02*
X81900000Y-56930000D01*
X81900000Y-61820000D02*
X81900000Y-61170000D01*
X83020000Y-56930000D02*
X80780000Y-56930000D01*
X83020000Y-61170000D02*
X83020000Y-56930000D01*
G04 #@! TO.C,D12*
X85860000Y-56930000D02*
X85860000Y-61170000D01*
X85860000Y-60330000D02*
X88100000Y-60330000D01*
X85860000Y-60450000D02*
X88100000Y-60450000D01*
X85860000Y-60570000D02*
X88100000Y-60570000D01*
X85860000Y-61170000D02*
X88100000Y-61170000D01*
X86980000Y-56280000D02*
X86980000Y-56930000D01*
X86980000Y-61820000D02*
X86980000Y-61170000D01*
X88100000Y-56930000D02*
X85860000Y-56930000D01*
X88100000Y-61170000D02*
X88100000Y-56930000D01*
G04 #@! TO.C,D51*
X54110000Y-107687500D02*
X54110000Y-111927500D01*
X54110000Y-111087500D02*
X56350000Y-111087500D01*
X54110000Y-111207500D02*
X56350000Y-111207500D01*
X54110000Y-111327500D02*
X56350000Y-111327500D01*
X54110000Y-111927500D02*
X56350000Y-111927500D01*
X55230000Y-107037500D02*
X55230000Y-107687500D01*
X55230000Y-112577500D02*
X55230000Y-111927500D01*
X56350000Y-107687500D02*
X54110000Y-107687500D01*
X56350000Y-111927500D02*
X56350000Y-107687500D01*
G04 #@! TO.C,D50*
X51570000Y-107687500D02*
X51570000Y-111927500D01*
X51570000Y-111087500D02*
X53810000Y-111087500D01*
X51570000Y-111207500D02*
X53810000Y-111207500D01*
X51570000Y-111327500D02*
X53810000Y-111327500D01*
X51570000Y-111927500D02*
X53810000Y-111927500D01*
X52690000Y-107037500D02*
X52690000Y-107687500D01*
X52690000Y-112577500D02*
X52690000Y-111927500D01*
X53810000Y-107687500D02*
X51570000Y-107687500D01*
X53810000Y-111927500D02*
X53810000Y-107687500D01*
G04 #@! TO.C,D31*
X64280000Y-82287500D02*
X64280000Y-86527500D01*
X64280000Y-85687500D02*
X66520000Y-85687500D01*
X64280000Y-85807500D02*
X66520000Y-85807500D01*
X64280000Y-85927500D02*
X66520000Y-85927500D01*
X64280000Y-86527500D02*
X66520000Y-86527500D01*
X65400000Y-81637500D02*
X65400000Y-82287500D01*
X65400000Y-87177500D02*
X65400000Y-86527500D01*
X66520000Y-82287500D02*
X64280000Y-82287500D01*
X66520000Y-86527500D02*
X66520000Y-82287500D01*
G04 #@! TO.C,R3*
X79270000Y-126900000D02*
X79270000Y-133440000D01*
X79270000Y-133440000D02*
X82010000Y-133440000D01*
X80640000Y-126130000D02*
X80640000Y-126900000D01*
X80640000Y-134210000D02*
X80640000Y-133440000D01*
X82010000Y-126900000D02*
X79270000Y-126900000D01*
X82010000Y-133440000D02*
X82010000Y-126900000D01*
G04 #@! TO.C,SW8*
X76710000Y-104880000D02*
X76710000Y-103496000D01*
X76710000Y-104880000D02*
X78093000Y-104880000D01*
X76950000Y-94740000D02*
X99571000Y-94740000D01*
X76950000Y-104640000D02*
X76950000Y-94740000D01*
X76950000Y-104640000D02*
X99571000Y-104640000D01*
X78735000Y-97660000D02*
X78735000Y-101720000D01*
X78735000Y-100366667D02*
X80005000Y-100366667D01*
X78735000Y-101720000D02*
X80005000Y-101720000D01*
X78855000Y-101720000D02*
X78855000Y-100366667D01*
X78975000Y-101720000D02*
X78975000Y-100366667D01*
X79095000Y-101720000D02*
X79095000Y-100366667D01*
X79215000Y-101720000D02*
X79215000Y-100366667D01*
X79335000Y-101720000D02*
X79335000Y-100366667D01*
X79455000Y-101720000D02*
X79455000Y-100366667D01*
X79575000Y-101720000D02*
X79575000Y-100366667D01*
X79695000Y-101720000D02*
X79695000Y-100366667D01*
X79815000Y-101720000D02*
X79815000Y-100366667D01*
X79935000Y-101720000D02*
X79935000Y-100366667D01*
X80005000Y-97660000D02*
X78735000Y-97660000D01*
X80005000Y-101720000D02*
X80005000Y-97660000D01*
X81275000Y-97660000D02*
X81275000Y-101720000D01*
X81275000Y-100366667D02*
X82545000Y-100366667D01*
X81275000Y-101720000D02*
X82545000Y-101720000D01*
X81395000Y-101720000D02*
X81395000Y-100366667D01*
X81515000Y-101720000D02*
X81515000Y-100366667D01*
X81635000Y-101720000D02*
X81635000Y-100366667D01*
X81755000Y-101720000D02*
X81755000Y-100366667D01*
X81875000Y-101720000D02*
X81875000Y-100366667D01*
X81995000Y-101720000D02*
X81995000Y-100366667D01*
X82115000Y-101720000D02*
X82115000Y-100366667D01*
X82235000Y-101720000D02*
X82235000Y-100366667D01*
X82355000Y-101720000D02*
X82355000Y-100366667D01*
X82475000Y-101720000D02*
X82475000Y-100366667D01*
X82545000Y-97660000D02*
X81275000Y-97660000D01*
X82545000Y-101720000D02*
X82545000Y-97660000D01*
X83815000Y-97660000D02*
X83815000Y-101720000D01*
X83815000Y-100366667D02*
X85085000Y-100366667D01*
X83815000Y-101720000D02*
X85085000Y-101720000D01*
X83935000Y-101720000D02*
X83935000Y-100366667D01*
X84055000Y-101720000D02*
X84055000Y-100366667D01*
X84175000Y-101720000D02*
X84175000Y-100366667D01*
X84295000Y-101720000D02*
X84295000Y-100366667D01*
X84415000Y-101720000D02*
X84415000Y-100366667D01*
X84535000Y-101720000D02*
X84535000Y-100366667D01*
X84655000Y-101720000D02*
X84655000Y-100366667D01*
X84775000Y-101720000D02*
X84775000Y-100366667D01*
X84895000Y-101720000D02*
X84895000Y-100366667D01*
X85015000Y-101720000D02*
X85015000Y-100366667D01*
X85085000Y-97660000D02*
X83815000Y-97660000D01*
X85085000Y-101720000D02*
X85085000Y-97660000D01*
X86355000Y-97660000D02*
X86355000Y-101720000D01*
X86355000Y-100366667D02*
X87625000Y-100366667D01*
X86355000Y-101720000D02*
X87625000Y-101720000D01*
X86475000Y-101720000D02*
X86475000Y-100366667D01*
X86595000Y-101720000D02*
X86595000Y-100366667D01*
X86715000Y-101720000D02*
X86715000Y-100366667D01*
X86835000Y-101720000D02*
X86835000Y-100366667D01*
X86955000Y-101720000D02*
X86955000Y-100366667D01*
X87075000Y-101720000D02*
X87075000Y-100366667D01*
X87195000Y-101720000D02*
X87195000Y-100366667D01*
X87315000Y-101720000D02*
X87315000Y-100366667D01*
X87435000Y-101720000D02*
X87435000Y-100366667D01*
X87555000Y-101720000D02*
X87555000Y-100366667D01*
X87625000Y-97660000D02*
X86355000Y-97660000D01*
X87625000Y-101720000D02*
X87625000Y-97660000D01*
X88895000Y-97660000D02*
X88895000Y-101720000D01*
X88895000Y-100366667D02*
X90165000Y-100366667D01*
X88895000Y-101720000D02*
X90165000Y-101720000D01*
X89015000Y-101720000D02*
X89015000Y-100366667D01*
X89135000Y-101720000D02*
X89135000Y-100366667D01*
X89255000Y-101720000D02*
X89255000Y-100366667D01*
X89375000Y-101720000D02*
X89375000Y-100366667D01*
X89495000Y-101720000D02*
X89495000Y-100366667D01*
X89615000Y-101720000D02*
X89615000Y-100366667D01*
X89735000Y-101720000D02*
X89735000Y-100366667D01*
X89855000Y-101720000D02*
X89855000Y-100366667D01*
X89975000Y-101720000D02*
X89975000Y-100366667D01*
X90095000Y-101720000D02*
X90095000Y-100366667D01*
X90165000Y-97660000D02*
X88895000Y-97660000D01*
X90165000Y-101720000D02*
X90165000Y-97660000D01*
X91435000Y-97660000D02*
X91435000Y-101720000D01*
X91435000Y-100366667D02*
X92705000Y-100366667D01*
X91435000Y-101720000D02*
X92705000Y-101720000D01*
X91555000Y-101720000D02*
X91555000Y-100366667D01*
X91675000Y-101720000D02*
X91675000Y-100366667D01*
X91795000Y-101720000D02*
X91795000Y-100366667D01*
X91915000Y-101720000D02*
X91915000Y-100366667D01*
X92035000Y-101720000D02*
X92035000Y-100366667D01*
X92155000Y-101720000D02*
X92155000Y-100366667D01*
X92275000Y-101720000D02*
X92275000Y-100366667D01*
X92395000Y-101720000D02*
X92395000Y-100366667D01*
X92515000Y-101720000D02*
X92515000Y-100366667D01*
X92635000Y-101720000D02*
X92635000Y-100366667D01*
X92705000Y-97660000D02*
X91435000Y-97660000D01*
X92705000Y-101720000D02*
X92705000Y-97660000D01*
X93975000Y-97660000D02*
X93975000Y-101720000D01*
X93975000Y-100366667D02*
X95245000Y-100366667D01*
X93975000Y-101720000D02*
X95245000Y-101720000D01*
X94095000Y-101720000D02*
X94095000Y-100366667D01*
X94215000Y-101720000D02*
X94215000Y-100366667D01*
X94335000Y-101720000D02*
X94335000Y-100366667D01*
X94455000Y-101720000D02*
X94455000Y-100366667D01*
X94575000Y-101720000D02*
X94575000Y-100366667D01*
X94695000Y-101720000D02*
X94695000Y-100366667D01*
X94815000Y-101720000D02*
X94815000Y-100366667D01*
X94935000Y-101720000D02*
X94935000Y-100366667D01*
X95055000Y-101720000D02*
X95055000Y-100366667D01*
X95175000Y-101720000D02*
X95175000Y-100366667D01*
X95245000Y-97660000D02*
X93975000Y-97660000D01*
X95245000Y-101720000D02*
X95245000Y-97660000D01*
X96515000Y-97660000D02*
X96515000Y-101720000D01*
X96515000Y-100366667D02*
X97785000Y-100366667D01*
X96515000Y-101720000D02*
X97785000Y-101720000D01*
X96635000Y-101720000D02*
X96635000Y-100366667D01*
X96755000Y-101720000D02*
X96755000Y-100366667D01*
X96875000Y-101720000D02*
X96875000Y-100366667D01*
X96995000Y-101720000D02*
X96995000Y-100366667D01*
X97115000Y-101720000D02*
X97115000Y-100366667D01*
X97235000Y-101720000D02*
X97235000Y-100366667D01*
X97355000Y-101720000D02*
X97355000Y-100366667D01*
X97475000Y-101720000D02*
X97475000Y-100366667D01*
X97595000Y-101720000D02*
X97595000Y-100366667D01*
X97715000Y-101720000D02*
X97715000Y-100366667D01*
X97785000Y-97660000D02*
X96515000Y-97660000D01*
X97785000Y-101720000D02*
X97785000Y-97660000D01*
X99571000Y-104640000D02*
X99571000Y-94740000D01*
G04 #@! TO.C,D40*
X96020000Y-82330000D02*
X96020000Y-86570000D01*
X96020000Y-85730000D02*
X98260000Y-85730000D01*
X96020000Y-85850000D02*
X98260000Y-85850000D01*
X96020000Y-85970000D02*
X98260000Y-85970000D01*
X96020000Y-86570000D02*
X98260000Y-86570000D01*
X97140000Y-81680000D02*
X97140000Y-82330000D01*
X97140000Y-87220000D02*
X97140000Y-86570000D01*
X98260000Y-82330000D02*
X96020000Y-82330000D01*
X98260000Y-86570000D02*
X98260000Y-82330000D01*
G04 #@! TO.C,SW7*
X47490000Y-104837500D02*
X47490000Y-103453500D01*
X47490000Y-104837500D02*
X48873000Y-104837500D01*
X47730000Y-94697500D02*
X70351000Y-94697500D01*
X47730000Y-104597500D02*
X47730000Y-94697500D01*
X47730000Y-104597500D02*
X70351000Y-104597500D01*
X49515000Y-97617500D02*
X49515000Y-101677500D01*
X49515000Y-100324167D02*
X50785000Y-100324167D01*
X49515000Y-101677500D02*
X50785000Y-101677500D01*
X49635000Y-101677500D02*
X49635000Y-100324167D01*
X49755000Y-101677500D02*
X49755000Y-100324167D01*
X49875000Y-101677500D02*
X49875000Y-100324167D01*
X49995000Y-101677500D02*
X49995000Y-100324167D01*
X50115000Y-101677500D02*
X50115000Y-100324167D01*
X50235000Y-101677500D02*
X50235000Y-100324167D01*
X50355000Y-101677500D02*
X50355000Y-100324167D01*
X50475000Y-101677500D02*
X50475000Y-100324167D01*
X50595000Y-101677500D02*
X50595000Y-100324167D01*
X50715000Y-101677500D02*
X50715000Y-100324167D01*
X50785000Y-97617500D02*
X49515000Y-97617500D01*
X50785000Y-101677500D02*
X50785000Y-97617500D01*
X52055000Y-97617500D02*
X52055000Y-101677500D01*
X52055000Y-100324167D02*
X53325000Y-100324167D01*
X52055000Y-101677500D02*
X53325000Y-101677500D01*
X52175000Y-101677500D02*
X52175000Y-100324167D01*
X52295000Y-101677500D02*
X52295000Y-100324167D01*
X52415000Y-101677500D02*
X52415000Y-100324167D01*
X52535000Y-101677500D02*
X52535000Y-100324167D01*
X52655000Y-101677500D02*
X52655000Y-100324167D01*
X52775000Y-101677500D02*
X52775000Y-100324167D01*
X52895000Y-101677500D02*
X52895000Y-100324167D01*
X53015000Y-101677500D02*
X53015000Y-100324167D01*
X53135000Y-101677500D02*
X53135000Y-100324167D01*
X53255000Y-101677500D02*
X53255000Y-100324167D01*
X53325000Y-97617500D02*
X52055000Y-97617500D01*
X53325000Y-101677500D02*
X53325000Y-97617500D01*
X54595000Y-97617500D02*
X54595000Y-101677500D01*
X54595000Y-100324167D02*
X55865000Y-100324167D01*
X54595000Y-101677500D02*
X55865000Y-101677500D01*
X54715000Y-101677500D02*
X54715000Y-100324167D01*
X54835000Y-101677500D02*
X54835000Y-100324167D01*
X54955000Y-101677500D02*
X54955000Y-100324167D01*
X55075000Y-101677500D02*
X55075000Y-100324167D01*
X55195000Y-101677500D02*
X55195000Y-100324167D01*
X55315000Y-101677500D02*
X55315000Y-100324167D01*
X55435000Y-101677500D02*
X55435000Y-100324167D01*
X55555000Y-101677500D02*
X55555000Y-100324167D01*
X55675000Y-101677500D02*
X55675000Y-100324167D01*
X55795000Y-101677500D02*
X55795000Y-100324167D01*
X55865000Y-97617500D02*
X54595000Y-97617500D01*
X55865000Y-101677500D02*
X55865000Y-97617500D01*
X57135000Y-97617500D02*
X57135000Y-101677500D01*
X57135000Y-100324167D02*
X58405000Y-100324167D01*
X57135000Y-101677500D02*
X58405000Y-101677500D01*
X57255000Y-101677500D02*
X57255000Y-100324167D01*
X57375000Y-101677500D02*
X57375000Y-100324167D01*
X57495000Y-101677500D02*
X57495000Y-100324167D01*
X57615000Y-101677500D02*
X57615000Y-100324167D01*
X57735000Y-101677500D02*
X57735000Y-100324167D01*
X57855000Y-101677500D02*
X57855000Y-100324167D01*
X57975000Y-101677500D02*
X57975000Y-100324167D01*
X58095000Y-101677500D02*
X58095000Y-100324167D01*
X58215000Y-101677500D02*
X58215000Y-100324167D01*
X58335000Y-101677500D02*
X58335000Y-100324167D01*
X58405000Y-97617500D02*
X57135000Y-97617500D01*
X58405000Y-101677500D02*
X58405000Y-97617500D01*
X59675000Y-97617500D02*
X59675000Y-101677500D01*
X59675000Y-100324167D02*
X60945000Y-100324167D01*
X59675000Y-101677500D02*
X60945000Y-101677500D01*
X59795000Y-101677500D02*
X59795000Y-100324167D01*
X59915000Y-101677500D02*
X59915000Y-100324167D01*
X60035000Y-101677500D02*
X60035000Y-100324167D01*
X60155000Y-101677500D02*
X60155000Y-100324167D01*
X60275000Y-101677500D02*
X60275000Y-100324167D01*
X60395000Y-101677500D02*
X60395000Y-100324167D01*
X60515000Y-101677500D02*
X60515000Y-100324167D01*
X60635000Y-101677500D02*
X60635000Y-100324167D01*
X60755000Y-101677500D02*
X60755000Y-100324167D01*
X60875000Y-101677500D02*
X60875000Y-100324167D01*
X60945000Y-97617500D02*
X59675000Y-97617500D01*
X60945000Y-101677500D02*
X60945000Y-97617500D01*
X62215000Y-97617500D02*
X62215000Y-101677500D01*
X62215000Y-100324167D02*
X63485000Y-100324167D01*
X62215000Y-101677500D02*
X63485000Y-101677500D01*
X62335000Y-101677500D02*
X62335000Y-100324167D01*
X62455000Y-101677500D02*
X62455000Y-100324167D01*
X62575000Y-101677500D02*
X62575000Y-100324167D01*
X62695000Y-101677500D02*
X62695000Y-100324167D01*
X62815000Y-101677500D02*
X62815000Y-100324167D01*
X62935000Y-101677500D02*
X62935000Y-100324167D01*
X63055000Y-101677500D02*
X63055000Y-100324167D01*
X63175000Y-101677500D02*
X63175000Y-100324167D01*
X63295000Y-101677500D02*
X63295000Y-100324167D01*
X63415000Y-101677500D02*
X63415000Y-100324167D01*
X63485000Y-97617500D02*
X62215000Y-97617500D01*
X63485000Y-101677500D02*
X63485000Y-97617500D01*
X64755000Y-97617500D02*
X64755000Y-101677500D01*
X64755000Y-100324167D02*
X66025000Y-100324167D01*
X64755000Y-101677500D02*
X66025000Y-101677500D01*
X64875000Y-101677500D02*
X64875000Y-100324167D01*
X64995000Y-101677500D02*
X64995000Y-100324167D01*
X65115000Y-101677500D02*
X65115000Y-100324167D01*
X65235000Y-101677500D02*
X65235000Y-100324167D01*
X65355000Y-101677500D02*
X65355000Y-100324167D01*
X65475000Y-101677500D02*
X65475000Y-100324167D01*
X65595000Y-101677500D02*
X65595000Y-100324167D01*
X65715000Y-101677500D02*
X65715000Y-100324167D01*
X65835000Y-101677500D02*
X65835000Y-100324167D01*
X65955000Y-101677500D02*
X65955000Y-100324167D01*
X66025000Y-97617500D02*
X64755000Y-97617500D01*
X66025000Y-101677500D02*
X66025000Y-97617500D01*
X67295000Y-97617500D02*
X67295000Y-101677500D01*
X67295000Y-100324167D02*
X68565000Y-100324167D01*
X67295000Y-101677500D02*
X68565000Y-101677500D01*
X67415000Y-101677500D02*
X67415000Y-100324167D01*
X67535000Y-101677500D02*
X67535000Y-100324167D01*
X67655000Y-101677500D02*
X67655000Y-100324167D01*
X67775000Y-101677500D02*
X67775000Y-100324167D01*
X67895000Y-101677500D02*
X67895000Y-100324167D01*
X68015000Y-101677500D02*
X68015000Y-100324167D01*
X68135000Y-101677500D02*
X68135000Y-100324167D01*
X68255000Y-101677500D02*
X68255000Y-100324167D01*
X68375000Y-101677500D02*
X68375000Y-100324167D01*
X68495000Y-101677500D02*
X68495000Y-100324167D01*
X68565000Y-97617500D02*
X67295000Y-97617500D01*
X68565000Y-101677500D02*
X68565000Y-97617500D01*
X70351000Y-104597500D02*
X70351000Y-94697500D01*
G04 #@! TO.C,D37*
X88400000Y-82330000D02*
X88400000Y-86570000D01*
X88400000Y-85730000D02*
X90640000Y-85730000D01*
X88400000Y-85850000D02*
X90640000Y-85850000D01*
X88400000Y-85970000D02*
X90640000Y-85970000D01*
X88400000Y-86570000D02*
X90640000Y-86570000D01*
X89520000Y-81680000D02*
X89520000Y-82330000D01*
X89520000Y-87220000D02*
X89520000Y-86570000D01*
X90640000Y-82330000D02*
X88400000Y-82330000D01*
X90640000Y-86570000D02*
X90640000Y-82330000D01*
G04 #@! TO.C,D30*
X61740000Y-82287500D02*
X61740000Y-86527500D01*
X61740000Y-85687500D02*
X63980000Y-85687500D01*
X61740000Y-85807500D02*
X63980000Y-85807500D01*
X61740000Y-85927500D02*
X63980000Y-85927500D01*
X61740000Y-86527500D02*
X63980000Y-86527500D01*
X62860000Y-81637500D02*
X62860000Y-82287500D01*
X62860000Y-87177500D02*
X62860000Y-86527500D01*
X63980000Y-82287500D02*
X61740000Y-82287500D01*
X63980000Y-86527500D02*
X63980000Y-82287500D01*
G04 #@! TO.C,R6*
X90700000Y-126900000D02*
X90700000Y-133440000D01*
X90700000Y-133440000D02*
X93440000Y-133440000D01*
X92070000Y-126130000D02*
X92070000Y-126900000D01*
X92070000Y-134210000D02*
X92070000Y-133440000D01*
X93440000Y-126900000D02*
X90700000Y-126900000D01*
X93440000Y-133440000D02*
X93440000Y-126900000D01*
G04 #@! TO.C,SW4*
X47500000Y-79437500D02*
X47500000Y-78053500D01*
X47500000Y-79437500D02*
X48883000Y-79437500D01*
X47740000Y-69297500D02*
X70361000Y-69297500D01*
X47740000Y-79197500D02*
X47740000Y-69297500D01*
X47740000Y-79197500D02*
X70361000Y-79197500D01*
X49525000Y-72217500D02*
X49525000Y-76277500D01*
X49525000Y-74924167D02*
X50795000Y-74924167D01*
X49525000Y-76277500D02*
X50795000Y-76277500D01*
X49645000Y-76277500D02*
X49645000Y-74924167D01*
X49765000Y-76277500D02*
X49765000Y-74924167D01*
X49885000Y-76277500D02*
X49885000Y-74924167D01*
X50005000Y-76277500D02*
X50005000Y-74924167D01*
X50125000Y-76277500D02*
X50125000Y-74924167D01*
X50245000Y-76277500D02*
X50245000Y-74924167D01*
X50365000Y-76277500D02*
X50365000Y-74924167D01*
X50485000Y-76277500D02*
X50485000Y-74924167D01*
X50605000Y-76277500D02*
X50605000Y-74924167D01*
X50725000Y-76277500D02*
X50725000Y-74924167D01*
X50795000Y-72217500D02*
X49525000Y-72217500D01*
X50795000Y-76277500D02*
X50795000Y-72217500D01*
X52065000Y-72217500D02*
X52065000Y-76277500D01*
X52065000Y-74924167D02*
X53335000Y-74924167D01*
X52065000Y-76277500D02*
X53335000Y-76277500D01*
X52185000Y-76277500D02*
X52185000Y-74924167D01*
X52305000Y-76277500D02*
X52305000Y-74924167D01*
X52425000Y-76277500D02*
X52425000Y-74924167D01*
X52545000Y-76277500D02*
X52545000Y-74924167D01*
X52665000Y-76277500D02*
X52665000Y-74924167D01*
X52785000Y-76277500D02*
X52785000Y-74924167D01*
X52905000Y-76277500D02*
X52905000Y-74924167D01*
X53025000Y-76277500D02*
X53025000Y-74924167D01*
X53145000Y-76277500D02*
X53145000Y-74924167D01*
X53265000Y-76277500D02*
X53265000Y-74924167D01*
X53335000Y-72217500D02*
X52065000Y-72217500D01*
X53335000Y-76277500D02*
X53335000Y-72217500D01*
X54605000Y-72217500D02*
X54605000Y-76277500D01*
X54605000Y-74924167D02*
X55875000Y-74924167D01*
X54605000Y-76277500D02*
X55875000Y-76277500D01*
X54725000Y-76277500D02*
X54725000Y-74924167D01*
X54845000Y-76277500D02*
X54845000Y-74924167D01*
X54965000Y-76277500D02*
X54965000Y-74924167D01*
X55085000Y-76277500D02*
X55085000Y-74924167D01*
X55205000Y-76277500D02*
X55205000Y-74924167D01*
X55325000Y-76277500D02*
X55325000Y-74924167D01*
X55445000Y-76277500D02*
X55445000Y-74924167D01*
X55565000Y-76277500D02*
X55565000Y-74924167D01*
X55685000Y-76277500D02*
X55685000Y-74924167D01*
X55805000Y-76277500D02*
X55805000Y-74924167D01*
X55875000Y-72217500D02*
X54605000Y-72217500D01*
X55875000Y-76277500D02*
X55875000Y-72217500D01*
X57145000Y-72217500D02*
X57145000Y-76277500D01*
X57145000Y-74924167D02*
X58415000Y-74924167D01*
X57145000Y-76277500D02*
X58415000Y-76277500D01*
X57265000Y-76277500D02*
X57265000Y-74924167D01*
X57385000Y-76277500D02*
X57385000Y-74924167D01*
X57505000Y-76277500D02*
X57505000Y-74924167D01*
X57625000Y-76277500D02*
X57625000Y-74924167D01*
X57745000Y-76277500D02*
X57745000Y-74924167D01*
X57865000Y-76277500D02*
X57865000Y-74924167D01*
X57985000Y-76277500D02*
X57985000Y-74924167D01*
X58105000Y-76277500D02*
X58105000Y-74924167D01*
X58225000Y-76277500D02*
X58225000Y-74924167D01*
X58345000Y-76277500D02*
X58345000Y-74924167D01*
X58415000Y-72217500D02*
X57145000Y-72217500D01*
X58415000Y-76277500D02*
X58415000Y-72217500D01*
X59685000Y-72217500D02*
X59685000Y-76277500D01*
X59685000Y-74924167D02*
X60955000Y-74924167D01*
X59685000Y-76277500D02*
X60955000Y-76277500D01*
X59805000Y-76277500D02*
X59805000Y-74924167D01*
X59925000Y-76277500D02*
X59925000Y-74924167D01*
X60045000Y-76277500D02*
X60045000Y-74924167D01*
X60165000Y-76277500D02*
X60165000Y-74924167D01*
X60285000Y-76277500D02*
X60285000Y-74924167D01*
X60405000Y-76277500D02*
X60405000Y-74924167D01*
X60525000Y-76277500D02*
X60525000Y-74924167D01*
X60645000Y-76277500D02*
X60645000Y-74924167D01*
X60765000Y-76277500D02*
X60765000Y-74924167D01*
X60885000Y-76277500D02*
X60885000Y-74924167D01*
X60955000Y-72217500D02*
X59685000Y-72217500D01*
X60955000Y-76277500D02*
X60955000Y-72217500D01*
X62225000Y-72217500D02*
X62225000Y-76277500D01*
X62225000Y-74924167D02*
X63495000Y-74924167D01*
X62225000Y-76277500D02*
X63495000Y-76277500D01*
X62345000Y-76277500D02*
X62345000Y-74924167D01*
X62465000Y-76277500D02*
X62465000Y-74924167D01*
X62585000Y-76277500D02*
X62585000Y-74924167D01*
X62705000Y-76277500D02*
X62705000Y-74924167D01*
X62825000Y-76277500D02*
X62825000Y-74924167D01*
X62945000Y-76277500D02*
X62945000Y-74924167D01*
X63065000Y-76277500D02*
X63065000Y-74924167D01*
X63185000Y-76277500D02*
X63185000Y-74924167D01*
X63305000Y-76277500D02*
X63305000Y-74924167D01*
X63425000Y-76277500D02*
X63425000Y-74924167D01*
X63495000Y-72217500D02*
X62225000Y-72217500D01*
X63495000Y-76277500D02*
X63495000Y-72217500D01*
X64765000Y-72217500D02*
X64765000Y-76277500D01*
X64765000Y-74924167D02*
X66035000Y-74924167D01*
X64765000Y-76277500D02*
X66035000Y-76277500D01*
X64885000Y-76277500D02*
X64885000Y-74924167D01*
X65005000Y-76277500D02*
X65005000Y-74924167D01*
X65125000Y-76277500D02*
X65125000Y-74924167D01*
X65245000Y-76277500D02*
X65245000Y-74924167D01*
X65365000Y-76277500D02*
X65365000Y-74924167D01*
X65485000Y-76277500D02*
X65485000Y-74924167D01*
X65605000Y-76277500D02*
X65605000Y-74924167D01*
X65725000Y-76277500D02*
X65725000Y-74924167D01*
X65845000Y-76277500D02*
X65845000Y-74924167D01*
X65965000Y-76277500D02*
X65965000Y-74924167D01*
X66035000Y-72217500D02*
X64765000Y-72217500D01*
X66035000Y-76277500D02*
X66035000Y-72217500D01*
X67305000Y-72217500D02*
X67305000Y-76277500D01*
X67305000Y-74924167D02*
X68575000Y-74924167D01*
X67305000Y-76277500D02*
X68575000Y-76277500D01*
X67425000Y-76277500D02*
X67425000Y-74924167D01*
X67545000Y-76277500D02*
X67545000Y-74924167D01*
X67665000Y-76277500D02*
X67665000Y-74924167D01*
X67785000Y-76277500D02*
X67785000Y-74924167D01*
X67905000Y-76277500D02*
X67905000Y-74924167D01*
X68025000Y-76277500D02*
X68025000Y-74924167D01*
X68145000Y-76277500D02*
X68145000Y-74924167D01*
X68265000Y-76277500D02*
X68265000Y-74924167D01*
X68385000Y-76277500D02*
X68385000Y-74924167D01*
X68505000Y-76277500D02*
X68505000Y-74924167D01*
X68575000Y-72217500D02*
X67305000Y-72217500D01*
X68575000Y-76277500D02*
X68575000Y-72217500D01*
X70361000Y-79197500D02*
X70361000Y-69297500D01*
G04 #@! TO.C,D17*
X107460000Y-56980000D02*
X107460000Y-61220000D01*
X107460000Y-60380000D02*
X109700000Y-60380000D01*
X107460000Y-60500000D02*
X109700000Y-60500000D01*
X107460000Y-60620000D02*
X109700000Y-60620000D01*
X107460000Y-61220000D02*
X109700000Y-61220000D01*
X108580000Y-56330000D02*
X108580000Y-56980000D01*
X108580000Y-61870000D02*
X108580000Y-61220000D01*
X109700000Y-56980000D02*
X107460000Y-56980000D01*
X109700000Y-61220000D02*
X109700000Y-56980000D01*
G04 #@! TO.C,R1*
X71650000Y-126900000D02*
X71650000Y-133440000D01*
X71650000Y-133440000D02*
X74390000Y-133440000D01*
X73020000Y-126130000D02*
X73020000Y-126900000D01*
X73020000Y-134210000D02*
X73020000Y-133440000D01*
X74390000Y-126900000D02*
X71650000Y-126900000D01*
X74390000Y-133440000D02*
X74390000Y-126900000D01*
G04 #@! TO.C,D55*
X64270000Y-107687500D02*
X64270000Y-111927500D01*
X64270000Y-111087500D02*
X66510000Y-111087500D01*
X64270000Y-111207500D02*
X66510000Y-111207500D01*
X64270000Y-111327500D02*
X66510000Y-111327500D01*
X64270000Y-111927500D02*
X66510000Y-111927500D01*
X65390000Y-107037500D02*
X65390000Y-107687500D01*
X65390000Y-112577500D02*
X65390000Y-111927500D01*
X66510000Y-107687500D02*
X64270000Y-107687500D01*
X66510000Y-111927500D02*
X66510000Y-107687500D01*
G04 #@! TO.C,D1*
X49040000Y-56930000D02*
X49040000Y-61170000D01*
X49040000Y-60330000D02*
X51280000Y-60330000D01*
X49040000Y-60450000D02*
X51280000Y-60450000D01*
X49040000Y-60570000D02*
X51280000Y-60570000D01*
X49040000Y-61170000D02*
X51280000Y-61170000D01*
X50160000Y-56280000D02*
X50160000Y-56930000D01*
X50160000Y-61820000D02*
X50160000Y-61170000D01*
X51280000Y-56930000D02*
X49040000Y-56930000D01*
X51280000Y-61170000D02*
X51280000Y-56930000D01*
G04 #@! TO.C,D7*
X64280000Y-56930000D02*
X64280000Y-61170000D01*
X64280000Y-60330000D02*
X66520000Y-60330000D01*
X64280000Y-60450000D02*
X66520000Y-60450000D01*
X64280000Y-60570000D02*
X66520000Y-60570000D01*
X64280000Y-61170000D02*
X66520000Y-61170000D01*
X65400000Y-56280000D02*
X65400000Y-56930000D01*
X65400000Y-61820000D02*
X65400000Y-61170000D01*
X66520000Y-56930000D02*
X64280000Y-56930000D01*
X66520000Y-61170000D02*
X66520000Y-56930000D01*
G04 #@! TO.C,D5*
X59200000Y-56930000D02*
X59200000Y-61170000D01*
X59200000Y-60330000D02*
X61440000Y-60330000D01*
X59200000Y-60450000D02*
X61440000Y-60450000D01*
X59200000Y-60570000D02*
X61440000Y-60570000D01*
X59200000Y-61170000D02*
X61440000Y-61170000D01*
X60320000Y-56280000D02*
X60320000Y-56930000D01*
X60320000Y-61820000D02*
X60320000Y-61170000D01*
X61440000Y-56930000D02*
X59200000Y-56930000D01*
X61440000Y-61170000D02*
X61440000Y-56930000D01*
G04 #@! TO.C,D59*
X83330000Y-107730000D02*
X83330000Y-111970000D01*
X83330000Y-111130000D02*
X85570000Y-111130000D01*
X83330000Y-111250000D02*
X85570000Y-111250000D01*
X83330000Y-111370000D02*
X85570000Y-111370000D01*
X83330000Y-111970000D02*
X85570000Y-111970000D01*
X84450000Y-107080000D02*
X84450000Y-107730000D01*
X84450000Y-112620000D02*
X84450000Y-111970000D01*
X85570000Y-107730000D02*
X83330000Y-107730000D01*
X85570000Y-111970000D02*
X85570000Y-107730000D01*
G04 #@! TO.C,D39*
X93480000Y-82330000D02*
X93480000Y-86570000D01*
X93480000Y-85730000D02*
X95720000Y-85730000D01*
X93480000Y-85850000D02*
X95720000Y-85850000D01*
X93480000Y-85970000D02*
X95720000Y-85970000D01*
X93480000Y-86570000D02*
X95720000Y-86570000D01*
X94600000Y-81680000D02*
X94600000Y-82330000D01*
X94600000Y-87220000D02*
X94600000Y-86570000D01*
X95720000Y-82330000D02*
X93480000Y-82330000D01*
X95720000Y-86570000D02*
X95720000Y-82330000D01*
G04 #@! TO.C,D26*
X51580000Y-82287500D02*
X51580000Y-86527500D01*
X51580000Y-85687500D02*
X53820000Y-85687500D01*
X51580000Y-85807500D02*
X53820000Y-85807500D01*
X51580000Y-85927500D02*
X53820000Y-85927500D01*
X51580000Y-86527500D02*
X53820000Y-86527500D01*
X52700000Y-81637500D02*
X52700000Y-82287500D01*
X52700000Y-87177500D02*
X52700000Y-86527500D01*
X53820000Y-82287500D02*
X51580000Y-82287500D01*
X53820000Y-86527500D02*
X53820000Y-82287500D01*
G04 #@! TO.C,D11*
X83320000Y-56930000D02*
X83320000Y-61170000D01*
X83320000Y-60330000D02*
X85560000Y-60330000D01*
X83320000Y-60450000D02*
X85560000Y-60450000D01*
X83320000Y-60570000D02*
X85560000Y-60570000D01*
X83320000Y-61170000D02*
X85560000Y-61170000D01*
X84440000Y-56280000D02*
X84440000Y-56930000D01*
X84440000Y-61820000D02*
X84440000Y-61170000D01*
X85560000Y-56930000D02*
X83320000Y-56930000D01*
X85560000Y-61170000D02*
X85560000Y-56930000D01*
G04 #@! TO.C,D27*
X54120000Y-82287500D02*
X54120000Y-86527500D01*
X54120000Y-85687500D02*
X56360000Y-85687500D01*
X54120000Y-85807500D02*
X56360000Y-85807500D01*
X54120000Y-85927500D02*
X56360000Y-85927500D01*
X54120000Y-86527500D02*
X56360000Y-86527500D01*
X55240000Y-81637500D02*
X55240000Y-82287500D01*
X55240000Y-87177500D02*
X55240000Y-86527500D01*
X56360000Y-82287500D02*
X54120000Y-82287500D01*
X56360000Y-86527500D02*
X56360000Y-82287500D01*
G04 #@! TO.C,D63*
X93490000Y-107730000D02*
X93490000Y-111970000D01*
X93490000Y-111130000D02*
X95730000Y-111130000D01*
X93490000Y-111250000D02*
X95730000Y-111250000D01*
X93490000Y-111370000D02*
X95730000Y-111370000D01*
X93490000Y-111970000D02*
X95730000Y-111970000D01*
X94610000Y-107080000D02*
X94610000Y-107730000D01*
X94610000Y-112620000D02*
X94610000Y-111970000D01*
X95730000Y-107730000D02*
X93490000Y-107730000D01*
X95730000Y-111970000D02*
X95730000Y-107730000D01*
G04 #@! TO.C,D9*
X78240000Y-56930000D02*
X78240000Y-61170000D01*
X78240000Y-60330000D02*
X80480000Y-60330000D01*
X78240000Y-60450000D02*
X80480000Y-60450000D01*
X78240000Y-60570000D02*
X80480000Y-60570000D01*
X78240000Y-61170000D02*
X80480000Y-61170000D01*
X79360000Y-56280000D02*
X79360000Y-56930000D01*
X79360000Y-61820000D02*
X79360000Y-61170000D01*
X80480000Y-56930000D02*
X78240000Y-56930000D01*
X80480000Y-61170000D02*
X80480000Y-56930000D01*
G04 #@! TO.C,D38*
X90940000Y-82330000D02*
X90940000Y-86570000D01*
X90940000Y-85730000D02*
X93180000Y-85730000D01*
X90940000Y-85850000D02*
X93180000Y-85850000D01*
X90940000Y-85970000D02*
X93180000Y-85970000D01*
X90940000Y-86570000D02*
X93180000Y-86570000D01*
X92060000Y-81680000D02*
X92060000Y-82330000D01*
X92060000Y-87220000D02*
X92060000Y-86570000D01*
X93180000Y-82330000D02*
X90940000Y-82330000D01*
X93180000Y-86570000D02*
X93180000Y-82330000D01*
G04 #@! TO.C,D62*
X90950000Y-107730000D02*
X90950000Y-111970000D01*
X90950000Y-111130000D02*
X93190000Y-111130000D01*
X90950000Y-111250000D02*
X93190000Y-111250000D01*
X90950000Y-111370000D02*
X93190000Y-111370000D01*
X90950000Y-111970000D02*
X93190000Y-111970000D01*
X92070000Y-107080000D02*
X92070000Y-107730000D01*
X92070000Y-112620000D02*
X92070000Y-111970000D01*
X93190000Y-107730000D02*
X90950000Y-107730000D01*
X93190000Y-111970000D02*
X93190000Y-107730000D01*
G04 #@! TO.C,D25*
X49040000Y-82287500D02*
X49040000Y-86527500D01*
X49040000Y-85687500D02*
X51280000Y-85687500D01*
X49040000Y-85807500D02*
X51280000Y-85807500D01*
X49040000Y-85927500D02*
X51280000Y-85927500D01*
X49040000Y-86527500D02*
X51280000Y-86527500D01*
X50160000Y-81637500D02*
X50160000Y-82287500D01*
X50160000Y-87177500D02*
X50160000Y-86527500D01*
X51280000Y-82287500D02*
X49040000Y-82287500D01*
X51280000Y-86527500D02*
X51280000Y-82287500D01*
G04 #@! TO.C,J2*
X112330000Y-130440000D02*
X112330000Y-133100000D01*
X112330000Y-133100000D02*
X132770000Y-133100000D01*
X113280000Y-130042929D02*
X113280000Y-130440000D01*
X113280000Y-139100000D02*
X113280000Y-133100000D01*
X114040000Y-130042929D02*
X114040000Y-130440000D01*
X114040000Y-133100000D02*
X114040000Y-139100000D01*
X114040000Y-139100000D02*
X113280000Y-139100000D01*
X114930000Y-130440000D02*
X114930000Y-133100000D01*
X115820000Y-130042929D02*
X115820000Y-130440000D01*
X115820000Y-139100000D02*
X115820000Y-133100000D01*
X116580000Y-130042929D02*
X116580000Y-130440000D01*
X116580000Y-133100000D02*
X116580000Y-139100000D01*
X116580000Y-139100000D02*
X115820000Y-139100000D01*
X117470000Y-130440000D02*
X117470000Y-133100000D01*
X118360000Y-130042929D02*
X118360000Y-130440000D01*
X118360000Y-139100000D02*
X118360000Y-133100000D01*
X119120000Y-130042929D02*
X119120000Y-130440000D01*
X119120000Y-133100000D02*
X119120000Y-139100000D01*
X119120000Y-139100000D02*
X118360000Y-139100000D01*
X120010000Y-130440000D02*
X120010000Y-133100000D01*
X120900000Y-130042929D02*
X120900000Y-130440000D01*
X120900000Y-139100000D02*
X120900000Y-133100000D01*
X121660000Y-130042929D02*
X121660000Y-130440000D01*
X121660000Y-133100000D02*
X121660000Y-139100000D01*
X121660000Y-139100000D02*
X120900000Y-139100000D01*
X122550000Y-130440000D02*
X122550000Y-133100000D01*
X123440000Y-130042929D02*
X123440000Y-130440000D01*
X123440000Y-139100000D02*
X123440000Y-133100000D01*
X124200000Y-130042929D02*
X124200000Y-130440000D01*
X124200000Y-133100000D02*
X124200000Y-139100000D01*
X124200000Y-139100000D02*
X123440000Y-139100000D01*
X125090000Y-130440000D02*
X125090000Y-133100000D01*
X125980000Y-130042929D02*
X125980000Y-130440000D01*
X125980000Y-139100000D02*
X125980000Y-133100000D01*
X126740000Y-130042929D02*
X126740000Y-130440000D01*
X126740000Y-133100000D02*
X126740000Y-139100000D01*
X126740000Y-139100000D02*
X125980000Y-139100000D01*
X127630000Y-130440000D02*
X127630000Y-133100000D01*
X128520000Y-130042929D02*
X128520000Y-130440000D01*
X128520000Y-139100000D02*
X128520000Y-133100000D01*
X129280000Y-130042929D02*
X129280000Y-130440000D01*
X129280000Y-133100000D02*
X129280000Y-139100000D01*
X129280000Y-139100000D02*
X128520000Y-139100000D01*
X130170000Y-130440000D02*
X130170000Y-133100000D01*
X131060000Y-130110000D02*
X131060000Y-130440000D01*
X131060000Y-139100000D02*
X131060000Y-133100000D01*
X131160000Y-133100000D02*
X131160000Y-139100000D01*
X131280000Y-133100000D02*
X131280000Y-139100000D01*
X131400000Y-133100000D02*
X131400000Y-139100000D01*
X131440000Y-127730000D02*
X132710000Y-127730000D01*
X131520000Y-133100000D02*
X131520000Y-139100000D01*
X131640000Y-133100000D02*
X131640000Y-139100000D01*
X131760000Y-133100000D02*
X131760000Y-139100000D01*
X131820000Y-130110000D02*
X131820000Y-130440000D01*
X131820000Y-133100000D02*
X131820000Y-139100000D01*
X131820000Y-139100000D02*
X131060000Y-139100000D01*
X132710000Y-127730000D02*
X132710000Y-129000000D01*
X132770000Y-130440000D02*
X112330000Y-130440000D01*
X132770000Y-133100000D02*
X132770000Y-130440000D01*
G04 #@! TO.C,D45*
X117610000Y-82330000D02*
X117610000Y-86570000D01*
X117610000Y-85730000D02*
X119850000Y-85730000D01*
X117610000Y-85850000D02*
X119850000Y-85850000D01*
X117610000Y-85970000D02*
X119850000Y-85970000D01*
X117610000Y-86570000D02*
X119850000Y-86570000D01*
X118730000Y-81680000D02*
X118730000Y-82330000D01*
X118730000Y-87220000D02*
X118730000Y-86570000D01*
X119850000Y-82330000D02*
X117610000Y-82330000D01*
X119850000Y-86570000D02*
X119850000Y-82330000D01*
G04 #@! TO.C,D70*
X106330000Y-87180000D02*
X106330000Y-87024000D01*
X106330000Y-89496000D02*
X106330000Y-89340000D01*
X103097665Y-87181392D02*
G75*
G02*
X106330000Y-87024484I1672335J-1078608D01*
G01*
X103728870Y-87180163D02*
G75*
G02*
X105810961Y-87180000I1041130J-1079837D01*
G01*
X105810961Y-89340000D02*
G75*
G02*
X103728870Y-89339837I-1040961J1080000D01*
G01*
X106330000Y-89495516D02*
G75*
G02*
X103097665Y-89338608I-1560000J1235516D01*
G01*
G04 #@! TO.C,D66*
X77120000Y-61780000D02*
X77120000Y-61624000D01*
X77120000Y-64096000D02*
X77120000Y-63940000D01*
X73887665Y-61781392D02*
G75*
G02*
X77120000Y-61624484I1672335J-1078608D01*
G01*
X74518870Y-61780163D02*
G75*
G02*
X76600961Y-61780000I1041130J-1079837D01*
G01*
X76600961Y-63940000D02*
G75*
G02*
X74518870Y-63939837I-1040961J1080000D01*
G01*
X77120000Y-64095516D02*
G75*
G02*
X73887665Y-63938608I-1560000J1235516D01*
G01*
G04 #@! TO.C,D47*
X122690000Y-82330000D02*
X122690000Y-86570000D01*
X122690000Y-85730000D02*
X124930000Y-85730000D01*
X122690000Y-85850000D02*
X124930000Y-85850000D01*
X122690000Y-85970000D02*
X124930000Y-85970000D01*
X122690000Y-86570000D02*
X124930000Y-86570000D01*
X123810000Y-81680000D02*
X123810000Y-82330000D01*
X123810000Y-87220000D02*
X123810000Y-86570000D01*
X124930000Y-82330000D02*
X122690000Y-82330000D01*
X124930000Y-86570000D02*
X124930000Y-82330000D01*
G04 #@! TO.C,D16*
X96020000Y-56930000D02*
X96020000Y-61170000D01*
X96020000Y-60330000D02*
X98260000Y-60330000D01*
X96020000Y-60450000D02*
X98260000Y-60450000D01*
X96020000Y-60570000D02*
X98260000Y-60570000D01*
X96020000Y-61170000D02*
X98260000Y-61170000D01*
X97140000Y-56280000D02*
X97140000Y-56930000D01*
X97140000Y-61820000D02*
X97140000Y-61170000D01*
X98260000Y-56930000D02*
X96020000Y-56930000D01*
X98260000Y-61170000D02*
X98260000Y-56930000D01*
G04 #@! TO.C,D52*
X56650000Y-107687500D02*
X56650000Y-111927500D01*
X56650000Y-111087500D02*
X58890000Y-111087500D01*
X56650000Y-111207500D02*
X58890000Y-111207500D01*
X56650000Y-111327500D02*
X58890000Y-111327500D01*
X56650000Y-111927500D02*
X58890000Y-111927500D01*
X57770000Y-107037500D02*
X57770000Y-107687500D01*
X57770000Y-112577500D02*
X57770000Y-111927500D01*
X58890000Y-107687500D02*
X56650000Y-107687500D01*
X58890000Y-111927500D02*
X58890000Y-107687500D01*
G04 #@! TO.C,D15*
X93450000Y-56930000D02*
X93450000Y-61170000D01*
X93450000Y-60330000D02*
X95690000Y-60330000D01*
X93450000Y-60450000D02*
X95690000Y-60450000D01*
X93450000Y-60570000D02*
X95690000Y-60570000D01*
X93450000Y-61170000D02*
X95690000Y-61170000D01*
X94570000Y-56280000D02*
X94570000Y-56930000D01*
X94570000Y-61820000D02*
X94570000Y-61170000D01*
X95690000Y-56930000D02*
X93450000Y-56930000D01*
X95690000Y-61170000D02*
X95690000Y-56930000D01*
G04 #@! TO.C,D56*
X66810000Y-107687500D02*
X66810000Y-111927500D01*
X66810000Y-111087500D02*
X69050000Y-111087500D01*
X66810000Y-111207500D02*
X69050000Y-111207500D01*
X66810000Y-111327500D02*
X69050000Y-111327500D01*
X66810000Y-111927500D02*
X69050000Y-111927500D01*
X67930000Y-107037500D02*
X67930000Y-107687500D01*
X67930000Y-112577500D02*
X67930000Y-111927500D01*
X69050000Y-107687500D02*
X66810000Y-107687500D01*
X69050000Y-111927500D02*
X69050000Y-107687500D01*
G04 #@! TO.C,R9*
X67840000Y-126900000D02*
X67840000Y-133440000D01*
X67840000Y-133440000D02*
X70580000Y-133440000D01*
X69210000Y-126130000D02*
X69210000Y-126900000D01*
X69210000Y-134210000D02*
X69210000Y-133440000D01*
X70580000Y-126900000D02*
X67840000Y-126900000D01*
X70580000Y-133440000D02*
X70580000Y-126900000D01*
G04 #@! TO.C,R5*
X86890000Y-126900000D02*
X86890000Y-133440000D01*
X86890000Y-133440000D02*
X89630000Y-133440000D01*
X88260000Y-126130000D02*
X88260000Y-126900000D01*
X88260000Y-134210000D02*
X88260000Y-133440000D01*
X89630000Y-126900000D02*
X86890000Y-126900000D01*
X89630000Y-133440000D02*
X89630000Y-126900000D01*
G04 #@! TD*
M02*
